<?xml version="1.0" encoding="UTF-8"?>
<svg id="Capa_2" data-name="Capa 2" xmlns="http://www.w3.org/2000/svg" xmlns:xlink="http://www.w3.org/1999/xlink" viewBox="0 0 999.73 679.94">
  <defs>
    <style>
      .cls-1 {
        fill: #0f0d64;
      }

      .cls-2 {
        fill: #14128c;
      }

      .cls-3 {
        fill: #b4ea4d;
        filter: url(#drop-shadow-1);
      }

      .cls-4 {
        fill: #100f78;
      }
    </style>
    <filter id="drop-shadow-1" x="516.77" y="210.44" width="88.89" height="165.47" filterUnits="userSpaceOnUse">
      <feOffset dx="0" dy="7"/>
      <feGaussianBlur result="blur" stdDeviation="5"/>
      <feFlood flood-color="#05143d" flood-opacity=".75"/>
      <feComposite in2="blur" operator="in"/>
      <feComposite in="SourceGraphic"/>
    </filter>
  </defs>
  <g id="svg3919">
    <path id="path7385" class="cls-4" d="M608.31,562.52c-1.05-.73-3.36-1.64-5.15-2.03-1.79-.39-3.25-1.07-3.25-1.52s-2.24-2.52-4.97-4.61l-4.97-3.79,4.1-2.33c2.86-1.62,4.47-2.03,5.32-1.32,1.61,1.34,2.53.27,2.53-2.94,0-1.45.55-3.18,1.22-3.86.96-.96.96-1.65.02-3.15-.76-1.22-.84-2.15-.22-2.53.55-.34.98-5.66.98-12.05,0-10.5.15-11.44,1.86-11.44,1.05,0,3.09,1.77,4.68,4.07,1.55,2.24,4.11,4.74,5.69,5.55,2.91,1.51,6.77,1.07,6.77-.77,0-.6,1.2-.75,2.93-.37,2.36.52,3.16.22,4.09-1.51.76-1.41,1.8-1.99,3.03-1.67,1.03.27,2.4-.14,3.05-.92.93-1.12.62-1.92-1.51-3.9-1.48-1.37-3.34-2.49-4.13-2.49s-1.45-.65-1.45-1.45-2.23-2.47-4.95-3.72c-5.59-2.56-6.91-5.26-4.69-9.59.77-1.51,1.73-4.28,2.14-6.15.62-2.89.37-3.69-1.63-5.23-1.32-1.01-1.77-1.83-1.04-1.84,1.83-.03,9.13-8.03,9.34-10.23.09-.99.2-2.58.25-3.54.11-2.4,3.43-5.52,5.15-4.86.78.3,1.31,1.55,1.17,2.77-.17,1.56.71,2.84,2.96,4.28,3.8,2.44,3.71,3.87-.29,4.56-2.75.48-2.94.82-3.22,5.84-.27,4.79-.02,5.58,2.5,7.74,3.55,3.06,4.69,3.03,7.01-.16l1.87-2.57,3.46,1.82c1.9,1,3.62,1.91,3.82,2.02.2.11-.51,1.46-1.58,3-2.46,3.56-6.26,15.02-6.07,18.31.21,3.72,1.5,4.86,7.43,6.58,6.02,1.75,6.15,3.11.36,4.03-3.73.6-5.65,2.54-4.43,4.5.32.52-.39,2.94-1.57,5.39-2.7,5.57-2.32,7.69,1.58,8.8,2.23.64,3.32,1.74,3.99,4.04.97,3.3,2.27,3.71,7.52,2.36,2.12-.54,2.84-.19,3.97,1.92,1.3,2.42,1.18,2.76-1.86,5.48-3.36,3.01-4.94,3.31-15.35,2.93-3.3-.12-5.93.26-6.33.91-.97,1.57-4.7-3.36-3.97-5.26,1.68-4.37-5.72-2.23-8.08,2.34-1.46,2.83-1.47,3.34-.06,5.49,1.88,2.88.54,4.07-2.65,2.34-3.21-1.74-9.96-1.66-11.85.14-2.14,2.02-3.27,2.14-5.52.58Z"/>
    <path id="path7375" class="cls-4" d="M426.73,534.36c-1.47-.78-2.97-2.31-3.32-3.42-.35-1.1-1.26-2-2.02-2s-1.84-.79-2.4-1.75c-.97-1.67-1.02-1.67-1.05,0-.04,2.12.09,2.12-4.5.2-2.51-1.05-3.53-2.02-3.15-3,.31-.8,0-1.52-.66-1.6-2.34-.29-3.24-.54-6.03-1.69-1.55-.64-3.35-1.19-4-1.24-2.37-.16,4.99-2.69,11.56-3.97,5.06-.98,6.89-1.79,7.35-3.22.5-1.57,1.21-1.8,4-1.28,1.87.35,5.21.09,7.44-.57,5.74-1.72,6.55-.57,6.19,8.89-.16,4.21-.66,7.9-1.12,8.2-.46.29-1.12,1.49-1.49,2.65-.36,1.16-1.44,2.82-2.38,3.67-1.51,1.35-2.06,1.37-4.41.14Z"/>
    <path id="path7371" class="cls-4" d="M436.91,527c0-.98.43-4.06.96-6.85.75-3.96.64-5.71-.52-8.03l-1.48-2.96-8.68.25c-7.53.21-8.79.51-9.56,2.22-.69,1.56-2.94,2.35-10.75,3.77-9.12,1.67-9.99,1.68-11.5.17-.9-.9-2.33-1.63-3.19-1.63-1.91,0-6.26-4.44-8.29-8.47-.83-1.64-2.59-3.52-3.93-4.19-2.46-1.23-4.97-4.78-5.04-7.14-.04-1.39-4.05-7.49-5.29-8.04-.41-.18-.75-1.4-.75-2.69s-.96-3.99-2.14-5.99c-2-3.4-2.03-3.74-.47-5.31.92-.92,3.75-2.13,6.29-2.68,2.54-.55,5.11-1.82,5.72-2.81,2.48-4.07,9.31-10.69,11.03-10.69,1.01,0,3.35-.93,5.19-2.07,4.2-2.59,6.46-1.97,12.3,3.38l4.42,4.04,1.35-4.63c.74-2.54,1.79-4.9,2.33-5.23,1.46-.9,1.19-4.43-.47-6.09-1.92-1.92-.92-4.71,1.25-3.5,2.33,1.31,5.95-.72,6.71-3.76.52-2.06.09-3.1-2.06-4.94-2.54-2.19-2.64-2.58-1.58-6.13,1.5-5.01,1.63-4.51-2.36-8.93l-3.5-3.88,1.6-7.09c1.69-7.46,2.75-8.56,8.4-8.63,2-.03,2.57-.6,2.83-2.92.18-1.59-.22-3.23-.9-3.65-2.19-1.35-.18-4.12,2.73-3.78,2.72.32,4.62,2.82,2.14,2.82-1.24,0-2.89,4.57-4.49,12.38-.44,2.17-.25,2.77.79,2.42,1.47-.49,3.28-3.49,4.91-8.16.84-2.39,1.25-2.66,2.5-1.62.95.79,1.16,1.65.58,2.36-.5.61-1.23,3.66-1.61,6.77l-.7,5.65,3.14.69c4.01.88,6.06-.77,6.06-4.87s2.38-5.58,6.75-4.42c3.84,1.02,3.88,1.36,1.12,8.94-2,5.47-2.32,5.82-5.14,5.6-1.7-.13-3.21.31-3.45,1.01-.24.69.27,1.25,1.14,1.25s1.58.44,1.58.98c0,1.13-3.58,2.1-6.5,1.76-1.42-.17-1.91.27-1.71,1.51.16.96-.21,1.75-.82,1.75s-.86.81-.53,1.83c.36,1.13-.18,2.53-1.43,3.65-1.11,1-2.77,4.23-3.7,7.17-.93,2.94-2.28,5.35-3,5.35-2.2,0-1.47,2.82.93,3.58,1.24.39,2.74,1.39,3.34,2.21.85,1.16,1.97,1.31,5,.66,2.15-.46,5.94-.87,8.41-.92,15.06-.29,15.48-.38,20.34-4.16,5.25-4.09,6.14-7.72,2.66-10.87-2.61-2.37-2.52-3.3.46-4.66,2-.91,3.4-.71,7.59,1.09,5.95,2.56,8.66,2.05,13.69-2.55,1.72-1.58,4.57-4.14,6.32-5.7l3.18-2.83,3.18,3.08c1.75,1.69,3.91,3.08,4.81,3.08,1.35,0,1.48.54.74,3.12-.49,1.72-1.69,4.3-2.67,5.75-1.16,1.73-1.66,4.03-1.46,6.72.28,3.73.05,4.21-2.68,5.34-1.7.7-3.24,2.24-3.57,3.55-.32,1.27-2.22,4.27-4.22,6.66-5.29,6.33-5.91,8.1-3.9,11.17,1.6,2.45,1.58,2.7-.56,5.59-1.73,2.34-3.27,3.16-6.83,3.64-6.26.84-10.71,2.29-12.06,3.93-.62.75-4.16,1.88-7.86,2.5-7.8,1.31-8.29,1.58-9.95,5.35-1.48,3.36-.89,4.68,2.09,4.67,1.21,0,4.29.75,6.85,1.67,4.39,1.57,4.61,1.82,3.7,4.21-.64,1.69-.58,4.12.19,7.33,1.03,4.29,1.39,4.73,3.44,4.22,1.26-.32,2.59-.1,2.95.48,1.06,1.72-3.42,6.85-6.53,7.47-1.58.32-5.37,2.61-8.44,5.11-4.25,3.46-6.12,4.4-7.91,3.95-1.28-.32-3.96-.14-5.95.41-3.18.88-3.62.78-3.62-.78Z"/>
    <path id="path7361" class="cls-2" d="M527.16,488.8c-.39-1.47-1.45-1.8-5.61-1.74-2.83.04-6.1.69-7.28,1.43-1.85,1.17-2.35,1.12-3.66-.35-.83-.94-1.67-3.05-1.86-4.7-.19-1.65-1.02-3.31-1.84-3.68-2.65-1.2-6.81-.86-8.36.68-2.31,2.31-5.53,1.84-6.82-1-.63-1.38-1.4-2.51-1.73-2.52s-1.2-.41-1.96-.88c-1.11-.7-.93-1.46.92-3.96,2.15-2.91,2.19-3.21.62-4.95-2.46-2.72-2.1-4.21,2.34-9.58,2.21-2.67,4.27-5.89,4.59-7.15s1.85-2.82,3.4-3.46c3.01-1.25,4.29-4.18,3.36-7.73-.35-1.33.21-3.26,1.44-4.98,1.1-1.55,2.16-3.93,2.35-5.3.43-3.06,3.84-3.81,7.06-1.55,1.23.86,3.83,1.57,5.77,1.57,2.66,0,4.5.9,7.47,3.62,2.17,1.99,5.25,3.99,6.84,4.45,2.44.7,3.29.41,5.42-1.87,2.77-2.97,8.38-3.76,9.36-1.32.31.76,3.35,2.24,6.75,3.29,3.71,1.14,6.19,2.46,6.19,3.29,0,.77.68,2.07,1.5,2.89,1.33,1.33,1.33,1.67-.07,3.07-1.16,1.16-2.06,1.31-3.43.57-2.9-1.55-5-1.18-5,.88,0,1.03-.67,2.44-1.5,3.12-.82.68-1.5,2.08-1.5,3.1,0,1.53-.53,1.75-3,1.25-2-.4-3-.2-3,.6s-1.27,1.09-3.48.9c-4.55-.39-6.7,2.22-5.86,7.15.33,1.92.94,3.95,1.35,4.5.41.55,1.06,2.45,1.44,4.22.44,2.08,2.44,4.8,5.62,7.65,5.45,4.9,6.12,6.62,2.56,6.62-1.3,0-3.45.85-4.78,1.9-3.41,2.68-14.9,2.65-15.61-.04Z"/>
    <path id="path7359" class="cls-4" d="M553.12,487.75c-.67-.67-1.21-1.68-1.22-2.26,0-.58-2.45-3.18-5.42-5.79-3.66-3.21-5.63-5.79-6.1-8-.38-1.79-1.05-3.71-1.48-4.26-1.09-1.38-1.42-5.67-.58-7.59.44-1,2.07-1.64,4.39-1.73,2.03-.08,3.84-.58,4.02-1.12.18-.54,1.65-.72,3.26-.4,2.46.49,2.93.26,2.93-1.42,0-1.1.68-2.56,1.5-3.25.83-.68,1.5-2.14,1.5-3.23,0-1.5.43-1.81,1.75-1.26,4.01,1.65,5.11,1.55,7.12-.6q2.11-2.26.12-4.12c-2.32-2.16-2.27-1.92-1.02-5.2l.97-2.55,4.68,2.49c5.6,2.98,7.38,3.12,7.38.6s3.4-6.6,4.84-5.71c.64.39,1.16,1.4,1.16,2.23s1.15,3.47,2.55,5.86l2.55,4.34-2.79,2.59c-1.54,1.42-2.94,2.14-3.13,1.58-.81-2.44-3.83-.82-5.12,2.74-.74,2.06-2.4,5.42-3.69,7.46-1.28,2.04-2.1,4.33-1.8,5.09.35.92-1.17,2.19-4.51,3.78-4.75,2.26-5.05,2.62-5.05,6.19,0,2.45-.53,4-1.5,4.37-.82.32-1.5,1.65-1.5,2.97s-.35,2.39-.77,2.39-1.45,1.13-2.29,2.51c-1.19,1.96-1.79,2.25-2.73,1.3Z"/>
    <path id="path7357" class="cls-4" d="M900.22,473.46c-10.55-12.07-11.91-13.29-13.36-11.98-.89.8-3.27,1.46-5.28,1.46h-3.67v-6.44c0-3.54-.45-6.72-1-7.06-2.42-1.5-.95-6.14,3.25-10.19,7.29-7.04,21.58-12.76,36.88-14.79,2.68-.35,7.1-2.12,10.5-4.19,3.23-1.97,7.89-4.12,10.37-4.78,7.46-2,25.34.3,30.24,3.88,1.03.75,2.06,3.45,2.54,6.66.67,4.49.39,6.67-1.64,12.9l-2.45,7.5-19.92,15c-10.96,8.25-23.25,17.35-27.31,20.23l-7.39,5.23-11.74-13.44Z"/>
    <path id="path7351" class="cls-4" d="M876.06,453.94c0-1.38.23-1.94.5-1.25s.28,1.81,0,2.5-.5.12-.5-1.25Z"/>
    <path id="path7347" class="cls-4" d="M593.47,443.41c-1.07-.81-2.78-1.47-3.81-1.47-1.29,0-2.64-1.7-4.37-5.48-1.38-3.01-2.96-5.76-3.52-6.1-1.4-.86-5.86,3.53-5.86,5.76,0,2.58-2.97,2.3-6.98-.66-3.48-2.57-6.02-2.07-6.02,1.17,0,1.58-2.24,1.19-7.4-1.29-1.6-.77-3.51-1.4-4.25-1.4s-1.35-.68-1.35-1.5c0-1.11-1.16-1.5-4.43-1.5-3.53,0-4.83.51-6.39,2.5-2.78,3.53-5.3,3.12-10.22-1.66-3.63-3.52-4.97-4.18-8.74-4.31-2.95-.1-4.89-.74-5.73-1.89-.91-1.24-2.01-1.55-3.88-1.08-2.92.73-3.27-.17-1.21-3.12,2.1-3,3.14-13.1,1.54-15.02-1.07-1.29-.99-2.07.45-4.5,1.97-3.34,1.48-6.23-1.65-9.64-2.21-2.41-3.74-2.17-3.74.59,0,2.12-5.62,6.55-6.51,5.12-.98-1.59-2.49-1.14-2.54.76-.03,1.06-.79.33-1.95-1.86-1.06-2.01-3.22-4.15-4.86-4.83-5.03-2.08-7.39-5.45-7.9-11.28-.28-3.14-1.1-5.79-2.03-6.52-.86-.68-1.38-1.38-1.14-1.55,3.02-2.22,6.29-3.71,8.14-3.72,6.8-.05,11.01-2.58,19.82-11.91,8.56-9.08,8.73-9.35,8.2-13.33-.5-3.75-.39-4.02,1.57-3.5,2.44.64,3.74-.61,4.72-4.5.38-1.51,1.09-2.74,1.58-2.74s1.86-.97,3.04-2.15l2.15-2.15,2.82,3.4c2.43,2.93,2.83,4.28,2.85,9.75.02,4.87.53,7.05,2.18,9.37,1.87,2.63,2.14,4.3,2.05,12.65-.13,12.14.16,13.13,3.86,13.13,1.61,0,2.93-.5,2.93-1.11,0-1.32,5.32-.24,5.83,1.18.18.51,1.03.93,1.89.93,1.74,0,4.2,2.79,4.25,4.82.02.73-.64,2-1.47,2.82-1.82,1.82-1.95,4.78-.25,6.05.69.51,4.77,2.01,9.07,3.32,6.47,1.98,7.96,2.15,8.67,1.01,1.3-2.11,5.03.8,6.4,5,.98,3.02,1.66,3.53,5.62,4.26,2.48.46,7.82.61,11.87.34,6.69-.45,7.74-.25,11.25,2.07,4.23,2.8,4.71,3.77,2.29,4.69-.87.33-1.38,1.17-1.14,1.86.66,1.83-1.11,4.75-2.88,4.75-.98,0-1.24.45-.73,1.25.44.69.82,1.48.86,1.75s.42,1.55.86,2.84c.62,1.81.32,2.67-1.3,3.81-2.47,1.73-2.67,4.09-.59,7.06,1.39,1.98,1.34,2.2-.56,2.81-1.69.54-1.95,1.19-1.43,3.57.63,2.87.58,2.91-3.69,2.88-2.38-.02-5.2-.69-6.27-1.5Z"/>
    <path id="path7339" class="cls-4" d="M460.45,427.98c-1.56-1.72-2.06-7.52-.92-10.5.34-.89,2.39-2.53,4.55-3.63,2.16-1.1,4.18-2.66,4.48-3.46.31-.8.98-1.45,1.51-1.45,1.51,0,9.66-3.9,10.3-4.93,1.25-2.02,9.14,7.92,8.21,10.35-.32.84.47,2.1,1.89,3.03,3.05,2,3.13,4.34.19,5.47-1.24.48-3.49,2.26-5.01,3.98-3.25,3.66-6.3,3.95-12.43,1.17-4.05-1.84-4.31-1.84-7.71-.11-3.31,1.69-3.61,1.69-5.06.09Z"/>
    <path id="path7329" class="cls-1" d="M622.46,405.99c-4.47-3.87-7.34-4.93-8.98-3.3-.41.41-2.18.78-3.92.81-1.74.03-6.76.39-11.16.79-4.4.4-9.99.37-12.42-.07-3.82-.69-4.57-1.25-5.53-4.12-1.24-3.67-5.04-7.1-7.91-7.13-1.3-.02-1.67.46-1.24,1.59.4,1.05.18,1.44-.64,1.13-1.83-.7-12.04-4-13.51-4.37-1.43-.36-1.73-5.37-.32-5.37.51,0,1.21-.88,1.56-1.96.74-2.32-3.28-8.33-5.1-7.63-.78.3-1.19-.75-1.19-3.06,0-3.21.21-3.46,2.4-2.91,1.32.33,2.42.26,2.45-.17s.17-2.63.31-4.9c.14-2.27,1.06-5.36,2.03-6.85,1.6-2.45,2.19-2.65,5.95-2.09,3.54.53,4.47.28,6.13-1.65,2.4-2.78,2.11-5.14-1.19-9.46-1.94-2.55-2.36-3.94-1.81-6.06,1.22-4.67.88-8.19-.97-10.24-1.72-1.9-1.69-2,.9-2.98,1.47-.56,4.12-2.37,5.88-4.02,1.76-1.65,3.97-3,4.92-3.01,2.03,0,3.79-2.91,3.79-6.27,0-2.54,3.52-5.16,6.14-4.57,1.64.37,16.48-10.6,17.89-13.23,1.05-1.97.34-2.94-2.15-2.94-2.04,0-2.75-2.9-3.13-12.88l-.25-6.38-3.5-.28c-1.92-.15-4,.14-4.62.64-.71.59-1.57.37-2.37-.59-.69-.83-2.5-1.51-4.03-1.51-2.81,0-3.98-1.49-3.98-5.08,0-1.2-.69-1.92-1.84-1.92-3.13,0-5.16-3.26-5.16-8.32,0-4.64-.01-4.66-3.9-5.28-3.82-.61-3.88-.68-3-3.76,1.24-4.34,1.17-4.65-1.11-4.65-1.78,0-1.94-.45-1.39-3.9.81-5.07-2.03-13.91-5.34-16.64l-2.48-2.04,4.08-2.7c3.52-2.33,4.43-2.54,6.61-1.55,2.46,1.12,3.06,2.84,2.65,7.58-.11,1.24.34,3.25,1,4.47.66,1.22,1.14,3.71,1.07,5.53s.76,4.88,1.85,6.81c1.08,1.93,2,4.73,2.04,6.23.06,2.42.17,2.5.93.72.89-2.07,1.04-1.77,1.4,2.75.05.69.85,1.81,1.77,2.5s1.97,2.6,2.33,4.25c.51,2.3,1.21,3,3.03,3,3.16,0,7.62,1.97,9.47,4.18.89,1.07,3.53,2.05,6.5,2.41,3.52.44,5.6,1.32,7.02,2.99,1.72,2.01,3.23,2.46,10,2.94,11.24.79,10.9.7,13.56,3.65,3.28,3.63,6.56,4.51,7.37,1.98.58-1.83,4.4-3.64,5.45-2.58,1.37,1.37-2.28,15.61-5.74,22.43-2.09,4.12-4.33,9.3-4.97,11.5-3.39,11.68-4.2,15.14-4.21,17.93,0,1.69-.45,3.74-.98,4.57-.86,1.33-.97,1.33-.95,0,.06-6.23,2.43-16.94,5.41-24.49,1.95-4.95,3.55-9.45,3.55-10.01s-.95-1.61-2.1-2.33c-1.18-.74-1.81-.83-1.43-.22.37.6.36,2.53-.02,4.28l-.7,3.18-1.79-2.21c-2.23-2.76-3.58-2.8-4.27-.14-.33,1.26.01,2.27.88,2.61.78.3,1.42.97,1.42,1.5s-.42.69-.93.38c-.51-.32-1.21-.12-1.56.44-.35.56-.12,1.02.51,1.02.75,0,.91,1.04.47,3.04-.41,1.85-.2,3.61.53,4.49.95,1.14.9,1.56-.26,2.01-1.1.42-1.36,1.85-1.05,5.76.39,4.94.33,5.1-1.23,3.2-1.54-1.89-1.61-1.65-1.15,4.33.44,5.73,1.67,9.98,1.67,5.77,0-1.57.15-1.59,1.55-.19,1.26,1.26,1.36,2.25.51,5.32-.58,2.07-1.12,5.57-1.2,7.77l-.16,4-.7-4.5c-.49-3.17-.74-.76-.85,8.14-.09,7.97.43,15.72,1.43,20.99,1.33,7,1.38,9.3.35,14.18-.71,3.34-1.55,5.31-1.98,4.62-.71-1.15-.93-.69-2.61,5.32-.27.96,0,1.75.58,1.75s1.13-.79,1.21-1.75.45.95.83,4.25c.37,3.3.59,6.13.47,6.3-.12.16-2.31-1.52-4.89-3.75Z"/>
    <path id="path7327" class="cls-4" d="M406.77,399.94c-.9-.53-1.95-2.21-2.33-3.72-.38-1.51-1.22-3.09-1.86-3.5-1.96-1.25-5.6-.87-8.24.86-3.34,2.19-4.32.94-1.57-1.99,1.81-1.93,2.1-3.12,1.65-6.75-.3-2.42-.77-5.11-1.04-5.97-.57-1.81-10.51-5.24-12.72-4.39-.95.36-1.68-.17-2.02-1.49-.32-1.24-1.36-2.06-2.61-2.06-1.48,0-2.79-1.41-4.57-4.93-1.37-2.71-2.96-5.21-3.52-5.56s-1.02-1.85-1.02-3.35-.64-3.64-1.43-4.76c-.79-1.12-1.73-4.92-2.08-8.43-.72-7.07-2.96-12.23-6.87-15.89-2.41-2.25-2.87-2.33-6.67-1.19-4.36,1.31-6.94.35-6.94-2.56s-5.37-11.97-9.12-15.4c-2.14-1.96-3.88-4.3-3.88-5.2s-.51-2.75-1.12-4.11c-.75-1.64-.88-5.35-.41-11.05l.71-8.58h5.36c5.28,0,10.25-1.48,11.69-3.48.4-.56.74-3.09.75-5.62.01-3.3.57-5.1,2-6.39,1.59-1.44,1.87-2.57,1.37-5.65-.56-3.49-.41-3.86,1.58-3.86,1.21,0,3.11-.49,4.23-1.09,1.62-.87,1.92-1.72,1.43-4.16-.64-3.22,1.44-6.74,3.99-6.74.7,0,1.58-.94,1.94-2.09.64-2.01.77-1.98,3.62.93,1.63,1.66,4.29,3.32,5.92,3.67,1.67.37,4.07,2.11,5.51,3.99,3.04,3.98,8.21,6.24,9.08,3.96.67-1.75,3.49-1.92,5.09-.32.86.86,1.86.85,4.02-.05,3.59-1.49,7.79-.1,8.74,2.9,1.17,3.67,4.58,2,9.12-4.49,3.41-4.87,4.87-6.13,7.86-6.75,2.11-.44,4.45-.34,5.53.24,1.03.55,3.18,1,4.79,1,2.23,0,4.11,1.25,7.94,5.31,2.76,2.92,5.79,6.8,6.74,8.63,1.62,3.14,1.62,3.53,0,7.13-1.25,2.78-1.53,5.03-1.04,8.33.57,3.77.25,5.28-1.88,9.1-2.72,4.86-3.23,7.97-1.5,9.04.67.42.44,1.11-.65,1.9-2.21,1.61-1.49,4.43,2.94,11.56,5.21,8.39,7.03,10,11.29,10,2.05,0,4.53.74,5.54,1.66,2.26,2.05,2.43,1.89,4.76-4.74,1.04-2.95,2.27-5.49,2.73-5.64,1.53-.5,4.75,9.12,5.16,15.39l.4,6.17-4.36.63c-2.4.34-6.84.36-9.86.03-16.25-1.77-17.96-1.76-18.68.17-.87,2.35-9.8,11.34-11.26,11.34-1.58,0-2.9,4.02-3.25,9.92-.2,3.3-.75,5.08-1.59,5.08-.7,0-1.58.79-1.95,1.75s-1.49,2.42-2.5,3.25c-2.46,2.02-3.95,10.11-4.46,24.18-.27,7.36-.86,12.03-1.61,12.63-1.92,1.55-7.06,2.24-8.83,1.19Z"/>
    <path id="path7323" class="cls-4" d="M300.91,317.94c0-.55-.48-1-1.06-1s-.78.45-.44,1c.34.55.82,1,1.06,1s.44-.45.44-1Z"/>
    <path id="path7315" class="cls-2" d="M526.63,326.62c-.51-1.3-1.31-1.63-2.8-1.16-2.52.8-6.15-2.26-8.01-6.74-1.2-2.9-1.45-3-6.02-2.46-4.35.52-4.79.37-5.08-1.63-.2-1.42-1.02-2.2-2.3-2.2-1.09,0-2.12-.68-2.28-1.5-.42-2.16-17.58-7.42-23.24-7.12-7.81.4-7.46.1-11.53,9.87-1.48,3.54-2.01,4.05-3.23,3.03-.8-.67-3.51-1.45-6-1.75-4.45-.52-4.64-.7-9.37-8.53-2.66-4.4-4.84-8.34-4.84-8.75s1.11-.75,2.49-.75c3.07,0,3.13-.7.32-3.69l-2.18-2.32,2.43-4.24c1.66-2.91,2.64-6.6,3.11-11.74.38-4.12.99-8.94,1.36-10.7.76-3.59-1.05-6.86-7.64-13.8-3.78-3.98-3.81-4.08-7.47-24.52l-3.67-20.52,3.33-4.98c1.83-2.74,3.69-5.13,4.12-5.32.43-.18.79-.73.79-1.22s3.77-6.64,8.39-13.67,8.71-13.91,9.12-15.28,2.16-3.87,3.9-5.55c4.42-4.25,7.34-8.56,8.15-12.01.79-3.38,4.52-9.42,5.83-9.43.49,0,1.71-.96,2.72-2.12,1.48-1.71,2.47-1.98,5.12-1.4,3.18.69,10.63,1.29,23.51,1.88,6.66.31,10.27,2.34,10.27,5.79,0,1.09.72,1.85,1.75,1.85,1.34,0,1.06.56-1.17,2.34-2.14,1.71-2.57,2.54-1.64,3.12.75.46,1.64.22,2.15-.59.48-.76.88-.93.89-.38,0,.55,1.65,1.12,3.64,1.26,3.4.24,10.13,4.55,10.3,6.6.04.47,1.2,2.19,2.57,3.83s2.5,3.72,2.5,4.64c0,.92.9,3.15,2,4.95,1.1,1.8,2,4.23,2,5.41s1.19,3.69,2.64,5.6c1.45,1.91,2.72,4.2,2.81,5.09.32,3.17,2.7,6.69,6.11,9.03,1.89,1.3,3.45,2.64,3.45,2.98,0,.34,1.04,1.83,2.31,3.3,2.87,3.34,2.53,8.68-.75,11.76l-2.24,2.1-2.6-2.6c-2.39-2.39-2.83-2.5-5.38-1.27-2.17,1.04-2.94,2.29-3.52,5.69-.97,5.67-2.06,6.84-7.12,7.68-4.96.82-9.59,5.48-9.65,9.71-.03,2.26.39,2.75,2.4,2.75,1.34,0,2.74-.48,3.1-1.07.43-.7,1.3-.48,2.53.63,3.93,3.56.52,13.93-4.57,13.93-2.7,0-14.35,9.13-14.44,11.32-.03.73,1.93,3.37,4.37,5.87,3.7,3.81,4.53,5.39,5.06,9.68.9,7.21,2.15,9.83,5.82,12.15,1.76,1.11,3.19,2.86,3.19,3.89,0,1.03.9,2.37,2,2.98,1.1.61,2.28,1.49,2.62,1.96.34.47,2.05,1.14,3.8,1.5s3.27,1.1,3.38,1.65c.29,1.43-8.18,1.84-9.83.48-1.86-1.55-4.99-.41-7.45,2.72-2.4,3.05-2.62,6.57-.51,8.32,1.15.95,1.24,1.58.38,2.62-.62.75-.91,2.2-.65,3.22s.19,3.61-.16,5.76c-.49,2.94-.82,3.45-1.36,2.08Z"/>
    <path id="path7325" class="cls-2" d="M368.91,395.08c0-2.14-3.63-7.13-5.2-7.13-.64,0-.55.6.22,1.52.7.84,1.02,1.77.73,2.06-.83.83-6.72-5.81-7.37-8.3-.55-2.11-7.38-10.19-7.38-8.72,0,.39.98,2.33,2.19,4.32l2.19,3.62-2.29-2c-1.26-1.1-2.98-3.35-3.83-5-.85-1.65-3.95-5.75-6.9-9.11s-5.35-6.71-5.35-7.43c0-1.99-7.34-13.92-8.58-13.94-.59,0-2.16-1.17-3.48-2.57-1.97-2.1-2.07-2.43-.52-1.83,1.67.64,1.63.38-.4-2.36-1.25-1.7-2.83-2.88-3.49-2.62-.67.26-1.79-.23-2.49-1.08-.71-.85-2.09-1.55-3.09-1.55s-2.73-1.24-3.86-2.75c-1.13-1.51-3.05-3.75-4.27-4.97-2.99-3-1.61-4.05,1.79-1.37,1.91,1.5,3.04,1.83,3.78,1.09,1.78-1.78-.76-4.55-3.87-4.2-1.49.17-3.28-.18-3.99-.77-.71-.59-1.94-.82-2.73-.52-.79.3-2.28-.38-3.31-1.52-1.67-1.84-1.73-2.46-.59-5.63.94-2.59.99-3.86.19-4.66s-1.1-.37-1.1,1.6c0,1.49-.45,2.7-1,2.7s-1-.71-1-1.57-.68-2.25-1.51-3.08c-2.12-2.12-.93-3.46,2.07-2.32,2.28.87,2.4.78,1.43-1.04-.58-1.09-1.42-1.99-1.85-1.99s-2.28-1.34-4.11-2.97c-1.83-1.63-3.67-2.75-4.1-2.49-.43.26-1.62-.59-2.64-1.9-1.03-1.31-2.87-2.69-4.09-3.08-1.22-.39-2.01-1.06-1.75-1.48.26-.43-.4-1.73-1.49-2.89-1.08-1.16-1.97-2.8-1.97-3.65,0-2.02-1.89-1.99-2.67.04-.49,1.28-.77,1.32-1.45.25-.65-1.03-.85-.93-.86.39-.01,1.47-.38,1.56-2.46.61-3.21-1.46-3.94-3.58-1.5-4.36,2.07-.66,2.54-2,1.03-2.93-.5-.31-1.1,0-1.33.68-.33.99-1,.98-3.25-.05-2.54-1.16-2.7-1.13-1.55.26,2.34,2.82-.76,1.71-4.19-1.5-3.12-2.92-3.15-3.03-.77-2.45l2.5.61-2.37-2.06c-1.94-1.69-2.15-2.33-1.13-3.55.98-1.18.98-1.81.02-2.97-.98-1.18-.8-2.35.93-5.92,1.18-2.44,2.87-5.04,3.75-5.77,1.41-1.17,1.51-1.03.89,1.17l-.71,2.49,1.92-2.39,1.92-2.39.66,2.64c.36,1.45,1.07,2.64,1.57,2.64.53,0,.56-1.22.07-2.92-.81-2.81-.56-3.09,6.51-7.57,7.71-4.88,14.89-11.85,16.45-15.97.9-2.37,1.02-2.39,4.06-.87,2.52,1.26,3.64,1.34,5.7.4,1.41-.64,2.87-.81,3.25-.37.95,1.09,4.79,16.73,5.51,22.47.72,5.73,1.71,6.59,8.58,7.57,5.05.72,5.44.97,5.75,3.74.19,1.63,1.87,4.67,3.75,6.74,3.74,4.14,3.93,5.41,2.4,16.02-.77,5.34-.67,7.64.51,11,.81,2.34,1.49,4.9,1.5,5.69,0,.79,1.76,3.04,3.89,5,2.31,2.12,5.34,6.69,7.51,11.31,3.84,8.18,4.38,8.54,10.28,6.85,2.74-.79,3.47-.56,5.62,1.75,2.63,2.83,5.97,9.28,5.56,10.76-.52,1.9,1.41,10.92,2.74,12.83.77,1.1,1.41,3.23,1.41,4.73s.46,3,1.02,3.35,2.14,2.85,3.52,5.56c1.75,3.45,3.1,4.93,4.51,4.93,2.39,0,3.69,2.66,2.08,4.27-.62.62-1.13,2.07-1.13,3.21s-.73,3.12-1.62,4.39c-1.59,2.28-1.54,7.25.13,11.38.58,1.44.16,1.75-2.4,1.75-2.37,0-3.11-.45-3.11-1.87Z"/>
    <path id="path7307" class="cls-4" d="M291.26,311.7c-1.84-2.97-5.26-10.19-4.96-10.48.54-.54,5.24,7.07,5.85,9.47.64,2.5.28,2.9-.89,1.01Z"/>
    <path id="path7297" class="cls-1" d="M333.16,278.21c-3.21-.29-4.25-.81-4.25-2.1,0-.95-1.54-3.3-3.41-5.24-1.94-1.99-3.56-4.79-3.75-6.47-.31-2.75-.72-3.01-5.84-3.81-3.03-.47-6.03-1.29-6.69-1.82s-1.49-3.52-1.86-6.65-1.66-9.28-2.87-13.68l-2.2-8-5.05.31c-4.72.29-5.33.04-9.22-3.7l-4.17-4.01.67-8.05c.44-5.33.32-8.05-.37-8.05-.57,0-1.9-1.69-2.96-3.75-1.06-2.06-2.98-5.73-4.28-8.14-1.31-2.43-2.39-6.22-2.43-8.5l-.08-4.11,7.75.32c8.67.35,8.74.28,6.7-7.05-.63-2.26-.68-4.43-.14-5.5.49-.97.62-7.26.29-13.98-.57-11.68-.51-12.23,1.4-12.5,1.7-.24,2.11-1.35,2.75-7.29,1.31-12.21,1.28-27.81-.06-30.22-.68-1.22-2.04-8.33-3.02-15.79-2.04-15.5-1.84-16.11,4.79-14.99l4.03.68v-9.09c0-6.89.32-9.09,1.33-9.09.73,0,11.19.66,23.25,1.47,12.06.81,25.43,1.6,29.72,1.75l7.79.28,2.38,5c2.29,4.82,8.32,12.5,9.81,12.5.77,0,4.72,3.7,4.72,4.42,0,.23,2.92,3.43,6.5,7.12,3.57,3.68,6.5,7.04,6.5,7.47s1.21,1.08,2.69,1.45c3.51.88,11.03,8.99,11.87,12.81.36,1.64,1.58,4.55,2.71,6.46,1.14,1.93,1.99,5.03,1.92,6.97-.07,1.92.53,5.08,1.34,7.02.81,1.94,1.48,4.26,1.48,5.15s2.71,3.59,6,5.99c3.29,2.4,5.99,4.74,5.99,5.2,0,1.85,4.7,5.72,7.76,6.39,1.79.39,3.7,1.54,4.24,2.55.54,1.01,2.31,2.13,3.92,2.48,1.62.36,3.51,1.34,4.22,2.19,1.13,1.36,5.17,3.51,7.03,3.75,2.17.27.78,2.96-9.66,18.69-6.35,9.57-11.91,18.07-12.37,18.89-.49.89.52,8.82,2.47,19.5,4.26,23.22,4.28,21.94-.37,21.01-11.67-2.34-12.39-2.07-19.46,7.41-4.03,5.41-5.12,5.85-6.59,2.63-1.37-3-5.52-4.25-9.34-2.81-2.16.81-3.05.74-3.95-.35-1.52-1.83-3.4-1.77-5.34.17-2.13,2.13-5,1.05-8.14-3.07-1.44-1.88-3.85-3.65-5.49-4.01-1.6-.35-4.16-1.96-5.68-3.56-3.06-3.25-4.76-3.68-5.63-1.42-.32.82-1.15,1.51-1.86,1.53-2.29.06-5.02,4.91-4.55,8.09.5,3.38.12,3.76-4.19,4.27-4.04.47-4.07.52-3.1,4.84.68,3.01.49,3.98-1.06,5.38-1.32,1.19-1.89,3.08-1.9,6.3,0,2.53-.35,5.05-.75,5.62-.83,1.16-5.97,3.57-7.03,3.3-.39-.1-2.62-.35-4.95-.56Z"/>
    <path id="path7397" class="cls-2" d="M819.59,672.28c-4.5-4.22-9.31-8.77-10.69-10.13-2.47-2.43-2.47-2.46-.25-1.93,1.32.31,2,.13,1.65-.44-.61-.99-4.59-2.76-7.59-3.36-3.18-.64-5.39-2.33-11-8.4-3.09-3.34-6.17-6.08-6.84-6.08-.87,0-.92-.36-.17-1.26.78-.94.4-1.57-1.45-2.44-2.14-1.01-2.33-.97-1.3.26,2.41,2.9-1.08,1.44-7.22-3.03-3.38-2.46-6.63-4.71-7.23-5-.74-.36-.69-.72.16-1.11,1.93-.9,1.48-2.42-.73-2.42-1.35,0-2.17-.87-2.57-2.75-.33-1.51-1.28-4.4-2.13-6.41-1.48-3.51-1.4-4.07,1.71-13.5,1.79-5.41,3.57-10.29,3.97-10.84.4-.55,1.02-2.23,1.38-3.73.37-1.57,1.84-3.35,3.44-4.17,3.01-1.56,5.18-5.31,5.18-8.97,0-1.25,1.16-3.37,2.57-4.69,1.85-1.74,2.43-3.11,2.08-4.92-.68-3.47,2.09-9.01,4.5-9.01,3.01,0,5.57,3.12,6.17,7.52.92,6.77,2.35,9.48,4.99,9.48,1.3,0,3.18.9,4.18,2,1,1.1,2.3,1.99,2.91,1.98,1.38-.02,4.75-3.56,7.21-7.56,3.44-5.6,7.23-9.42,9.36-9.42,1.15,0,3.23-.74,4.62-1.65,2.43-1.59,2.68-1.54,6.99,1.5,2.46,1.73,4.89,3.15,5.41,3.15,1.67,0,3.02,3.59,1.8,4.8-1.61,1.61.35,3.59,5.11,5.16,2.16.71,3.74,1.8,3.51,2.41-.23.61,1.72,2.45,4.33,4.08,2.62,1.63,6.65,4.95,8.97,7.37,2.71,2.84,4.76,4.2,5.75,3.82.84-.32,1.54-.19,1.54.3s1.5,1.39,3.33,1.99c3.37,1.11,6.84,4.86,8.06,8.7.41,1.29,2.41,2.77,5.2,3.84,4.31,1.65,4.45,1.82,2.87,3.57-1.17,1.29-1.56,3.15-1.31,6.25l.36,4.42-16.5.66c-9.07.36-19.1.93-22.28,1.27l-5.78.61-5.9,11.12c-3.24,6.11-6.31,11.58-6.81,12.15-2.33,2.63-2.21,6.14.28,8.49,2.53,2.38,3.23,5.83,1.53,7.53-.85.85-1.1,3.5-1.06,11.35.01,2.53-1.59,5.1-3.17,5.1-.52,0-4.62-3.45-9.13-7.66Z"/>
    <path id="path7395" class="cls-1" d="M674.64,643.81c-.88-.49-3.87-1.33-6.65-1.86-2.77-.53-6.89-2.18-9.14-3.67-3.19-2.11-5.91-2.89-12.27-3.5-4.5-.43-9.89-.97-11.98-1.19-2.28-.24-4.89-1.42-6.5-2.93-4.91-4.61-9.44-6.72-14.44-6.73-2.61,0-4.75-.29-4.75-.64s1.01-1.67,2.25-2.93c1.24-1.26,2.7-2.77,3.25-3.35.55-.58,3.38-3.2,6.29-5.82l5.29-4.76-.94-4.87c-.75-3.9-1.83-5.69-5.44-9-5.27-4.83-6.56-8.34-6.81-18.66-.23-9.32,1.1-11.97,6.03-11.97,1.89,0,4.93.54,6.76,1.2,4.49,1.62,6.31.02,4.29-3.76-1.2-2.24-1.18-2.97.1-5.26,1.87-3.34,4.93-4.15,4.93-1.31,0,1.11.48,2.31,1.06,2.67s1.47,1.74,1.98,3.06c1.1,2.9,2.53,3.08,3.92.48.89-1.67,2.07-1.9,8.99-1.77,6.6.13,8.42-.2,10.69-1.88,3.23-2.42,9.26-12.93,9.32-16.28.03-1.73.47-2.2,1.63-1.75.87.33,1.98.61,2.46.61,1.52,0,4.96,4.29,4.96,6.19,0,1,.47,1.81,1.05,1.81s1.53,1.38,2.12,3.07c1.22,3.5,4.12,4.93,10.03,4.93,2.71,0,4.52.59,5.4,1.75,1.79,2.36,1.74,7.72-.1,9.24-1.56,1.29-1.29,4.58.72,8.72,1.56,3.22,9.05,4.25,12.08,1.65,3.11-2.67,9.58-5.81,10.37-5.02.36.36.14.66-.51.66-4.15,0,3.27,9.73,9.08,11.92,1.75.66,2.75,1.77,2.75,3.06,0,1.11.56,2.03,1.25,2.03,6.05.03,33.13,1.05,33.34,1.26.15.15-1.73,5.78-4.17,12.52l-4.44,12.25,2.01,3.95c2.14,4.19,2.59,7.02,1.12,7.02-.49,0-1.16-.7-1.49-1.56s-1.1-1.26-1.7-.88c-.61.37-2.39-.27-3.97-1.44-3.41-2.52-3.95-2.6-3.95-.59,0,.84.79,1.8,1.75,2.12,4.46,1.5,11.25,4.78,11.25,5.43,0,.4-3.04-.57-6.75-2.15-3.71-1.58-8.32-2.9-10.25-2.92-4.37-.05-6.97-1.43-4.49-2.38.92-.35,2.08-.39,2.58-.08.5.31.91.1.91-.46s-.94-1.53-2.08-2.14c-1.64-.88-2.46-.78-3.83.46-2.32,2.1-3.09,1.99-3.09-.45,0-3.07-2.72-3.53-4.91-.83-2.27,2.8-1.75,4.19,1.24,3.29,1.48-.45,1.85-.33,1.17.38-.55.57-2.12,1.24-3.5,1.49s-.25.3,2.5.1c3.46-.24,4.54-.06,3.5.61-.82.53-4.25.97-7.62.97-5.82.01-6.31.21-10,4.01-2.13,2.2-4.68,4-5.66,4s-2.89.72-4.23,1.6c-1.34.88-4.25,2.01-6.45,2.5s-6.15,2.21-8.77,3.82c-2.62,1.6-6.34,3.17-8.26,3.48-7.76,1.25-9.73,1.33-11.26.47Z"/>
    <path id="path7393" class="cls-4" d="M605.28,621.48c-.33-.85-1.02-1.54-1.55-1.54s-2.03-1.28-3.35-2.84c-1.95-2.32-3.22-2.85-6.88-2.91-3.13-.05-5.18-.71-6.78-2.2-1.26-1.17-2.45-1.67-2.64-1.09-.57,1.71-2.96,1.19-5.09-1.09-1.52-1.63-2.7-1.99-5-1.53-1.66.33-3.25.22-3.53-.24-.7-1.13-4.55-2.1-4.55-1.15,0,.41,1.01,1.24,2.25,1.84,2.22,1.07,2.22,1.09.12,1.15-1.17.04-2.72-.64-3.44-1.51-.72-.87-3.59-2.72-6.37-4.11-2.78-1.39-5.88-3.25-6.87-4.13-1.4-1.23-1.99-1.31-2.58-.35-.76,1.22-4.11.63-4.11-.73,0-.38-1.53-.74-3.4-.79-1.87-.05-6.86-1.72-11.09-3.7-4.23-1.98-8.1-3.6-8.6-3.6s-.91-.66-.91-1.46-2.02-2.64-4.5-4.1c-2.47-1.45-4.5-3.22-4.5-3.93,0-1.63-4.17-4.4-7.75-5.14-1.7-.35-4.02-2.27-6.1-5.07-3.35-4.5-9.16-7.91-11.76-6.91-1.01.39-1.38-.39-1.38-2.91,0-2.77.55-3.73,2.82-4.9,4.7-2.43,5.62-4.11,4.17-7.62-1.08-2.62-1.01-3.29.53-5,2.3-2.55,6.92-2.53,9.49.04,1.66,1.66,2.75,1.89,6.25,1.32,7.7-1.26,16.88-.53,27.89,2.21,2.14.53,2.78.25,3.32-1.46.37-1.16.54-3.35.39-4.85-.31-2.91.66-5.23,2.19-5.23,1.23,0,3.95,6.62,3.95,9.6,0,1.72.72,2.54,2.66,3.03,2.19.55,3.11.11,5.25-2.49,2.15-2.62,3.3-3.15,6.72-3.15,3.59,0,4.28-.36,5.3-2.81,1-2.41,1.61-2.75,4.25-2.37,3.4.5,6.27,2.88,7.27,6.04.81,2.55,4.16,3.71,6.1,2.11.8-.66,1.45-.8,1.45-.3,0,1.24,9.72,11.34,10.92,11.34.53,0,1.56.79,2.28,1.75,1.62,2.15,5.24,4.25,7.33,4.25.86,0,2.72,1.16,4.13,2.57,2.44,2.44,2.54,2.97,2,10.25-.43,5.85-.22,8.14.88,9.62.8,1.07,1.45,2.76,1.45,3.75s.37,1.81.82,1.81,2.42,1.46,4.37,3.25c2.79,2.55,3.68,4.26,4.15,7.91.57,4.45.42,4.82-3.29,8.17-2.13,1.93-4.82,4.01-5.97,4.62-1.15.61-2.09,1.69-2.09,2.39s-1.36,2.28-3.02,3.51c-2.57,1.9-3.1,2-3.61.69Z"/>
    <path id="path7389" class="cls-4" d="M851.57,579.27c-.37-.37-.67-1.4-.67-2.29,0-1-1.64-2.23-4.25-3.2-3.4-1.26-4.2-2.01-4-3.77.3-2.67-1.37-6.05-3.04-6.1-.67-.02-2.77-1.37-4.68-3-3.74-3.19-7.44-3.73-10.38-1.5-1.02.77-2.52,1.14-3.35.82-1.55-.59-4.37,2.22-8.72,8.71-3.26,4.87-6.13,8-7.33,8-.56,0-1.57-.67-2.26-1.5-.68-.82-2.29-1.5-3.56-1.5-2.95,0-3.4-.79-4.11-7.23-.69-6.27-3.65-9.77-8.26-9.77-2.37,0-3.37.67-4.64,3.14-.94,1.82-1.39,4.29-1.08,5.87.41,2.03-.05,3.3-1.79,4.93-1.29,1.21-2.65,3.63-3.03,5.38l-.69,3.18-1.02-2.5c-2.11-5.17-3.7-7.53-5.79-8.62-3.74-1.95-8.79-8.26-9.31-11.63-.28-1.78-.81-4.18-1.18-5.33-.52-1.59-.02-2.52,2.09-3.9,1.88-1.23,2.9-1.45,3.16-.66.55,1.64,1.59,1.44,4.22-.85,1.27-1.1,3.11-2,4.09-2s2.11-.52,2.5-1.15c.69-1.11-1.07-.91-6.25.72-1.67.52-1.66.46.09-.65,2.08-1.32,14.48-3.93,18.57-3.91,1.79.01,2.11.26,1.14.88-1.14.72-1.14.94,0,1.32.74.25,1.94-.14,2.66-.85s2.97-1.76,5.01-2.32c2.04-.56,5.07-2.26,6.75-3.78,2.85-2.58,6.86-5.26,7.88-5.26.25,0,.59,1.46.76,3.25.29,3.01.61,3.27,4.31,3.55,4.86.37,6.5,2.28,6.52,7.64.02,5.08.5,5.79,5.67,8.41,2.3,1.17,4.46,2.58,4.81,3.13.76,1.22,7.47,1.32,9.34.14.73-.47,1.18-1.92,1-3.23-.27-1.95.16-2.44,2.34-2.7,1.47-.17,4.49.62,6.71,1.75,2.22,1.13,5.58,2.06,7.47,2.06,2.14,0,3.65.57,4.01,1.51.32.83.88,6.91,1.26,13.5l.68,11.99h-6.48c-3.57,0-6.78-.3-7.15-.67Z"/>
    <path id="path7387" class="cls-1" d="M474.91,564.44c-1.93-.74-4.81-1.38-6.41-1.42-1.6-.04-4.98-1.38-7.5-2.97-2.52-1.59-7.05-3.41-10.06-4.04-5.6-1.17-14.02-5.41-14.02-7.07,0-.51-1.27-2.4-2.83-4.21-4.24-4.92-4.53-6.56-1.77-9.85,1.33-1.58,2.58-3.36,2.78-3.96s1.84-1.14,3.63-1.19c1.8-.05,3.51-.49,3.81-.97.3-.48,2.02-.6,3.82-.26,2.85.53,4.02.02,8.91-3.97,3.1-2.52,6.56-4.58,7.7-4.58,3,0,8.1-5.92,7.74-9-.23-2.05-.78-2.47-3.04-2.31-2.24.15-2.75-.23-2.75-2.05,0-1.23-.47-2.7-1.04-3.28-.72-.72-.72-1.88,0-3.77.57-1.5,1.04-3.06,1.04-3.47,0-.97-6.73-3.92-10.8-4.74-3.62-.72-3.78-1.11-1.74-4.02,1.07-1.53,2.95-2.23,7.11-2.66,3.59-.37,7.04-1.5,9.45-3.09,2.83-1.87,5.75-2.69,11.46-3.21l7.67-.69,2.87,3.14c3.35,3.67,4.83,3.88,7.98,1.14,4.19-3.64,9-1.55,9,3.9,0,3.73,3.72,5.86,7.08,4.05,3.94-2.11,9.21-2.01,10.97.21,1.2,1.51,2.99,2.02,7.8,2.22,5.21.21,6.76-.13,9.39-2.07,3.42-2.53,7.66-3.02,9.56-1.12,1.45,1.45,1.61,7.8.2,7.8-.55,0-1,.86-1,1.92s-.4,2.07-.89,2.25c-.49.18-1.33,4.95-1.86,10.58-1.08,11.43-5.32,23.17-8.39,23.22-2.1.03-2.86,2.07-2.86,7.72,0,3.93-.23,4.43-1.75,3.78-4.01-1.72-12.41-2.78-22.66-2.87-7.76-.07-11.03-.46-11.33-1.34-.71-2.09-8.67-1.56-10.72.71-1.63,1.81-1.71,3.2-.42,7.96.22.81-1.24,2.51-3.36,3.92-3.37,2.24-3.75,2.92-3.75,6.82s-.16,4.33-2.75,4.26c-1.51-.04-4.33-.68-6.25-1.42Z"/>
    <path id="path7379" class="cls-4" d="M586.91,545.94c-2.25-3.17-5-4.01-5-1.53,0,.89-.59,1.24-1.5.89-.82-.32-1.5-1.21-1.5-1.98s-.9-2.17-2-3.12c-1.1-.94-2-2.04-2-2.43s1.8-2.8,4-5.34c2.2-2.54,4-5.32,4-6.17,0-1.24.75-1.42,3.75-.91,8.68,1.49,9.25,1.72,9.25,3.66,0,1.53.72,1.92,3.51,1.92,3.26,0,3.42.14,2.26,2-1,1.6-1,2.4,0,4,.74,1.19.84,2,.24,2-.55,0-1.01,1.58-1.01,3.51,0,3.31-.12,3.44-2.13,2.25-1.72-1.01-2.22-1.01-2.59.01-.4,1.11-5.32,4.23-6.66,4.23-.26,0-1.44-1.35-2.62-3Z"/>
    <path id="path7377" class="cls-4" d="M547.57,547.27c-.37-.37-.67-1.59-.67-2.72s-.71-3.92-1.58-6.2c-1.54-4.04-1.51-4.29,1.08-9.4,1.96-3.87,2.91-7.79,3.61-14.88.96-9.7,2.4-15.13,4.02-15.13.48,0,.88-1.99.88-4.43s.62-5.05,1.45-5.88c.8-.8,1.16-1.75.79-2.11-.36-.36.36-.92,1.6-1.25,1.38-.36,2.06-1.13,1.74-1.96-.72-1.88.38-1.71,3.91.63,1.65,1.09,4.45,1.99,6.21,1.99,3.58,0,4.71,1.42,5.81,7.27.64,3.41.99,3.73,3.97,3.73,2.42,0,3.41-.51,3.79-1.99.56-2.13,5.22-4.43,6.9-3.4.56.35.77,1.84.48,3.33-.54,2.68-.51,2.7,5.11,2.63,5.3-.07,5.71.1,6.64,2.7.84,2.37.65,3-1.31,4.38-1.8,1.26-2,1.79-.95,2.45,1.96,1.21,2.59,20.83.7,22.02-2.44,1.55-4.85.99-4.85-1.12,0-1.11-.67-2-1.5-2-1.06,0-1.5-1.09-1.51-3.75,0-2.06-.65-4.88-1.43-6.25s-2.17-3.96-3.1-5.75c-1.75-3.37-3.46-4.28-3.46-1.86,0,.77-1.41,2.9-3.13,4.74-3.07,3.29-3.11,3.43-1.9,8.13,1.36,5.32,1.01,6.23-4.92,12.59-2.71,2.91-3.57,3.27-6.46,2.73-3.01-.57-3.45-.34-4.58,2.4-1.12,2.7-1.71,3.02-5.56,3.02-3.65,0-4.64.46-6.45,3-2.06,2.9-3.95,3.72-5.33,2.33Z"/>
    <path id="path7383" class="cls-2" d="M864.73,555.8c-.3-3.16-.58-3.39-4.82-3.93-2.47-.32-6.62-1.63-9.21-2.93-4.03-2.02-5.09-2.18-7.35-1.15-2.15.98-2.53,1.67-2.02,3.68.58,2.3.36,2.47-3.13,2.47-4.68,0-13.97-4.72-14.71-7.48-.3-1.11-.55-3.62-.56-5.57-.02-4.54-1.49-5.95-6.19-5.95-3.2,0-3.88-.39-4.41-2.5-1.25-4.96-.2-5.58,9.09-5.36,5.52.13,8.92.65,9.61,1.49,2.08,2.51-.07,3.48-6.19,2.79-4.3-.49-5.92-.34-5.92.53,0,.75.76.95,2.04.55,1.12-.36,4.43.1,7.34,1.02,4.9,1.54,5.27,1.87,4.83,4.33l-.48,2.66,2-2c1.1-1.1,1.81-2.34,1.57-2.75-.62-1.08,3.11-.92,6.24.27,2.41.92,2.63.82,2.17-.96-.41-1.55.2-2.21,2.79-3.07,4.9-1.62,6.82-6.95,3.36-9.37-1.15-.81-1.8-1.95-1.43-2.54.41-.66.06-.84-.89-.47-.85.33-1.55,1-1.55,1.49s-.45.89-1,.89c-2.32,0-.62-1.98,5.03-5.86,3.32-2.28,6.45-4.14,6.95-4.14s3.1-2.18,5.77-4.85c4.7-4.7,4.88-5.1,5.95-13.17.89-6.73,1.53-8.65,3.37-10.04,2.14-1.61,2.27-2.37,2.14-12.59-.07-5.98.29-11.54.81-12.36.7-1.11.95-.66.96,1.76.02,3.21.07,3.25,4.82,3.25,2.64,0,5.23-.42,5.75-.93.59-.58,5.33,4.07,12.58,12.34l11.63,13.27,1.58,11.41c1.77,12.75,5.24,54.67,4.57,55.27-.24.21-9.88.91-21.43,1.54-11.55.64-23.33,1.42-26.18,1.73l-5.18.58-.32-3.36Z"/>
    <path id="path7373" class="cls-4" d="M836.41,527.48c2.2-1.36,4.53-2.49,5.17-2.51.64-.02,1.39-.59,1.67-1.28.28-.69.54-.77.58-.17.15,2-4.87,5.75-8.16,6.09l-3.26.34,4-2.47Z"/>
    <path id="path7369" class="cls-4" d="M585.97,523.98c-2.83-.44-3.58-1.09-4.25-3.66-.71-2.73-.37-3.6,2.66-6.91,3.11-3.4,3.54-3.59,4.15-1.87.38,1.05,1.28,2.61,2.01,3.47s1.54,3.17,1.79,5.15c.52,4.07-.57,4.73-6.36,3.83Z"/>
    <path id="path7367" class="cls-4" d="M616.89,519.45c-1.38-.73-3.99-3.39-5.8-5.9-2.39-3.32-3.88-4.51-5.48-4.34-1.61.17-2.29-.38-2.52-2.02-.3-2.07.07-2.25,4.56-2.25,2.68,0,5.73-.62,6.77-1.38,1.16-.85,2.49-1.06,3.44-.56.85.45,2.82,1.09,4.37,1.42,1.7.36,3.49,1.78,4.5,3.56.93,1.63,2.26,2.75,2.96,2.49,1.13-.43,5.23,2.69,5.23,3.98,0,.28-1.12.5-2.49.5s-3.03.86-3.7,1.93c-.95,1.52-1.61,1.71-3.1.91-1.47-.78-2.39-.56-4.05.99-1.9,1.77-2.45,1.85-4.67.68Z"/>
    <path id="path7365" class="cls-1" d="M605.29,502.19c-1.9-6.04-2.15-6.25-7.37-6.25-4.71,0-5.02-.16-5.02-2.53,0-1.39-.66-2.78-1.47-3.09-2.37-.91-6.95,1.07-8.03,3.48-1.63,3.62-4.82,2.37-6-2.35-1.41-5.62-2.18-6.5-5.81-6.53-3.62-.04-11.46-4.38-9.78-5.42.6-.37,1.09-2.33,1.09-4.36,0-3.45.35-3.86,5.25-6.3,3.57-1.78,5.15-3.14,4.94-4.26-.16-.91,1.07-4.15,2.75-7.2,1.68-3.05,3.05-6.2,3.05-7,0-1.16.37-1.22,1.86-.29,1.5.93,2.36.79,4.43-.74,1.41-1.05,3.05-2.93,3.63-4.18.97-2.08,1.26-2.16,3.32-.87,1.24.78,4.67,1.67,7.61,1.99l5.36.58-.4-3.44c-.25-2.17.07-3.62.86-3.92,1.65-.63,2.5.81,1.7,2.89-.88,2.29,3.44,6.73,5.81,5.98,1-.32,1.82-.15,1.82.37s.93,1.19,2.07,1.49c1.96.51,1.99.69.51,3.55-.86,1.66-1.29,3.72-.96,4.58.7,1.82,0,1.96-2.65.55-1.54-.83-2.21-.54-3.55,1.5-.91,1.38-2.27,2.52-3.03,2.52s-1.39.67-1.39,1.5.64,1.5,1.42,1.5c1.21,0,1.2.44-.08,3.01-1.67,3.36-1.01,8.8,1.17,9.64,1.96.75,5.3-1.35,9.95-6.27,4.56-4.83,5.97-5.3,7.47-2.5.82,1.53.32,2.59-2.71,5.72-2.05,2.12-4.36,3.86-5.13,3.87-2.47.05-2.3,2.34.31,4.05,2.09,1.37,2.42,2.18,1.92,4.81-.33,1.74-1.21,3.87-1.96,4.74s-1.36,2.91-1.36,4.53c0,2.2-.74,3.39-2.9,4.67-3.81,2.25-8,2.23-8.71-.03Z"/>
    <path id="path7349" class="cls-2" d="M431.66,448.18c-.96-.21-1.75-.77-1.75-1.24s-.96-1.16-2.13-1.54c-1.17-.37-1.69-.96-1.14-1.32.54-.35,1.53-2.3,2.19-4.33s2.03-4.74,3.03-6.02c2.47-3.14,5.04-9.46,4.22-10.35-.37-.4.5-.44,1.93-.1,5.51,1.32,13.04-8.75,13.3-17.77.1-3.67-.12-3.99-3.32-4.82-4.9-1.28-8.07.6-8.07,4.8,0,3.81-1.78,5.59-4.8,4.8-2.63-.69-2.66-1.07-.56-8.56,1.57-5.61,1.56-5.91-.25-7.28-2.81-2.13-3.09-1.93-4.89,3.49-.91,2.74-2.07,5.25-2.58,5.56-1.16.72-1.2.93.91-5.17.97-2.82,2.53-5.89,3.47-6.82,3.02-3.01,1.8-4.12-5.3-4.81-2.15-.21-2.54.21-2.81,3.01-.19,1.94.14,3.25.82,3.25.62,0,.99,1.01.81,2.25-.25,1.77-.86,2.17-2.82,1.9-1.38-.19-2.85-.87-3.27-1.5-1.15-1.72-.17-19.31,1.46-26.02.78-3.23,2.18-6.43,3.12-7.11s1.7-1.75,1.7-2.38,1.13-1.14,2.51-1.14c2.39,0,2.49-.23,2.09-4.75-.6-6.91.23-9.83,3.25-11.39,1.46-.75,3.51-2.43,4.55-3.72,1.05-1.3,2.66-3.1,3.59-4,.93-.9,1.99-2.49,2.36-3.52.58-1.62,1.39-1.79,5.91-1.29,2.88.32,7.26.96,9.73,1.42,2.47.46,7.2.58,10.5.29l6-.54.29-6.66c.23-5.24-.23-7.95-2.15-12.68-1.35-3.31-2.19-6.27-1.88-6.59,1.12-1.12,10.82-.45,14.74,1.03,5.11,1.92,5.36,2,9.25,2.9,1.85.43,3.25,1.39,3.25,2.22s.81,1.68,1.79,1.94c.98.26,2.22,1.45,2.75,2.66.83,1.89,1.61,2.14,5.71,1.86,2.94-.21,4.75.08,4.75.75,0,.59,1.65,2.91,3.67,5.15,2.9,3.21,4.17,3.94,6,3.48,3.26-.82,3.11,2.14-.19,3.64-1.49.68-2.85,2.4-3.33,4.23-.68,2.55-1.26,3.04-3.41,2.81-2.99-.32-4.21,2.06-3.18,6.18.55,2.2-.48,3.81-7.21,11.24-7.8,8.6-11.9,11.36-16.88,11.36-3.3,0-11.08,3.52-11.77,5.32-.29.76.32,2.11,1.36,3,1.38,1.18,1.74,2.41,1.31,4.53-.92,4.59,1.95,9.33,7.68,12.68,2.93,1.71,5.25,3.86,5.58,5.16.79,3.16,3.16,4.99,3.92,3.03.33-.85,1.35-1.3,2.37-1.03,2.2.57,7.07-3.71,7.07-6.21,0-1.71.09-1.71,2,.02,2.48,2.25,2.63,7.05.25,8.39-1.67.94-1.66,1.15.02,4.3,2.27,4.25,1.45,11.18-1.81,15.26l-2.33,2.92-3.3-3.22c-1.9-1.85-4.16-3.12-5.32-2.98-3.12.37-6.52-2.3-6.53-5.15,0-1.56-1.66-4.3-4.38-7.25-3.72-4.03-4.56-4.52-5.59-3.27-1.6,1.93-6.83,4.51-9.13,4.51-1,0-2.29.9-2.88,1.99-.59,1.09-2.36,2.66-3.94,3.48-5.03,2.6-6.07,4.29-6.03,9.86.03,4.87,1.56,8.61,3.58,8.73,1.78.11,5.53,5.94,4.96,7.72-.31.99-2.45,3.24-4.75,5.01-4.26,3.27-8.83,4.06-19.82,3.41-1.93-.11-4.62.16-6,.61s-3.29.64-4.25.43Z"/>
    <path id="path7391" class="cls-2" d="M733.91,584.82c0-1.29-1.14-2.46-3.25-3.36-1.79-.75-4.82-3-6.74-4.99-2.74-2.84-3.19-3.81-2.1-4.48,1.67-1.03.73-4.06-1.25-4.06-.77,0-1.97.68-2.65,1.5-.68.83-1.95,1.5-2.82,1.5s-2.78,1.16-4.25,2.57c-6.47,6.2-15.49-2.03-10.32-9.42,1.38-1.96,1.43-2.93.39-6.66-1.4-4.99-2.17-5.48-7.86-4.93-2.3.22-4.13-.04-4.13-.58s-.9-.98-2-.98-2-.67-2-1.5-.9-2.4-2-3.5-2.01-2.56-2.03-3.25c-.06-2.21-2.44-4.5-6.37-6.15-5.22-2.18-5.85-2.04-5.16,1.15.4,1.86-.09,3.86-1.52,6.19l-2.11,3.44-1.68-2.23c-1.61-2.14-1.83-2.17-5.36-.69-3.47,1.45-3.74,1.43-4.72-.4-.57-1.06-1.03-2.6-1.03-3.42s-1.32-1.78-3.07-2.16c-4.01-.88-4.6-2.74-2.03-6.35,1.15-1.62,2.09-4.29,2.09-5.94,0-2.65.49-3.16,4.25-4.35,5.72-1.81,5.95-4.9.44-6.05-5.54-1.15-7.38-2.4-7.96-5.41-.67-3.5,3.72-15.32,7-18.86,2.05-2.21,2.28-2.91,1.16-3.62-.76-.48-1.89-.89-2.5-.89-.61,0-2.26-.92-3.66-2.02-2.57-2.02-5.72-1.8-5.72.41,0,2.58-2.14,3.45-3.97,1.62-.98-.98-2.22-1.94-2.76-2.15-.6-.23-.7-2.13-.25-4.88.41-2.48.8-4.13.86-3.68s1.45-.13,3.08-1.29c3.4-2.42,3.19-3.86-.9-6.2-2.15-1.22-3-2.54-3.23-5-.27-2.85-.66-3.29-2.65-3.01-2.8.39-6.17,3.56-6.17,5.8,0,1.33-.27,1.4-1.5.38-1.23-1.02-2.13-.76-5.02,1.44-1.94,1.48-4.2,3.71-5.02,4.97-.82,1.25-2.62,2.79-4.01,3.42-2.27,1.03-2.61.89-3.51-1.47-.79-2.07-.58-3.33,1.02-6.03l2.01-3.41-2.24-.9c-1.52-.61-1.72-.92-.61-.96.9-.03,2.27-1.03,3.05-2.21,1.18-1.78,1.77-1.95,3.49-1.04,2.45,1.31,3.33.67,3.33-2.44,0-1.26.52-3.42,1.15-4.8.88-1.94.86-2.87-.11-4.04-.69-.84-1.66-1.27-2.15-.97-.49.3-.89-.18-.89-1.08,0-1.19-.56-1.45-2.07-.97-2.69.85-5.89-1.95-5.21-4.56.28-1.06-.42-3.7-1.56-5.87l-2.06-3.95,2.03-2.58c1.49-1.89,1.85-3.37,1.37-5.54-.43-1.98-.13-3.72.92-5.22.87-1.24,1.57-3,1.57-3.92s.68-1.93,1.5-2.25c2.4-.92,1.76-2.39-2.23-5.1-3.82-2.6-3.73-2.87.88-2.58,1.46.09,2.95-.31,3.31-.89,1.05-1.7,2.03-1.3,7.16,2.94,2.66,2.2,5.34,4,5.96,4,1.16,0,3.01,3.92,7.07,14.94,1.3,3.54,3.25,7.38,4.32,8.52s3.11,4.99,4.53,8.56c1.52,3.82,2.28,5.04,1.86,2.98-.4-1.93-.67-5.52-.6-8,.11-3.94-.38-5.06-3.94-9-2.23-2.48-3.74-3.6-3.34-2.5s.96,2.67,1.27,3.5c.42,1.14.26,1.23-.67.38-.67-.62-1.34-2.64-1.5-4.5-.15-1.86-1.47-5.13-2.93-7.27-1.46-2.14-2.65-4.37-2.65-4.95,0-1.43.9-.33,5.45,6.7,2.09,3.22,5.27,6.72,7.07,7.79,3.75,2.21,4.83,5.01,3.26,8.46-1.38,3.03.53,14.61,3.31,20.06,1.06,2.07,1.92,4.37,1.92,5.12s2.57,3.91,5.72,7.04c6.8,6.76,11.13,12.25,14.69,18.62,1.44,2.57,3.58,5.99,4.77,7.59,1.38,1.86,2.32,4.93,2.62,8.5.41,4.93.87,5.91,3.9,8.28,1.89,1.48,4.08,3.9,4.86,5.37s2.26,2.94,3.28,3.27c1.02.32,2.37,1.72,3,3.09.63,1.38,2.27,2.93,3.65,3.46,2.97,1.13,3.41,2.43.51,1.5-1.15-.36-2-.18-2,.43s.45,1.07,1,1.07.89.56.75,1.24c-.16.81.73,1.13,2.55.92,1.54-.17,3.53.28,4.41,1.01,1.36,1.12,1.53,1.1,1.12-.17-.27-.82-1.47-1.64-2.66-1.82-1.19-.18-2.17-.72-2.17-1.21s1.77-.26,3.94.5c2.55.9,5.91,1.19,9.55.81,5.33-.55,5.78-.41,8.97,2.67,1.85,1.79,4.86,3.56,6.69,3.93,2.03.42,3.78,1.58,4.48,2.98.63,1.26,1.61,2.76,2.18,3.33.57.57.78,1.77.46,2.67-.32.9-.21,1.29.24.88s1.48.2,2.29,1.36c1.35,1.92,2.08,2.04,8.66,1.43l7.19-.67,1.18,3.93c.65,2.16,1.19,4.78,1.2,5.82,0,1.04,2.08,3.68,4.61,5.88,7.27,6.33,8.49,7.8,9.96,12.02,1.83,5.27,1.92,4.98-2.17,7.39-3.28,1.94-4.99,2.11-20.5,2.03-16.18-.08-16.92-.17-16.92-2.07Z"/>
    <path id="path7345" class="cls-4" d="M642.35,436.85c-.37-.6-.17-1.59.44-2.2.82-.82,1.11-.53,1.11,1.09,0,2.41-.52,2.79-1.55,1.11Z"/>
    <path id="path7381" class="cls-1" d="M919.47,551.69c-.31-2.34-1.26-13.25-2.13-24.25-.87-11-2.22-24.16-3-29.24-.79-5.08-1.43-9.46-1.43-9.72s3.33-2.86,7.41-5.76c10.08-7.18,43.6-32.42,46.17-34.77,3.38-3.08,6.47-15.41,5.55-22.16l-.77-5.65,3.76-.6c2.07-.33,4.04-1.05,4.38-1.6,1.27-2.05-.57-2.71-5.23-1.88-3.32.59-6.3.43-9.77-.52l-5-1.36,6.5.09c3.57.05,9.05-.54,12.17-1.3,5.56-1.37,5.74-1.35,9.73,1.29,2.23,1.48,4.71,2.69,5.5,2.69,1.04,0,1.64,1.87,2.16,6.74,1.14,10.6-1.21,16.74-9.88,25.89-2.02,2.13-3.95,5.33-4.29,7.12-.34,1.79-.98,3.25-1.43,3.25-1.69,0-3.06,7.08-2.56,13.19.29,3.47.28,5.53-.02,4.56-.92-3-2.27-1.93-3.79,3-.8,2.61-1.49,3.96-1.53,3-.04-.96-.52-1.75-1.07-1.75-1.46,0-1.22,2.57.37,3.89,1.04.86,1.68.76,2.66-.42.71-.86,1.9-1.33,2.63-1.04.77.29,1.34-.15,1.34-1.04s.56-1.36,1.25-1.13c2.93.99-1.4,11.11-4.48,10.45-1.59-.34-3.14,2.89-2.36,4.91.69,1.78.8,1.79,2.02.14.71-.96,2.25-1.75,3.43-1.75,2.65,0,2.67.47.14,3-1.34,1.34-2.02,3.39-2.06,6.25-.03,2.34-.47,6.5-.97,9.25-.5,2.75-1.42,8.6-2.04,13-1.03,7.23-2.93,12.55-2.93,8.2,0-.93-.45-1.7-1-1.7s-.93-.34-.84-.75c.34-1.59-2.18-6.25-3.39-6.27-3.25-.04-3.74-1.45-2.24-6.43,1.67-5.56,1.9-9.55.53-9.55-.51,0-1.21.88-1.55,1.95-.34,1.07-1.52,2.23-2.62,2.58-1.47.47-1.72.97-.96,1.89,1.62,1.95-1.62,9.11-4.79,10.59-1.45.67-3.29,1.54-4.08,1.93-.79.39-1.87,2.02-2.39,3.63-.52,1.61-1.85,4.2-2.94,5.76s-2.74,4.93-3.65,7.5c-1.84,5.14-4.13,6.33-7.08,3.67-2.83-2.56-5.45-1.55-5.81,2.26-.29,2.95-.61,3.24-3.69,3.24s-3.4-.2-3.93-4.25Z"/>
    <path id="path7363" class="cls-4" d="M978.41,493.94c-.34-.55-.14-1,.44-1s1.06.45,1.06,1-.2,1-.44,1-.72-.45-1.06-1Z"/>
    <path id="path7353" class="cls-4" d="M991.32,456.57c-.87-2.25,1.52-8.68,3.44-9.27.91-.28,2.44-.92,3.4-1.44,2.32-1.24,2.17-.43-1.07,6.01-2.88,5.71-4.78,7.26-5.77,4.7Z"/>
    <path id="path7337" class="cls-4" d="M996.91,427.5c0-.86.45-1.56,1-1.56s1,.42,1,.94-.45,1.22-1,1.56c-.55.34-1-.08-1-.94Z"/>
    <path id="path7333" class="cls-4" d="M996.91,419.94c0-.55.2-1,.44-1s.72.45,1.06,1c.34.55.14,1-.44,1s-1.06-.45-1.06-1Z"/>
    <path id="path7355" class="cls-1" d="M378.94,462.3c-.02-.63-1.6-1.43-3.53-1.8-1.93-.36-3.49-.97-3.47-1.36s2.28-2.95,5.03-5.7c3.75-3.75,4.87-5.53,4.48-7.14-.29-1.18-.13-4.26.36-6.86.74-3.95.59-5.01-.88-6.49-.97-.97-2.18-1.93-2.68-2.14-.5-.21-1.95-2.06-3.21-4.12-1.91-3.12-2.02-3.75-.71-3.75,2,0,2.05-2.37.08-4-1.26-1.05-1.51-.87-1.56,1.13-.08,3.2-2.35-4.34-4.39-14.63-.87-4.4-1.86-9.01-2.19-10.25-.36-1.35-.15-2.25.52-2.25.61,0,1.12,1.15,1.12,2.56,0,2.39.28,2.54,4.25,2.25,3.2-.23,4.15-.68,3.85-1.81-.22-.83-.86-3.12-1.42-5.11-.88-3.12-.72-4.04,1.24-6.79,1.24-1.75,2.03-3.78,1.75-4.52-1.29-3.36,3.57-4.49,10.45-2.43,3.35,1,3.92,1.62,4.42,4.75.31,1.98.73,4.38.92,5.35.2.99-.75,2.62-2.17,3.73-4.7,3.69-.44,6.91,4.54,3.42,3.23-2.26,7.17-1.12,7.17,2.09,0,3.4,4.06,5.92,8.41,5.21l3.37-.55-1.38,5.17c-1.98,7.42-1.77,8.94,1.68,12.23,2.9,2.77,3.04,3.24,2.42,8.23-.6,4.84-.44,5.46,1.83,7.25,4.33,3.41.66,8.63-4.23,6.01-1.08-.58-2.23-1.06-2.54-1.06-1.23,0-.48,5.95.93,7.36,1.87,1.87,1.9,3.07.1,4.56-.77.64-1.7,2.78-2.07,4.76l-.68,3.6-3.76-3.67c-4.85-4.74-9.85-5.73-13.68-2.72-1.48,1.17-3.65,2.11-4.81,2.11-1.25,0-3.63,1.72-5.84,4.25-2.05,2.35-3.73,3.75-3.75,3.13Z"/>
    <path id="path7343" class="cls-4" d="M350.37,435.87c-.92-1.49.15-2.3,2.06-1.56.88.34,1.33,1.07.98,1.62-.81,1.31-2.22,1.28-3.05-.06Z"/>
    <path id="path7341" class="cls-4" d="M342.92,432.19c.05-2.39,2.74-3.73,6.74-3.37,1.01.09,1.01.51,0,2.12-1.19,1.91-6.79,2.94-6.75,1.25Z"/>
    <path id="path7335" class="cls-4" d="M336.11,423.62c-1.54-4.26-1.55-4.23.73-4.4,2.21-.17,3.51,1.14,4.98,5,.97,2.55.86,2.72-1.74,2.72-2.23,0-3.01-.65-3.98-3.32Z"/>
    <path id="path7331" class="cls-4" d="M329.91,415.88c0-1.13.45-1.78,1-1.44.55.34,1,1.27,1,2.06s-.45,1.44-1,1.44-1-.93-1-2.06Z"/>
    <path id="path7319" class="cls-1" d="M225.92,372.45c-1.52-1.61-2.59-4.34-3.06-7.75-.4-2.89-2.01-7.91-3.58-11.16-2.34-4.82-3.76-6.39-7.76-8.6-3.12-1.72-5.56-3.98-6.71-6.23-2.62-5.11-16.34-18.62-19.63-19.34-4.33-.95-8.26-2.61-8.26-3.49,0-.44,1.46-.4,3.25.09l3.25.9-2.75-2.42c-1.51-1.33-2.75-3.26-2.75-4.3,0-2.03-3.88-2.57-5.23-.72-.4.55-.76-.12-.78-1.5-.03-1.38-.71-3.37-1.52-4.44-.81-1.07-1.52-2.87-1.59-4-.08-1.45-.35-1.17-.88.94-.72,2.83-.77,2.86-.95.5-.17-2.28-.26-2.33-.98-.5-.69,1.75-.88,1.59-1.51-1.26-.4-1.79-1.14-3-1.64-2.69-.51.31-.92-.13-.92-.99s.51-1.45,1.12-1.31c.62.14,1.35-.38,1.63-1.14.31-.85.07-1.12-.62-.69-1.58.98-1.42-.25.87-6.92,1.1-3.2,2-6.64,2-7.66s.51-1.84,1.12-1.84c.78,0,.74-.46-.12-1.5-.86-1.04-.9-1.5-.12-1.5.69,0,1.07-1.82.98-4.75l-.14-4.75-.72,4c-.71,3.97-.72,3.95-.9-1.5-.23-6.83-2.26-14.78-3.65-14.32-.57.19-1.62-1.25-2.33-3.21-1.01-2.78-1.69-3.43-3.16-2.96-1.12.35-2.6-.13-3.7-1.21-1.01-.99-3.1-2.46-4.64-3.27-1.55-.81-2.32-1.63-1.72-1.83,1.65-.55,1.31-2.2-.44-2.2-2.46,0-6.39-3.03-5.83-4.49.28-.73-.22-2.76-1.12-4.5-1.36-2.62-1.41-3.43-.33-4.73,1.15-1.38,1-1.48-1.19-.8-2.42.75-2.44.72-.74-1.18,1.78-1.99,2.42-6.3.94-6.3-.44,0-1.59,1.77-2.54,3.93-1.67,3.78-1.85,3.89-4.75,2.88-1.93-.67-2.83-1.55-2.49-2.43.3-.79-.1-1.38-.94-1.38s-1.47.81-1.47,1.8-.5,2.3-1.12,2.92c-1.27,1.27-4.16.55-3.31-.83.31-.5-.14-1.17-.99-1.49-.85-.33-2.49-2.12-3.64-3.99-1.42-2.3-2.86-3.4-4.44-3.4s-3.02-1.1-4.44-3.4c-2.22-3.59-4.22-4.86-6.35-4.04-2.37.91-5.71-3.36-5.75-7.34-.04-4.44-1.54-6.65-5.12-7.54-1.75-.43-3.01-1.69-3.7-3.67-.58-1.65-1.66-3.01-2.41-3.01-1.78,0-6-5.72-4.78-6.48,1.26-.78,4.76-.09,9.44,1.87,4.79,2,8.64,2.05,11.16.14,2.65-2,3.44-1.89,3.44.5,0,1.19.93,2.39,2.25,2.88,2.49.94,4.09.45,3.21-.98-.32-.51.13-.93.98-.93s1.56-.46,1.56-1.02c0-.59-1.06-.75-2.51-.39-2.12.53-2.4.35-1.83-1.15.53-1.39.31-1.64-1-1.14-1.34.51-1.22.01.58-2.43,2.08-2.82,2.29-2.9,2.58-.97.4,2.61.44,2.62,23.87,4.74,10.56.95,18.99,2.07,18.73,2.48-.99,1.6,4.91,12,7.58,13.38,2.93,1.51,6.82,8.66,7.71,14.16.39,2.37,1.47,3.84,3.89,5.27,2.91,1.72,3.28,2.37,2.77,4.9-.34,1.68-.12,3.21.52,3.6.61.37,1.11,2.79,1.12,5.37.03,5.29,3.03,10.52,4.95,8.61.78-.77.51-1.81-.95-3.66-2-2.54-2.88-9.76-1.2-9.76,1.56,0,7.2,7.92,7.81,10.96.33,1.67,1.23,3.04,1.98,3.04.89,0,1.36,1.14,1.33,3.25-.06,4.59,1.1,11.03,2.25,12.46.64.79.56,2.47-.23,4.86-1.11,3.36-.94,4.19,2.15,10.55,1.85,3.8,4.03,7.12,4.86,7.38s1.55,1.5,1.61,2.74c.29,6.4,1.71,11.55,4.38,15.89,3.7,6.01,4.61,9.45,3.01,11.38-.87,1.05-1.02,3.43-.51,8.23.9,8.41,3.32,12.23,7.83,12.34,1.75.04,2.62.31,1.93.58-1.98.8-1.45,2.34.8,2.34,1.76,0,1.97-.46,1.48-3.25-.31-1.79-.14-3.9.38-4.7.76-1.16,1.96-.39,6.02,3.87,2.79,2.92,5.07,5.94,5.07,6.7,0,.8,1.04,1.38,2.5,1.38,1.92,0,2.5.52,2.5,2.22,0,1.22.56,4.68,1.25,7.68,1.01,4.43,1.85,5.81,4.45,7.35,5.4,3.2,5.58,12,.36,17.51-1.17,1.24-2.78,2.25-3.56,2.25s-3.44,1.12-5.9,2.5-4.65,2.5-4.86,2.5-1.44-1.12-2.72-2.49Z"/>
    <path id="path7317" class="cls-4" d="M234.23,326.2c-1.53-4.89-.93-5.3,1.62-1.12,2.38,3.9,2.54,4.86.8,4.86-.69,0-1.78-1.68-2.43-3.74Z"/>
    <path id="path7313" class="cls-4" d="M173.56,317.11c-1.84-2.03-2.11-3.17-.77-3.17.49,0,1.62,1.12,2.52,2.5,1.9,2.9.68,3.36-1.75.67Z"/>
    <path id="path7311" class="cls-4" d="M218.59,315.41c-2.22-4.65-2.14-4.83.81-1.88,1.38,1.38,2.5,3.15,2.5,3.95,0,2.55-1.58,1.57-3.31-2.08Z"/>
    <path id="path7309" class="cls-4" d="M167.41,310.26c-2.89-2.4-2.91-2.46-.5-1.8,2.99.82,5.53,3.03,4.35,3.76-.47.29-2.2-.6-3.85-1.96Z"/>
    <path id="path7305" class="cls-4" d="M161.91,306.45c-.7-.85-1.39-2.55-1.51-3.77-.38-3.63-.43-3.69-1.99-3.09-1.69.65-1.95-.82-.58-3.4.5-.96,1.55-3.31,2.33-5.24.78-1.93,1.94-4.62,2.59-6,1.09-2.32,1.13-2.25.55,1-.34,1.92-1.29,4.8-2.1,6.39-1.14,2.23-1.23,3.44-.38,5.3.6,1.32,1.1,3.42,1.1,4.66s.53,2.79,1.18,3.44c.65.65.94,1.43.64,1.72-.3.3-1.12-.15-1.82-1Z"/>
    <path id="path7303" class="cls-4" d="M213.1,301.36c-1.2-.84-2.19-2.04-2.19-2.65s-.75-1.94-1.66-2.95c-2.1-2.32-1.33-3.15,1.82-1.95,1.6.61,2.84,2.24,3.61,4.73.64,2.09,1.04,3.92.89,4.08-.15.15-1.26-.41-2.47-1.26Z"/>
    <path id="path7301" class="cls-4" d="M209.91,287c0-.52.45-1.22,1-1.56.55-.34,1,.08,1,.94s-.45,1.56-1,1.56-1-.42-1-.94Z"/>
    <path id="path7299" class="cls-4" d="M163.98,279.25c.04-.99.46-2.71.93-3.81.72-1.69.87-1.5.93,1.19.04,1.76-.38,3.47-.93,3.81-.55.34-.97-.2-.93-1.19Z"/>
    <path id="path7295" class="cls-4" d="M208.24,273.37c-.33-.86-.15-2.02.4-2.57.67-.67,1.17-.15,1.49,1.57.53,2.79-.92,3.55-1.9,1Z"/>
    <path id="path7293" class="cls-4" d="M199.91,270.44c0-.83.45-1.5,1-1.5s1,.67,1,1.5-.45,1.5-1,1.5-1-.68-1-1.5Z"/>
    <path id="path7291" class="cls-4" d="M194.91,262.89c0-2.17,3.11-6.95,4.53-6.95,2.27,0,1.75,2.63-1.07,5.45-2.79,2.79-3.45,3.08-3.45,1.5Z"/>
    <path id="path7287" class="cls-4" d="M171.91,210.38c0-.86.45-1.28,1-.94s1,1.04,1,1.56-.45.94-1,.94-1-.7-1-1.56Z"/>
    <path id="path7281" class="cls-4" d="M152.91,157.44c-1.6-1.92.03-1.94,2.56-.03,1.63,1.23,1.68,1.47.31,1.5-.9.02-2.19-.64-2.87-1.47Z"/>
    <path id="path7285" class="cls-4" d="M130.63,176.95c-9.23-.95-16.99-1.95-17.26-2.21-.27-.27.19-2.12,1.02-4.11,1.34-3.21,1.34-3.56.01-3.05-1.66.64-2.08-1.64-.58-3.19.51-.52,1.22-2.56,1.58-4.54.58-3.14.27-3.95-2.39-6.47-1.68-1.58-3.96-5-5.08-7.59-1.11-2.59-2.89-4.99-3.95-5.32-1.05-.33-2.42-1.83-3.03-3.32-3.02-7.38-10.15-16.21-13.08-16.21-.91,0-3.25-1.69-5.21-3.75-1.96-2.06-5.41-5.32-7.66-7.24-3.42-2.91-4.11-4.1-4.11-7.14,0-2.35-.54-3.86-1.52-4.24-.97-.37-1.36-1.42-1.06-2.86,1.63-8.01,1.54-10.45-.48-12.61-1.12-1.2-1.78-2.6-1.47-3.1.31-.5.11-1.2-.45-1.55-.57-.35-1.02.31-1.02,1.49s-.45,1.84-1,1.5-1-3.73-1-7.53c0-6.61-2.2-13.97-4.19-13.97-.45,0-.81-2.26-.81-5.02,0-3.76-.78-6.39-3.1-10.5-1.7-3.02-3.5-5.74-4-6.04-.5-.31-.9-2.02-.9-3.8s-.53-3.77-1.18-4.42-.87-1.5-.48-1.88c.38-.39,1.23-.17,1.88.48,1.75,1.75,2.78,1.44,2.78-.82,0-1.11-.67-2-1.5-2s-1.5-.47-1.5-1.04-.87-1.97-1.93-3.12c-1.06-1.14-2.22-3.93-2.58-6.21-.36-2.27-1.74-6.26-3.07-8.87-1.33-2.6-2.42-5.19-2.42-5.75,0-1.41,9.09-1.29,38.5.5,29.3,1.78,35.5,2.37,35.5,3.37,0,.41-2.26,3.08-5.02,5.95-3.9,4.05-4.83,5.6-4.14,6.94,2.81,5.51,1.68,14.73-1.66,13.48-1.51-.57-1.53-.44-.17,1.27.83,1.04,2.29,2.7,3.25,3.69,1.86,1.91,2.28,4.78.92,6.34-1.58,1.81-3.28,8.98-3.31,13.95-.05,7.52.13,8.56,1.64,9.14,1.13.43,1.3,3.59.93,16.97-.39,14.05-.24,16.53,1.06,17.02.83.32,1.51,1.18,1.51,1.9s.72,2.04,1.6,2.92c.88.88,1.35,2.25,1.04,3.04-.57,1.49.78,2.79,3.28,3.17.78.12,1.87,1.02,2.42,1.99.55.98,1.99,2.77,3.2,3.98s3.27,3.7,4.57,5.52c1.3,1.83,3.85,4.62,5.66,6.22,1.81,1.59,3.21,3.62,3.1,4.51s.16,2.9.6,4.47c.53,1.89.4,3.1-.38,3.58-.87.54-.89,1.46-.1,3.54,1.02,2.69,1.13,2.73,2.46.92,1.58-2.17,3.05-1.23,3.05,1.94,0,1.49.62,2.16,2,2.16,1.67,0,2.02.72,2.14,4.27.17,5.05,1.45,6.87,5.43,7.74,2.48.54,3.03,1.25,3.56,4.59.35,2.17,1.02,4.18,1.5,4.48.48.3.87,2.31.87,4.48,0,3.91-.03,3.94-3.75,3.81-2.06-.07-11.3-.91-20.52-1.86Z"/>
    <path id="path7283" class="cls-4" d="M75.14,169.49c-3.57-1.97-3.69-2.43-.87-3.5,1.97-.75,2.64-1.71,2.65-3.78.02-3.54,1.64-6.47,2.34-4.25,1.37,4.34,1.47,6.79.41,9.72q-1.29,3.58-4.54,1.8Z"/>
    <path id="path7275" class="cls-4" d="M2.9,148.94c-.04-1.38-.71-3.62-1.5-5-1.88-3.28-1.88-7.44,0-9,1.28-1.06,1.5-.79,1.5,1.79,0,1.67.46,3.19,1.02,3.38,1.84.61,2.25,7.16.58,9.33-1.51,1.96-1.54,1.95-1.61-.5Z"/>
    <path id="path7273" class="cls-4" d="M143.88,139.83c-2.24-2.42-4.88-5.29-5.87-6.39-3.1-3.45-4.62-11.37-2.35-12.24,1.65-.63,6.24,4.44,6.1,6.74-.2,3.36.26,4,2.94,4s2.77.25,2.4,3.39c-.22,1.86.13,4.38.78,5.59,2.11,3.94.16,3.41-4.01-1.08Z"/>
    <path id="path7279" class="cls-4" d="M162.51,156.52c.33-.87,1.05-1.58,1.58-1.58,1.31,0,.49,2.27-1,2.77-.73.24-.95-.21-.58-1.19Z"/>
    <path id="path7277" class="cls-4" d="M167.66,153.5c-4.84-2.52-4.87-2.59-2.77-5.26,1.11-1.41,2.02-3.84,2.02-5.4,0-3.38,4.67-6.57,6.58-4.5,2.13,2.3,2.46,8.87.64,12.81-1.92,4.18-2.54,4.41-6.47,2.35Z"/>
    <path id="path7289" class="cls-4" d="M258.47,247.14c.6-4.51.46-5.06-1.45-5.67-2.91-.92-4.68-4.28-2.49-4.71,1.38-.28,1.29-.69-.59-2.82-1.54-1.75-2.03-1.97-1.64-.73.49,1.55.28,1.63-1.67.6q-2.21-1.16-.32.98c1.05,1.18,1.41,2.15.81,2.15s-1.39-.48-1.76-1.07-1.22-.85-1.9-.59c-.68.26-1.74.16-2.36-.22-1.61-.99-6.37-12.12-5.19-12.12.54,0,.99-.45.99-1,0-1.28-6.34-3.94-7-2.94-.28.41-3.2-.54-6.5-2.12-3.3-1.58-5.61-2.89-5.13-2.91.48-.02.3-.73-.39-1.56-.69-.84-1.41-3.2-1.6-5.24-.18-2.05-.8-3.87-1.36-4.06-1.26-.42-1.38-4.18-.13-4.18.49,0,.87-1.01.84-2.25-.03-1.24.23-2.93.58-3.75.4-.95-.33-2.2-2.01-3.43-2.29-1.67-2.56-1.7-2-.25.6,1.56.47,1.57-1.82.06-1.51-.99-2.47-2.57-2.47-4.06s-.42-2.18-1.07-1.78c-.59.36-.85,1.22-.59,1.9.26.68.06,1.87-.45,2.65-.76,1.15-1.29.98-2.91-.95-1.09-1.3-1.98-3-1.98-3.79,0-1.1-.44-1.19-1.94-.39-2.3,1.23-2.41,1.08-4.15-5.85-1.24-4.93-1.71-5.53-5.63-7.21-2.49-1.07-4.28-2.5-4.28-3.44,0-.88-1.12-3.08-2.5-4.88-2.87-3.76-3.18-5.59-.94-5.59.86,0,1.26-.48.9-1.07s-1.26-.84-2-.55c-1.37.53-7.33-5.47-7.61-7.66-.09-.67-.24-2.42-.35-3.9-.33-4.57-2.54-8.68-4.84-9.01-1.84-.26-2.15-.96-2.15-4.81,0-3.53-.74-5.52-3.42-9.25-1.88-2.61-3.75-4.75-4.16-4.75s-.78-3.78-.83-8.41c-.1-9.51-.52-11.21-2.94-11.84-1.07-.28-2.18-2.32-2.99-5.48-.71-2.77-2.84-7.43-4.73-10.37-2.44-3.79-3.44-6.49-3.44-9.29,0-2.35-.7-4.73-1.73-5.87-1.64-1.81-1.64-1.96,0-2.88,2.27-1.27,2.18-2.48-.38-5.16l-2.11-2.21.68,2.25c.76,2.52-.9,3.14-1.84.69-.33-.86-.96-1.34-1.41-1.07-.44.27-3.93-.26-7.76-1.19-6.51-1.58-6.93-1.85-6.65-4.25.23-1.94-.33-2.85-2.28-3.74-1.42-.65-2.85-1.89-3.19-2.77-.38-1-.86-1.2-1.27-.53-.85,1.37-8.06-3.43-8.06-5.36,0-.77-1.12-2.27-2.49-3.35-2.19-1.72-2.36-2.31-1.46-4.91,1.02-2.94.79-8.31-.49-11.38-.41-.99.21-2.6,1.63-4.2l2.3-2.59,16.5,8.58c9.07,4.72,23.03,12.06,31,16.32,62.19,33.21,61.11,32.69,68,33.26,27.58,2.31,56.05,4.89,58.76,5.31,2.83.45,3.13.76,2.25,2.4-.56,1.04-.63,2.13-.16,2.42.47.29,1.42,5.38,2.12,11.31s1.95,12.81,2.78,15.28c1.2,3.57,1.39,7.3.89,18-.75,16.19-1.3,19.13-3.51,18.77-1.23-.2-1.6.48-1.51,2.73.11,2.61.2,15.29.21,28,0,2.2.15,4.9.33,6,.31,1.87-.13,1.98-6.72,1.67-8.9-.42-9.97.52-8.42,7.42.59,2.65,2.54,7.31,4.33,10.36,5.8,9.88,7.17,14.54,5.55,18.8-.99,2.6,1.2,9.25,3.04,9.25.58,0,1.05,1.29,1.05,2.86,0,3.88-6.5,11.11-15.02,16.72-3.69,2.43-6.99,4.42-7.34,4.42s-.64-1.16-.64-2.58c0-3.19-2.21-2.76-3,.58-.31,1.29-1.13,2.54-1.83,2.78-.97.32-1.11-.76-.61-4.57Z"/>
    <path id="path3930" class="cls-4" d="M111.07,47.39c-2.59-5.68-.65-7.23,3.39-2.7,1.77,1.98,2.27,2.21,1.78.84-.47-1.32-.31-1.69.5-1.19,1.59.98,1.47,2.16-.4,4.03-2.26,2.26-3.94,1.94-5.27-.98Z"/>
    <path id="path7321" class="cls-3" d="M539.81,374.69c-.05-.69-.01-5.45.08-10.57.16-8.61-.03-9.64-2.52-13.4-2.34-3.53-2.63-4.82-2.23-9.68.43-5.16.21-5.92-2.77-9.6-2.81-3.47-3.2-4.66-2.98-9,.14-2.75.57-5.75.95-6.67.41-.97-.02-2.77-1.03-4.31-1.66-2.53-1.64-2.75.29-5.33,1.93-2.57,2.35-2.68,9.56-2.34,6.84.32,7.65.16,8.67-1.76.99-1.84.8-2.24-1.47-3.1-1.43-.54-3.2-.99-3.93-.99s-1.59-.68-1.9-1.5c-.32-.83-1.52-1.5-2.67-1.5-1.29,0-1.83-.43-1.4-1.12.4-.65-1.54-3.18-4.57-5.97-4.67-4.3-5.2-5.18-4.67-7.84.33-1.65.16-3.26-.37-3.59-.53-.33-.97-1.61-.97-2.84,0-1.31-1.9-4.2-4.57-6.94l-4.57-4.7,6.3-5.41c5.15-4.42,6.64-5.23,8.15-4.42,1.02.55,1.93.84,2.02.66.09-.18,1.18-1.78,2.41-3.54,2.99-4.27,3.08-11.22.19-13.84-1.69-1.53-2.4-1.65-3.99-.65-2.72,1.7-3.96,1.5-3.96-.65,0-3.06,5.32-7.78,9.54-8.46,4.93-.8,6.48-2.45,7.18-7.64.74-5.55,3.96-7.36,7.38-4.17,3.05,2.84,4.25,2.68,7.31-.95,2.46-2.92,2.67-2.99,4.33-1.33,1.19,1.19,1.37,1.87.55,2.14-5.24,1.75-8.22,7.95-4.32,8.97,2.51.66,6.43,10.7,5.57,14.28-1.16,4.84-1.03,5.38,1.45,5.99,1.68.41,2.09.86,1.25,1.38-.68.42-1.24,2.09-1.24,3.71,0,2.38.43,2.94,2.25,2.96,3.76.03,4.91,1.48,5.59,7.1.61,5,.89,5.45,3.91,6.34,2.56.75,3.25,1.5,3.27,3.5.02,3.87,1.31,5.25,4.22,4.52,1.95-.49,2.91-.11,4.15,1.65,1.25,1.79,1.87,2.03,2.81,1.08.67-.67,2.68-1.21,4.47-1.21h3.26l.29,9.25c.27,8.8.4,9.27,2.6,9.58,1.27.18,2.13.85,1.92,1.5-.66,1.99-15.13,12.67-16.82,12.41-2.92-.44-6.9,2.44-6.9,4.99,0,3.36-1.76,6.27-3.79,6.27-.94,0-3.48,1.58-5.65,3.5-2.16,1.92-4.76,3.5-5.78,3.5-2.9,0-3.28,2.78-.67,4.89,2.18,1.77,2.26,2.2,1.27,7.07-1.01,4.92-.92,5.38,1.78,9.1,1.56,2.16,2.84,4.41,2.84,5,0,2.33-3.02,3.94-7.41,3.94-5.44,0-7.55,2.41-8.35,9.54-.42,3.7-.82,4.41-2.23,3.96-2.15-.68-4.44,1.92-3.61,4.1.51,1.34.07,1.55-2.48,1.17-2.02-.3-3.29.01-3.62.88-.65,1.69-4.27,1.77-4.39.09Z"/>
  </g>
</svg>