<?xml version="1.0" encoding="UTF-8"?>
<svg id="Capa_2" data-name="Capa 2" xmlns="http://www.w3.org/2000/svg" viewBox="0 0 2358.15 3501.04">
  <defs>
    <style>
      .cls-1 {
        fill: #fff;
      }
    </style>
  </defs>
  <g id="Capa_1-2" data-name="Capa 1">
    <g>
      <g>
        <path class="cls-1" d="M1157.12,1178.55c22.32,6.91,37.5,10.98,45.57,12.23l45.57,11.29,72.53,18.81c122.75,31.98,212.33,60.2,268.75,84.65,14.99,6.5,29.37,13.57,43.17,21.17,10.25-23.91,15.41-49.54,15.41-76.91,0-47.64-18.92-90.6-56.72-128.86-17.36-16.93-39.84-32.6-67.42-47.03-27.59-14.42-63.23-29.16-106.94-44.21-35.61-12.26-82.02-26.4-139.23-42.4l-176.91,177.24c17.68,4.49,36.42,9.16,56.23,14.01Z"/>
        <path class="cls-1" d="M1729.95,534.3v121.99h-32.55c-8.1-22.48-16.42-43.93-24.97-64.36l-167.19,167.5c33.47,11.07,61.57,21.52,84.28,31.37,56.41,24.45,104.46,56.76,144.14,96.88,30.99,29.48,55.01,63.96,72.07,103.46,17.04,39.5,25.57,82.15,25.57,127.92s-9.62,90.46-28.83,135.91c-19.22,45.47-46.5,85.44-81.83,119.92-2.57,2.67-5.18,5.29-7.82,7.88,7.18,6.33,14.14,12.86,20.84,19.64,30.99,29.48,55.01,63.96,72.07,103.46,17.04,39.5,25.57,82.15,25.57,127.92s-9.62,90.46-28.83,135.91c-19.22,45.47-46.5,85.44-81.83,119.92-45.89,47.66-102.45,83.4-169.71,107.23-67.27,23.82-143.99,35.74-230.16,35.74-60.14,0-116.7-6.12-169.71-18.34-53.01-12.23-117.63-34.64-193.89-67.25-49.61-20.06-87.41-33.7-113.45-40.92-26.04-7.2-50.54-10.81-73.46-10.81-44.03,0-81.37,11.75-112.06,35.27-30.69,23.52-51,56.9-60.91,100.17h-32.55v-329.03l-469.87,470.75h2168.36V0l-533.3,534.3Z"/>
        <path class="cls-1" d="M895.35,1859.99c68.49,44.2,140.26,78.53,215.28,102.99,75,24.45,146.3,36.68,213.88,36.68,60.13,0,115.15-10.02,165.06-30.1,49.9-20.06,88.81-47.97,116.7-83.71,27.9-35.74,41.85-76.19,41.85-121.34,0-47.64-18.92-90.6-56.72-128.85-17.36-16.93-39.84-32.6-67.42-47.03-27.59-14.42-63.23-29.16-106.94-44.2-43.71-15.05-103.69-32.92-179.94-53.61l-92.99-25.4c-117.66-32.04-205.96-58.3-264.89-78.79l-223.71,224.13c19.24,36.75,42.92,72.02,71.07,105.79,44.01,51.42,100.27,99.23,168.78,143.44Z"/>
        <path class="cls-1" d="M966.03,1127.76c-45.57-13.79-82.76-27.89-111.59-42.33-28.83-14.42-51-29.47-66.49-45.15-33.48-31.98-50.22-69.91-50.22-113.81,0-23.19,5.89-47.34,17.67-72.42,4.14-8.83,8.82-17.33,13.96-25.54,21.98,10,46.45,20,73.45,30,55.79,21.96,156.23,52.67,301.29,92.17l92.99,25.4c14.13,3.83,27.7,7.57,40.71,11.21l227.45-227.87c-49.66-16.42-111.13-34.18-184.46-53.28l-72.53-18.81-45.57-11.29c-8.06-1.25-23.25-5.32-45.57-12.23-81.83-20.06-145.53-36.99-191.1-50.79-45.57-13.79-82.76-27.89-111.59-42.33-28.83-14.42-51-29.47-66.49-45.15-33.48-31.98-50.22-69.91-50.22-113.81,0-23.19,5.89-47.34,17.67-72.42,11.77-25.07,27.58-47.65,47.43-67.72,27.9-28.22,61.98-49.53,102.29-63.96,40.29-14.42,86.16-21.63,137.63-21.63,68.81,0,136.84,9.26,204.12,27.75,67.26,18.5,128.01,43.9,182.26,76.19,54.24,32.3,99.34,69.76,135.3,112.4,39.31,48.22,75.32,111.43,108.01,189.59l57.52-57.62V205.76h-32.55c-21.08,72.11-55.8,108.17-104.15,108.17-19.22,0-55.49-13.48-108.8-40.45-151.9-79.63-298.5-119.45-439.85-119.45-93.62,0-178.86,16.31-255.73,48.91-76.88,32.61-136.7,77.92-179.47,135.91-42.78,58.01-64.16,123.38-64.16,196.11,0,60.2,19.21,115.38,57.65,165.54,22.68,31.13,49,57.51,78.98,79.13-27.98,21.81-52.17,46.44-72.47,73.96-42.78,58.01-64.16,123.38-64.16,196.11,0,60.2,19.21,115.38,57.65,165.54,26.04,35.74,56.87,65.23,92.53,88.41,35.64,23.21,84.77,46.41,147.39,69.61,10.54,4.15,22.68,8.61,36.4,13.38l221.68-222.1c-55.37-14.06-100.34-26.32-134.87-36.77Z"/>
        <path class="cls-1" d="M597.31,1423.1h-32.55v278.57l90.74-90.91c-30.77-58.76-50.18-121.31-58.19-187.67Z"/>
      </g>
      <g>
        <path class="cls-1" d="M202.58,3481.75h.63c11.54-34.29,18.17-54.33,19.91-60.11,1.04-3.44,1.56-5.91,1.56-7.4,0-2.4-2.4-3.6-7.19-3.6-.77,0-1.15-.36-1.15-1.07,0-.58.76-.88,2.29-.88,2.71,0,5.66.03,8.86.1l4.69.19,4.17-.19,6.57-.1c1.18,0,1.77.23,1.77.68,0,.84-.38,1.27-1.15,1.27-1.46,0-2.99.19-4.59.58-2.92.97-5.77,5.23-8.55,12.76-1.95,5-6.08,16.37-12.41,34.1-6.19,17.21-10.18,28.09-11.99,32.64-2.64,6.89-4.55,10.33-5.73,10.33-1.32,0-2.78-2.05-4.38-6.14l-25.96-65.76c-1.39,3.25-5.91,14.1-13.55,32.54-7.51,18.12-12.13,29.13-13.87,33.03-1.88,4.22-3.44,6.33-4.69,6.33-1.32,0-3.02-3.15-5.11-9.45l-23.56-71.22c-1.74-5.07-4.07-8.05-6.99-8.96-1.6-.52-3.61-.78-6.04-.78-.83,0-1.25-.36-1.25-1.07,0-.58.73-.88,2.19-.88,2.78,0,6.08.03,9.9.1l5.84.19,4.9-.19c3.27-.06,6.26-.1,8.97-.1,1.6,0,2.4.29,2.4.88,0,.72-.45,1.07-1.36,1.07-2.09,0-3.65.26-4.69.78-1.18.26-1.77,1.1-1.77,2.53,0,1.3.83,5,2.5,11.11,6.05,21.11,11.85,40.01,17.41,56.7h.31l27.83-67.13c1.53-3.7,2.74-5.55,3.65-5.55s2.08,1.88,3.54,5.65l26.06,67.03Z"/>
        <path class="cls-1" d="M349.05,3481.75h.63c11.54-34.29,18.17-54.33,19.91-60.11,1.04-3.44,1.56-5.91,1.56-7.4,0-2.4-2.4-3.6-7.19-3.6-.77,0-1.15-.36-1.15-1.07,0-.58.76-.88,2.29-.88,2.71,0,5.66.03,8.86.1l4.69.19,4.17-.19,6.57-.1c1.18,0,1.77.23,1.77.68,0,.84-.38,1.27-1.15,1.27-1.46,0-2.99.19-4.59.58-2.92.97-5.77,5.23-8.55,12.76-1.95,5-6.08,16.37-12.41,34.1-6.19,17.21-10.18,28.09-11.99,32.64-2.64,6.89-4.55,10.33-5.73,10.33-1.32,0-2.78-2.05-4.38-6.14l-25.96-65.76c-1.39,3.25-5.91,14.1-13.55,32.54-7.51,18.12-12.13,29.13-13.87,33.03-1.88,4.22-3.44,6.33-4.69,6.33-1.32,0-3.02-3.15-5.11-9.45l-23.56-71.22c-1.74-5.07-4.07-8.05-6.99-8.96-1.6-.52-3.61-.78-6.04-.78-.83,0-1.25-.36-1.25-1.07,0-.58.73-.88,2.19-.88,2.78,0,6.08.03,9.9.1l5.84.19,4.9-.19c3.27-.06,6.26-.1,8.97-.1,1.6,0,2.4.29,2.4.88,0,.72-.45,1.07-1.36,1.07-2.09,0-3.65.26-4.69.78-1.18.26-1.77,1.1-1.77,2.53,0,1.3.83,5,2.5,11.11,6.05,21.11,11.85,40.01,17.41,56.7h.31l27.83-67.13c1.53-3.7,2.74-5.55,3.65-5.55s2.08,1.88,3.54,5.65l26.06,67.03Z"/>
        <path class="cls-1" d="M495.52,3481.75h.63c11.54-34.29,18.17-54.33,19.91-60.11,1.04-3.44,1.56-5.91,1.56-7.4,0-2.4-2.4-3.6-7.19-3.6-.77,0-1.15-.36-1.15-1.07,0-.58.76-.88,2.29-.88,2.71,0,5.66.03,8.86.1l4.69.19,4.17-.19,6.57-.1c1.18,0,1.77.23,1.77.68,0,.84-.38,1.27-1.15,1.27-1.46,0-2.99.19-4.59.58-2.92.97-5.77,5.23-8.55,12.76-1.95,5-6.08,16.37-12.41,34.1-6.19,17.21-10.18,28.09-11.99,32.64-2.64,6.89-4.55,10.33-5.73,10.33-1.32,0-2.78-2.05-4.38-6.14l-25.96-65.76c-1.39,3.25-5.91,14.1-13.55,32.54-7.51,18.12-12.13,29.13-13.87,33.03-1.88,4.22-3.44,6.33-4.69,6.33-1.32,0-3.02-3.15-5.11-9.45l-23.56-71.22c-1.74-5.07-4.07-8.05-6.99-8.96-1.6-.52-3.61-.78-6.04-.78-.83,0-1.25-.36-1.25-1.07,0-.58.73-.88,2.19-.88,2.78,0,6.08.03,9.9.1l5.84.19,4.9-.19c3.27-.06,6.26-.1,8.97-.1,1.6,0,2.4.29,2.4.88,0,.72-.45,1.07-1.36,1.07-2.09,0-3.65.26-4.69.78-1.18.26-1.77,1.1-1.77,2.53,0,1.3.83,5,2.5,11.11,6.05,21.11,11.85,40.01,17.41,56.7h.31l27.83-67.13c1.53-3.7,2.74-5.55,3.65-5.55s2.08,1.88,3.54,5.65l26.06,67.03Z"/>
        <path class="cls-1" d="M537.85,3496.56c-1.32-1.49-1.98-3.25-1.98-5.26,0-1.88.66-3.57,1.98-5.07,1.6-1.75,3.72-2.63,6.36-2.63,2.36,0,4.34.65,5.94,1.95,1.6,1.36,2.4,3.15,2.4,5.36s-.77,4.19-2.29,5.75c-1.6,1.63-3.65,2.44-6.15,2.44-2.64,0-4.73-.84-6.25-2.53Z"/>
        <path class="cls-1" d="M575.27,3497.83c-1.25-.65-1.88-2.14-1.88-4.48,0-3.96.24-8.21.73-12.76,0-1.3.35-1.95,1.04-1.95.83,0,1.25.46,1.25,1.36,0,1.82.14,3.28.42,4.38.97,4.03,3.61,7.11,7.92,9.26,3.68,1.75,8.03,2.63,13.03,2.63,6.39,0,11.4-1.53,15.01-4.58,3.34-2.86,5-6.66,5-11.4,0-4.03-1.32-7.57-3.96-10.62-2.09-2.34-6.36-5.75-12.82-10.23l-6.05-4.29c-12.72-8.9-19.08-17.47-19.08-25.72,0-6.95,2.74-12.47,8.23-16.56,5.28-4.03,12.37-6.04,21.27-6.04,5.14,0,9.73.49,13.76,1.46,1.74.33,3.3.49,4.69.49.9,0,1.36.29,1.36.88,0-.45-.1.72-.31,3.51-.21,2.79-.31,5.88-.31,9.26,0,1.75-.35,2.63-1.04,2.63-.62,0-1.04-.52-1.25-1.56-.14-2.08-.76-4.06-1.88-5.94-2.71-3.96-8.48-5.94-17.3-5.94-5.08,0-9.21,1.1-12.41,3.31-3.48,2.4-5.21,5.65-5.21,9.74,0,3.77,1.22,7.05,3.65,9.84,2.36,2.73,6.88,6.24,13.55,10.52l3.75,2.34c14.53,9.29,21.79,18.97,21.79,29.03,0,8.57-4.14,15.39-12.41,20.46-4.59,2.79-11.64,4.19-21.16,4.19-8.06,0-14.53-1.07-19.39-3.22Z"/>
        <path class="cls-1" d="M680.35,3411.11c1.32-3.12,2.36-4.68,3.13-4.68.69,0,1.77,1.46,3.23,4.38l13.76,31.47c9.31,21.43,15.36,35.24,18.14,41.41,3.33,7.47,7.12,11.86,11.36,13.15,1.46.46,3.2.68,5.21.68,1.11,0,1.67.33,1.67.97s-1.01.97-3.02.97c-7.86,0-14.84-.1-20.96-.29-3.13-.13-4.69-.39-4.69-.78,0-.32.31-.62.94-.88,1.53-.58,1.91-1.66,1.14-3.22l-11.88-27.57c-.21-.45-.62-.68-1.25-.68h-30.65c-.7,0-1.15.33-1.36.97l-7.61,19.19c-1.32,3.18-1.98,5.88-1.98,8.09s1.53,3.22,4.59,3.22h1.15c.9,0,1.36.33,1.36.97s-.63.97-1.88.97-3.47-.07-6.67-.19l-5.32-.19-5.21.19c-3.33.13-6.08.19-8.23.19-1.74,0-2.61-.33-2.61-.97s.42-.97,1.25-.97c1.53,0,2.85-.1,3.96-.29,4.52-.52,8.23-4.19,11.16-11.01l31.27-75.12ZM695.16,3461.1c.48,0,.62-.29.42-.88l-13.14-32.93c-.7-1.75-1.43-1.75-2.19,0l-12.4,32.93c-.21.58-.07.88.42.88h26.9Z"/>
        <path class="cls-1" d="M760.83,3483.11c.14,4.94.59,8.35,1.36,10.23.7,1.88,1.98,3.05,3.86,3.51,1.88.46,4.07.68,6.57.68.76,0,1.15.33,1.15.97s-.83.97-2.5.97c-3.06,0-6.19-.07-9.38-.19l-4.59-.19-4.69.19c-3.06.13-5.8.19-8.23.19-1.39,0-2.09-.33-2.09-.97s.35-.97,1.04-.97c2.15,0,3.96-.23,5.42-.68,1.6-.45,2.67-1.69,3.23-3.7.42-1.88.63-5.65.63-11.3v-68.78c0-4.03.59-6.04,1.77-6.04.83,0,2.54,1.2,5.11,3.6l14.18,13.83c10.42,10.33,19.7,19.39,27.83,27.18,5.21,5,11.61,11.24,19.18,18.71l12.3,12.18-1.36-60.11c-.07-4.03-.42-6.79-1.04-8.28-.7-1.62-2.02-2.6-3.96-2.92-2.36-.39-4.52-.58-6.46-.58-.7,0-1.04-.36-1.04-1.07,0-.58.83-.88,2.5-.88,2.36,0,5.25.03,8.65.1l5.32.19,4.17-.19c2.57-.06,4.93-.1,7.09-.1,1.67,0,2.5.29,2.5.88,0,.72-.52,1.07-1.56,1.07-1.11,0-2.15.1-3.13.29-2.09.39-3.41,1.36-3.96,2.92-.49,1.17-.73,3.7-.73,7.6l-.31,70.34c0,5.72-.35,8.57-1.04,8.57-1.04,0-4.42-2.44-10.11-7.31-5.14-4.09-16.72-14.94-34.71-32.54-21.41-21.11-32.88-32.44-34.4-34l1.46,56.61Z"/>
        <path class="cls-1" d="M910.95,3464.6c0,14.03.21,22.7.63,26.01.42,3.77,2.12,5.88,5.11,6.33,2.5.39,4.52.58,6.04.58.7,0,1.04.33,1.04.97s-.7.97-2.09.97c-2.99,0-6.57-.07-10.74-.19l-5.73-.19-5.63.19c-3.82.13-6.53.19-8.13.19-1.39,0-2.08-.33-2.08-.97,0-.52.35-.78,1.04-.78.97,0,2.29-.19,3.96-.58,2.08-.45,3.37-2.63,3.86-6.53.42-3.31.63-11.98.63-26.01v-50.37l-19.18.19c-7.3.19-11.78,1.49-13.45,3.9-.49.65-1.18,1.92-2.09,3.8-.21.72-.66,1.07-1.36,1.07-.62,0-.94-.33-.94-.97,0-.45.45-2.66,1.36-6.63.97-4.03,1.46-6.14,1.46-6.33.69-1.49,1.15-2.24,1.36-2.24s.87.16,1.98.49c1.25.45,2.57.75,3.96.88,3.75.39,7.23.58,10.42.58h50.14c3.61,0,6.81-.19,9.59-.58l3.75-.58c.42,0,.63.49.63,1.46,0,1.43-.07,3.99-.21,7.7l-.21,5.94c0,1.04-.42,1.56-1.25,1.56-.62,0-.97-.68-1.04-2.05l-.21-1.27c-.49-4.22-5.8-6.46-15.95-6.72l-16.68-.19v50.37Z"/>
        <path class="cls-1" d="M972.25,3423.2c9.94-10.78,23.32-16.17,40.14-16.17,15.29,0,27.8,3.99,37.53,11.98,10.01,8.31,15.01,19.32,15.01,33.03s-4.86,25.3-14.59,34.59c-10.08,9.61-22.97,14.42-38.68,14.42-16.89,0-30.13-5.16-39.72-15.49-8.2-8.83-12.3-19.39-12.3-31.66,0-11.37,4.2-21.6,12.61-30.69ZM985.38,3483.89c7.78,8.18,17.79,12.28,30.02,12.28,8.69,0,16.16-2.44,22.41-7.31,9.03-7.01,13.55-18.15,13.55-33.42,0-13.77-4-24.71-11.99-32.83-7.37-7.4-16.61-11.11-27.73-11.11s-20.71,3.25-27.52,9.74c-7.16,6.89-10.74,16.69-10.74,29.42,0,13.77,3.99,24.84,11.99,33.22Z"/>
        <path class="cls-1" d="M1086.19,3497.83c-1.25-.65-1.88-2.14-1.88-4.48,0-3.96.24-8.21.73-12.76,0-1.3.35-1.95,1.04-1.95.83,0,1.25.46,1.25,1.36,0,1.82.14,3.28.42,4.38.97,4.03,3.61,7.11,7.92,9.26,3.68,1.75,8.03,2.63,13.03,2.63,6.39,0,11.4-1.53,15.01-4.58,3.34-2.86,5-6.66,5-11.4,0-4.03-1.32-7.57-3.96-10.62-2.09-2.34-6.36-5.75-12.82-10.23l-6.05-4.29c-12.72-8.9-19.08-17.47-19.08-25.72,0-6.95,2.74-12.47,8.23-16.56,5.28-4.03,12.37-6.04,21.27-6.04,5.14,0,9.73.49,13.76,1.46,1.74.33,3.3.49,4.69.49.9,0,1.36.29,1.36.88,0-.45-.1.72-.31,3.51-.21,2.79-.31,5.88-.31,9.26,0,1.75-.35,2.63-1.04,2.63-.62,0-1.04-.52-1.25-1.56-.14-2.08-.76-4.06-1.88-5.94-2.71-3.96-8.48-5.94-17.3-5.94-5.08,0-9.21,1.1-12.41,3.31-3.48,2.4-5.21,5.65-5.21,9.74,0,3.77,1.22,7.05,3.65,9.84,2.36,2.73,6.88,6.24,13.55,10.52l3.75,2.34c14.53,9.29,21.79,18.97,21.79,29.03,0,8.57-4.14,15.39-12.41,20.46-4.59,2.79-11.64,4.19-21.16,4.19-8.06,0-14.53-1.07-19.39-3.22Z"/>
        <path class="cls-1" d="M1159.79,3497.83c-1.25-.65-1.88-2.14-1.88-4.48,0-3.96.24-8.21.73-12.76,0-1.3.35-1.95,1.04-1.95.83,0,1.25.46,1.25,1.36,0,1.82.14,3.28.42,4.38.97,4.03,3.61,7.11,7.92,9.26,3.68,1.75,8.03,2.63,13.03,2.63,6.39,0,11.4-1.53,15.01-4.58,3.34-2.86,5-6.66,5-11.4,0-4.03-1.32-7.57-3.96-10.62-2.09-2.34-6.36-5.75-12.82-10.23l-6.05-4.29c-12.72-8.9-19.08-17.47-19.08-25.72,0-6.95,2.74-12.47,8.23-16.56,5.28-4.03,12.37-6.04,21.27-6.04,5.14,0,9.73.49,13.76,1.46,1.74.33,3.3.49,4.69.49.9,0,1.36.29,1.36.88,0-.45-.1.72-.31,3.51-.21,2.79-.31,5.88-.31,9.26,0,1.75-.35,2.63-1.04,2.63-.62,0-1.04-.52-1.25-1.56-.14-2.08-.76-4.06-1.88-5.94-2.71-3.96-8.48-5.94-17.3-5.94-5.08,0-9.21,1.1-12.41,3.31-3.48,2.4-5.21,5.65-5.21,9.74,0,3.77,1.22,7.05,3.65,9.84,2.36,2.73,6.88,6.24,13.55,10.52l3.75,2.34c14.53,9.29,21.79,18.97,21.79,29.03,0,8.57-4.14,15.39-12.41,20.46-4.59,2.79-11.64,4.19-21.16,4.19-8.06,0-14.53-1.07-19.39-3.22Z"/>
        <path class="cls-1" d="M1264.87,3411.11c1.32-3.12,2.36-4.68,3.13-4.68.69,0,1.77,1.46,3.23,4.38l13.76,31.47c9.31,21.43,15.36,35.24,18.14,41.41,3.33,7.47,7.12,11.86,11.36,13.15,1.46.46,3.2.68,5.21.68,1.11,0,1.67.33,1.67.97s-1.01.97-3.02.97c-7.86,0-14.84-.1-20.96-.29-3.13-.13-4.69-.39-4.69-.78,0-.32.31-.62.94-.88,1.53-.58,1.91-1.66,1.14-3.22l-11.88-27.57c-.21-.45-.62-.68-1.25-.68h-30.65c-.7,0-1.15.33-1.36.97l-7.61,19.19c-1.32,3.18-1.98,5.88-1.98,8.09s1.53,3.22,4.59,3.22h1.15c.9,0,1.36.33,1.36.97s-.63.97-1.88.97-3.47-.07-6.67-.19l-5.32-.19-5.21.19c-3.33.13-6.08.19-8.23.19-1.74,0-2.61-.33-2.61-.97s.42-.97,1.25-.97c1.53,0,2.85-.1,3.96-.29,4.52-.52,8.23-4.19,11.16-11.01l31.27-75.12ZM1279.68,3461.1c.48,0,.62-.29.42-.88l-13.14-32.93c-.7-1.75-1.43-1.75-2.19,0l-12.4,32.93c-.21.58-.07.88.42.88h26.9Z"/>
        <path class="cls-1" d="M1332.95,3443.46c0-14.68-.07-23.32-.21-25.92-.35-3.96-2.19-6.17-5.53-6.63-2.08-.19-3.58-.29-4.48-.29-.7,0-1.04-.33-1.04-.97s.69-.97,2.09-.97l9.49.1,5.73.19,13.55-.29c1.46,0,2.19.33,2.19.97s-.38.97-1.14.97c-1.11,0-2.23.1-3.34.29-2.71.45-4.24,2.66-4.59,6.63-.21,2.6-.31,11.24-.31,25.92v16.76c0,14.1,3.3,23.9,9.9,29.42,5.14,4.35,11.74,6.53,19.81,6.53,8.55,0,15.39-2.83,20.54-8.48,5-5.65,7.51-15.36,7.51-29.13v-15.1c0-13.38-.11-22.02-.31-25.92-.14-3.96-1.88-6.17-5.21-6.63-2.29-.19-3.82-.29-4.59-.29-.7,0-1.04-.33-1.04-.97s.69-.97,2.09-.97l9.17.1,5.21.19,11.15-.29c1.46,0,2.19.33,2.19.97s-.38.97-1.15.97c-1.04,0-2.12.1-3.23.29-2.85.52-4.42,2.73-4.69,6.63-.14,1.75-.21,10.39-.21,25.92v12.86c0,17.34-4.14,29.33-12.41,35.95-7.3,5.85-16.57,8.77-27.83,8.77-11.95,0-21.16-2.83-27.63-8.48-7.79-6.82-11.68-17.31-11.68-31.47v-17.63Z"/>
        <path class="cls-1" d="M1454.5,3488.18c-10.77-8.64-16.16-20.49-16.16-35.56,0-12.79,4.97-23.71,14.91-32.74,9.52-8.57,23.04-12.86,40.55-12.86,6.81,0,13.24.45,19.29,1.36,6.74,1.17,11.29,1.79,13.66,1.85,1.11,0,1.67.42,1.67,1.27l-.63,6.82-.31,12.28c-.07,1.69-.56,2.53-1.46,2.53-.7,0-1.04-.84-1.04-2.53,0-5.19-1.88-9.19-5.63-11.98-5.7-4.48-14.42-6.72-26.17-6.72-13.55,0-23.52,2.79-29.92,8.38-7.99,6.89-11.99,17.34-11.99,31.37,0,11.82,4.45,21.92,13.35,30.3,9.17,8.77,20.71,13.15,34.61,13.15,10.63,0,17.93-1.88,21.89-5.65,2.5-2.21,4.24-5.55,5.21-10.04.28-1.1.73-1.66,1.36-1.66.76,0,1.15.55,1.15,1.66,0,3.9-1.04,9.06-3.13,15.49-.56,1.69-1.67,2.86-3.33,3.51-4.86,1.75-12.89,2.63-24.08,2.63-18.62,0-33.22-4.29-43.78-12.86Z"/>
        <path class="cls-1" d="M1560.52,3443.46c0-14.68-.1-23.32-.31-25.92-.14-2.21-.52-3.77-1.15-4.68-.77-1.04-2.19-1.69-4.27-1.95-2.29-.19-3.82-.29-4.59-.29-.7,0-1.04-.33-1.04-.97s.7-.97,2.09-.97l9.69.1,5.73.19h31.79c.97-.06,2.15-.19,3.55-.39l2.5-.29c1.04-.39,1.63-.58,1.77-.58.42,0,.63.36.63,1.07,0,.19-.14.84-.42,1.95-.28,1.23-.49,2.47-.62,3.7-.07.33-.21,1.62-.42,3.9-.14,2.21-.28,3.57-.42,4.09-.21.84-.59,1.27-1.15,1.27-.7,0-1.04-.52-1.04-1.56,0-1.56-.28-2.99-.83-4.29-.77-1.82-3.93-3.02-9.49-3.6-2.57-.33-8.97-.49-19.18-.49-.49,0-.73.42-.73,1.27v32.64c0,.85.24,1.27.73,1.27,12.79,0,20.19-.1,22.2-.29,3.47-.32,5.63-.88,6.46-1.66,1.11-1.04,1.77-1.56,1.98-1.56.56,0,.83.33.83.97l-.42,2.14c-.35,1.43-.59,2.92-.73,4.48-.35,4.03-.52,6.63-.52,7.79,0,1.49-.42,2.24-1.25,2.24-.63,0-.94-.36-.94-1.07,0-1.62-.17-2.95-.52-3.99-.63-2.01-2.92-3.25-6.88-3.7-3.06-.32-9.76-.49-20.12-.49-.56,0-.83.26-.83.78v30.5c.14,4.03,1.18,6.66,3.13,7.89,1.94,1.17,6.18,1.75,12.72,1.75s10.98-.42,13.35-1.27c3.27-1.3,5.28-4.09,6.04-8.38.21-1.17.66-1.75,1.36-1.75.56,0,.83.58.83,1.75,0,3.64-.59,7.5-1.77,11.59-.42,1.49-1.11,2.4-2.09,2.73-.77.26-2.54.39-5.32.39l-23.14-.39c-3.75-.19-7.44-.29-11.05-.29-1.88,0-3.79.03-5.73.1-2.57.19-5.14.29-7.71.29-1.39,0-2.08-.33-2.08-.97s.35-.97,1.04-.97c.42,0,1.77-.19,4.07-.58,1.74-.26,2.88-2.37,3.44-6.33.56-3.31.83-11.98.83-26.01v-21.14Z"/>
        <path class="cls-1" d="M1644.34,3443.46c0-14.68-.1-23.32-.31-25.92-.14-2.21-.52-3.77-1.15-4.68-.77-1.04-2.19-1.69-4.27-1.95-2.29-.19-3.82-.29-4.59-.29-.7,0-1.04-.33-1.04-.97s.7-.97,2.09-.97l9.69.1,5.73.19,6.57-.19c4.38-.06,8.13-.1,11.26-.1,11.95,0,20.54.42,25.75,1.27,11.61,1.88,20.81,6.04,27.63,12.47,8.69,7.99,13.03,18.15,13.03,30.5,0,13.38-4.79,24.62-14.39,33.71-9.59,9.29-23.04,13.93-40.34,13.93-2.15,0-8.34-.26-18.56-.78-6.81-.46-10.46-.68-10.95-.68l-5.42.1c-2.71.19-5.39.29-8.03.29-1.39,0-2.08-.33-2.08-.97s.35-.97,1.04-.97c1.18,0,2.54-.19,4.07-.58,1.74-.39,2.88-2.5,3.44-6.33.56-3.31.83-11.98.83-26.01v-21.14ZM1656.43,3456.42c0,15.91.04,24.62.1,26.11.35,4.94.87,7.83,1.57,8.67,2.36,3.18,9.69,4.77,21.99,4.77s22.97-3.64,31.17-10.91c6.95-6.04,10.42-15.52,10.42-28.45s-4.17-22.31-12.51-30.11c-9.52-8.96-23.87-13.45-43.05-13.45-3.96,0-6.64.29-8.03.88-1.11.33-1.67,1.1-1.67,2.34v40.14Z"/>
        <path class="cls-1" d="M1765.05,3423.2c9.94-10.78,23.32-16.17,40.14-16.17,15.29,0,27.8,3.99,37.53,11.98,10.01,8.31,15.01,19.32,15.01,33.03s-4.86,25.3-14.59,34.59c-10.08,9.61-22.97,14.42-38.68,14.42-16.89,0-30.13-5.16-39.72-15.49-8.2-8.83-12.3-19.39-12.3-31.66,0-11.37,4.2-21.6,12.61-30.69ZM1778.19,3483.89c7.78,8.18,17.79,12.28,30.02,12.28,8.69,0,16.16-2.44,22.41-7.31,9.03-7.01,13.55-18.15,13.55-33.42,0-13.77-4-24.71-11.99-32.83-7.37-7.4-16.61-11.11-27.73-11.11s-20.71,3.25-27.52,9.74c-7.16,6.89-10.74,16.69-10.74,29.42,0,13.77,3.99,24.84,11.99,33.22Z"/>
        <path class="cls-1" d="M1868.78,3496.56c-1.32-1.49-1.98-3.25-1.98-5.26,0-1.88.66-3.57,1.98-5.07,1.6-1.75,3.72-2.63,6.36-2.63,2.36,0,4.34.65,5.94,1.95,1.6,1.36,2.4,3.15,2.4,5.36s-.77,4.19-2.29,5.75c-1.6,1.63-3.65,2.44-6.15,2.44-2.64,0-4.73-.84-6.25-2.53Z"/>
        <path class="cls-1" d="M1918.51,3488.18c-10.77-8.64-16.16-20.49-16.16-35.56,0-12.79,4.97-23.71,14.91-32.74,9.52-8.57,23.04-12.86,40.55-12.86,6.81,0,13.24.45,19.29,1.36,6.74,1.17,11.29,1.79,13.66,1.85,1.11,0,1.67.42,1.67,1.27l-.63,6.82-.31,12.28c-.07,1.69-.56,2.53-1.46,2.53-.7,0-1.04-.84-1.04-2.53,0-5.19-1.88-9.19-5.63-11.98-5.7-4.48-14.42-6.72-26.17-6.72-13.55,0-23.52,2.79-29.92,8.38-7.99,6.89-11.99,17.34-11.99,31.37,0,11.82,4.45,21.92,13.35,30.3,9.17,8.77,20.71,13.15,34.61,13.15,10.63,0,17.93-1.88,21.89-5.65,2.5-2.21,4.24-5.55,5.21-10.04.28-1.1.73-1.66,1.36-1.66.76,0,1.15.55,1.15,1.66,0,3.9-1.04,9.06-3.13,15.49-.56,1.69-1.67,2.86-3.33,3.51-4.86,1.75-12.89,2.63-24.08,2.63-18.62,0-33.22-4.29-43.78-12.86Z"/>
        <path class="cls-1" d="M2022.03,3423.2c9.94-10.78,23.32-16.17,40.14-16.17,15.29,0,27.8,3.99,37.53,11.98,10.01,8.31,15.01,19.32,15.01,33.03s-4.86,25.3-14.59,34.59c-10.08,9.61-22.97,14.42-38.68,14.42-16.89,0-30.13-5.16-39.72-15.49-8.2-8.83-12.3-19.39-12.3-31.66,0-11.37,4.2-21.6,12.61-30.69ZM2035.16,3483.89c7.78,8.18,17.79,12.28,30.02,12.28,8.69,0,16.16-2.44,22.41-7.31,9.03-7.01,13.55-18.15,13.55-33.42,0-13.77-4-24.71-11.99-32.83-7.37-7.4-16.61-11.11-27.73-11.11s-20.71,3.25-27.52,9.74c-7.16,6.89-10.74,16.69-10.74,29.42,0,13.77,3.99,24.84,11.99,33.22Z"/>
        <path class="cls-1" d="M2246.78,3483.99c.9,7.15,3.2,11.27,6.88,12.37,2.5.78,5.35,1.17,8.55,1.17.7,0,1.05.29,1.05.88,0,.71-.9,1.07-2.71,1.07-9.45,0-16.99-.23-22.62-.68-2.57-.26-3.86-.68-3.86-1.27s.31-.91.93-.97c.77-.19.97-1.62.63-4.29l-6.36-60.7h-.31l-32.01,61.28c-2.15,4.22-3.72,6.33-4.69,6.33-.9,0-2.43-1.82-4.59-5.46-7.36-12.73-12.55-22.02-15.53-27.86-10.63-20.39-16.26-31.31-16.89-32.74h-.62l-5.21,54.27c-.07,1.24-.1,3.25-.1,6.04,0,1.75,1.04,2.89,3.13,3.41,1.81.46,3.55.68,5.21.68.69,0,1.04.29,1.04.88,0,.71-.8,1.07-2.4,1.07-2.02,0-4.59-.07-7.71-.19l-4.69-.19-4.69.19c-2.92.13-5.08.19-6.46.19-1.53,0-2.29-.36-2.29-1.07,0-.58.45-.88,1.36-.88s2.22-.13,3.96-.39c1.95-.32,3.27-1.46,3.96-3.41.28-.84.66-2.92,1.15-6.24l9.7-78.43c.14-1.36.62-2.05,1.46-2.05,1.18,0,2.08.58,2.71,1.75l40.24,74.63,38.67-74.44c.7-1.3,1.39-1.95,2.09-1.95,1.05,0,1.7,1.07,1.98,3.22l9.07,73.75Z"/>
      </g>
      <g>
        <g>
          <path class="cls-1" d="M101.13,2577.78c-4.15-2.22-6.23-7.39-6.23-15.53,0-13.49.69-27.64,2.08-42.43.19-4.25,1.28-6.38,3.26-6.38,2.17,0,3.26,1.39,3.26,4.16,0,6.29.39,11.28,1.19,14.98,2.97,13.87,10.78,24.41,23.44,31.62,10.88,6.29,24.23,9.43,40.06,9.43,19.39,0,34.92-5.73,46.59-17.2,10.09-9.98,15.13-22.09,15.13-36.33,0-13.49-3.66-25.42-10.98-35.78-6.73-9.8-19.59-22-38.58-36.61l-19.29-14.7c-37.39-28.84-56.09-57.97-56.09-87.36,0-21.63,8.01-39.11,24.04-52.42,16.22-13.31,37.88-19.97,64.99-19.97,14.24,0,27.6,1.3,40.06,3.88,7.32,1.48,12.36,2.22,15.13,2.22,2.97,0,4.45.93,4.45,2.77,0-1.48-.3,2.4-.89,11.65-.59,9.43-.89,19.69-.89,30.79,0,6.29-.99,9.43-2.97,9.43s-3.17-1.76-3.56-5.27c-.59-8.13-2.48-14.88-5.64-20.25-9.1-14.05-27.01-21.08-53.71-21.08-15.24,0-27.7,4.07-37.39,12.2-10.29,8.69-15.43,20.16-15.43,34.39,0,11.47,3.56,21.82,10.68,31.06,7.12,9.43,20.97,21.54,41.55,36.33l12.17,8.87c24.33,17.94,41.15,34.39,50.45,49.37,8.31,13.13,12.46,28.2,12.46,45.21,0,28.48-12.17,50.75-36.5,66.84-17.61,11.28-39.27,16.92-64.99,16.92-22.55,0-41.84-3.61-57.87-10.82Z"/>
          <path class="cls-1" d="M423.57,2288.79c3.96-10.35,7.12-15.53,9.5-15.53,2.17,0,5.34,4.81,9.5,14.42,51.83,126.66,85.27,207.45,100.31,242.4,11.47,26.44,23.74,41.32,36.8,44.65,14.44,5.18,21.66,6.84,21.66,4.99,0,1.66-1.39,2.68-4.15,3.05-1.98.18-9.79.28-23.45.28-40.95,0-61.43-1.3-61.43-3.88,0-.74,1.08-1.76,3.26-3.05,2.17-1.11,3.26-2.96,3.26-5.55,0-1.66-.4-3.33-1.19-4.99l-39.76-99.01c-.99-1.48-2.28-2.22-3.86-2.22h-92.59c-1.98,0-3.46,1.02-4.45,3.05l-25.82,71.28c-3.96,10.54-5.94,19.14-5.94,25.79,0,8.51,5.44,12.76,16.32,12.76h4.45c2.77,0,4.15.83,4.15,2.5,0,2.03-2.18,3.05-6.53,3.05h-82.2c-5.34,0-8.01-1.02-8.01-3.05,0-1.66,1.29-2.5,3.86-2.5,13.85,0,24.43-3.33,31.75-9.98,5.94-5.17,11.57-14.7,16.92-28.57l97.63-249.89ZM468.38,2449.65c1.19,0,1.78-.37,1.78-1.11s-.1-1.29-.3-1.66l-40.66-108.44c-1.19-2.96-2.37-4.44-3.56-4.44s-2.18,1.48-2.97,4.44l-37.99,108.44c-.2.37-.3.83-.3,1.39,0,.93.59,1.39,1.78,1.39h82.2Z"/>
          <path class="cls-1" d="M654.56,2528.14c.39,16.27,1.88,27.73,4.45,34.39,2.37,6.66,6.53,10.73,12.46,12.2,5.94,1.66,13.06,2.5,21.37,2.5,2.37,0,3.56.83,3.56,2.5,0,2.03-2.57,3.05-7.72,3.05h-86.95c-4.55,0-6.83-1.02-6.83-3.05,0-1.66,1.08-2.5,3.26-2.5,6.92,0,12.86-.83,17.81-2.5,5.14-1.29,8.61-5.55,10.39-12.76,1.58-6.66,2.37-19.41,2.37-38.27l.59-230.47c0-13.31,1.58-19.97,4.75-19.97.79,0,5.74,4.26,14.84,12.76,6.13,6.47,51.73,52.51,136.81,138.12,16.03,15.9,36.89,36.98,62.62,63.24,23.74,24.41,37.29,38.27,40.66,41.6l-4.45-204.4c-.4-13.31-1.59-22.56-3.56-27.73-2.37-5.36-6.83-8.78-13.36-10.26-6.93-1.48-13.95-2.22-21.07-2.22-2.37,0-3.56-.92-3.56-2.77s2.86-2.77,8.61-2.77h81.31c5.14,0,7.72.93,7.72,2.77s-1.48,2.77-4.45,2.77c-3.56,0-7.02.46-10.39,1.39-6.73,1.3-11.18,4.62-13.35,9.98-1.78,4.44-2.67,13.03-2.67,25.79l-.89,235.74c0,19.05-1.29,28.57-3.86,28.57s-13.06-8.6-31.46-25.79c-17.81-15.53-55.2-51.86-112.18-109-22.55-22.74-60.05-61.2-112.47-115.37l5.64,192.48Z"/>
          <path class="cls-1" d="M1101.31,2466.29c0,46.97.69,76.09,2.08,87.36,1.78,13.31,7.42,20.62,16.92,21.91,7.91,1.11,14.34,1.66,19.29,1.66,2.37,0,3.56.83,3.56,2.5,0,2.03-2.37,3.05-7.12,3.05-9.5,0-20.97-.19-34.42-.55l-18.4-.56-16.92.56c-11.68.37-20.08.55-25.23.55-4.55,0-6.82-1.02-6.82-3.05,0-1.66,1.08-2.5,3.26-2.5,3.56,0,7.91-.56,13.06-1.66,6.33-1.29,10.48-8.6,12.46-21.91,1.38-11.28,2.08-40.4,2.08-87.36v-170.01l-63.51.56c-23.55.55-38.18,4.9-43.92,13.03-3.37,4.81-5.84,8.97-7.42,12.48-.99,2.59-2.48,3.88-4.45,3.88-1.39,0-2.08-1.2-2.08-3.61,0-4.25,3.16-18.21,9.5-41.88,1.97-4.99,3.46-7.49,4.45-7.49.39,0,2.47.65,6.23,1.94,3.76,1.48,7.91,2.4,12.46,2.77,13.25,1.48,24.63,2.22,34.13,2.22h161.44c12.86,0,23.05-.74,30.57-2.22,9.69-1.29,13.65-1.94,11.87-1.94,1.58,0,2.37,1.57,2.37,4.71,0,4.62-.2,12.94-.59,24.96l-.89,19.41c0,3.51-.99,5.27-2.97,5.27-1.78,0-2.97-2.31-3.56-6.93l-.3-4.44c-1.39-14.05-18.99-21.45-52.82-22.19l-54.31-.56v170.01Z"/>
          <path class="cls-1" d="M1267.65,2327.34c31.85-36.05,74.88-54.08,129.09-54.08,49.46,0,89.72,13.41,120.78,40.22,32.24,27.73,48.37,64.62,48.37,110.66s-15.63,84.69-46.89,115.93c-32.45,32.36-74.09,48.54-124.94,48.54-54.41,0-96.94-17.29-127.61-51.86-26.12-29.58-39.17-64.99-39.17-106.22,0-38.27,13.45-72.66,40.36-103.17ZM1308.01,2531.47c25.72,27.92,58.36,41.88,97.93,41.88,28.29,0,52.92-8.41,73.89-25.24,29.87-23.85,44.81-61.48,44.81-112.88,0-46.04-13.35-82.83-40.06-110.38-24.53-25.33-54.8-38-90.81-38s-67.27,11.09-89.62,33.28c-23.94,23.48-35.91,56.49-35.91,99.01,0,46.04,13.25,83.48,39.77,112.33Z"/>
          <path class="cls-1" d="M1609.27,2577.78c-4.15-2.22-6.23-7.39-6.23-15.53,0-13.49.69-27.64,2.08-42.43.19-4.25,1.28-6.38,3.26-6.38,2.17,0,3.26,1.39,3.26,4.16,0,6.29.39,11.28,1.19,14.98,2.97,13.87,10.78,24.41,23.44,31.62,10.88,6.29,24.23,9.43,40.06,9.43,19.39,0,34.92-5.73,46.59-17.2,10.09-9.98,15.13-22.09,15.13-36.33,0-13.49-3.66-25.42-10.98-35.78-6.73-9.8-19.59-22-38.58-36.61l-19.29-14.7c-37.39-28.84-56.09-57.97-56.09-87.36,0-21.63,8.01-39.11,24.04-52.42,16.22-13.31,37.88-19.97,64.99-19.97,14.24,0,27.6,1.3,40.06,3.88,7.32,1.48,12.36,2.22,15.13,2.22,2.97,0,4.45.93,4.45,2.77,0-1.48-.3,2.4-.89,11.65-.59,9.43-.89,19.69-.89,30.79,0,6.29-.99,9.43-2.97,9.43s-3.17-1.76-3.56-5.27c-.59-8.13-2.48-14.88-5.64-20.25-9.1-14.05-27.01-21.08-53.71-21.08-15.24,0-27.7,4.07-37.39,12.2-10.29,8.69-15.43,20.16-15.43,34.39,0,11.47,3.56,21.82,10.68,31.06,7.12,9.43,20.97,21.54,41.55,36.33l12.17,8.87c24.33,17.94,41.15,34.39,50.45,49.37,8.31,13.13,12.46,28.2,12.46,45.21,0,28.48-12.17,50.75-36.5,66.84-17.61,11.28-39.27,16.92-64.99,16.92-22.55,0-41.84-3.61-57.87-10.82Z"/>
          <path class="cls-1" d="M1935.93,2557.26c-16.03-17.2-24.04-36.42-24.04-57.69,0-40.49,21.96-72.76,65.88-96.79-14.05-18.86-21.07-37.35-21.07-55.47s8.21-34.11,24.63-49.09c18.4-16.64,41.05-24.96,67.96-24.96,21.96,0,39.27,3.33,51.93,9.98,3.76,2.04,5.64,5.36,5.64,9.98,0,22.74-.99,38.18-2.97,46.32-.99,4.62-2.37,6.93-4.15,6.93s-2.67-2.59-2.67-7.77c0-14.05-4.45-25.42-13.35-34.11-12.27-11.83-26.61-17.75-43.03-17.75-14.64,0-27.01,4.07-37.1,12.2-11.68,9.62-17.51,23.11-17.51,40.49,0,14.61,5.74,29.95,17.21,46.04,8.7,12.39,25.62,31.34,50.75,56.86,21.56,22.19,48.67,46.23,81.31,72.11,14.64-18.3,21.96-40.58,21.96-66.84,0-7.95-2.77-14.51-8.31-19.69-4.35-4.25-11.38-6.38-21.07-6.38-3.37,0-5.04-.92-5.04-2.77s2.27-2.77,6.82-2.77c16.62,0,33.83.93,51.64,2.77,5.14.74,7.72,3.42,7.72,8.04,0,31.06-14.15,62.68-42.44,94.85,19.98,15.9,39.77,29.22,59.35,39.94,18.79,10.36,35.81,15.53,51.04,15.53,4.15,0,6.23.93,6.23,2.77s-2.48,2.77-7.42,2.77h-42.14c-16.42,0-29.38-1.94-38.88-5.82-10.88-4.25-27.8-14.88-50.75-31.89-31.06,29.03-66.87,43.54-107.43,43.54-34.23,0-61.13-10.44-80.72-31.34ZM2113.1,2537.57c-28.49-21.81-54.51-44.56-78.05-68.23-22.75-22.37-39.67-41.14-50.75-56.3-25.72,16.09-38.58,38.65-38.58,67.67,0,24.96,8.31,45.67,24.93,62.13,16.42,16.27,36.8,24.41,61.13,24.41,33.04,0,60.14-9.89,81.31-29.68Z"/>
          <path class="cls-1" d="M101.13,2978.61c-4.15-2.22-6.23-7.39-6.23-15.53,0-13.49.69-27.64,2.08-42.43.19-4.25,1.28-6.38,3.26-6.38,2.17,0,3.26,1.39,3.26,4.16,0,6.29.39,11.28,1.19,14.98,2.97,13.87,10.78,24.41,23.44,31.62,10.88,6.29,24.23,9.43,40.06,9.43,19.39,0,34.92-5.73,46.59-17.2,10.09-9.98,15.13-22.09,15.13-36.33,0-13.49-3.66-25.42-10.98-35.78-6.73-9.8-19.59-22-38.58-36.61l-19.29-14.7c-37.39-28.84-56.09-57.97-56.09-87.36,0-21.63,8.01-39.11,24.04-52.42,16.22-13.31,37.88-19.97,64.99-19.97,14.24,0,27.6,1.29,40.06,3.88,7.32,1.48,12.36,2.22,15.13,2.22,2.97,0,4.45.93,4.45,2.77,0-1.48-.3,2.4-.89,11.65-.59,9.43-.89,19.69-.89,30.78,0,6.29-.99,9.43-2.97,9.43s-3.17-1.75-3.56-5.27c-.59-8.13-2.48-14.88-5.64-20.25-9.1-14.05-27.01-21.08-53.71-21.08-15.24,0-27.7,4.07-37.39,12.2-10.29,8.69-15.43,20.16-15.43,34.39,0,11.47,3.56,21.82,10.68,31.06,7.12,9.43,20.97,21.54,41.55,36.33l12.17,8.87c24.33,17.94,41.15,34.39,50.45,49.37,8.31,13.13,12.46,28.2,12.46,45.21,0,28.48-12.17,50.75-36.5,66.84-17.61,11.28-39.27,16.92-64.99,16.92-22.55,0-41.84-3.61-57.87-10.82Z"/>
          <path class="cls-1" d="M436.94,2689.61c3.96-10.35,7.12-15.53,9.5-15.53,2.17,0,5.34,4.81,9.5,14.42,51.83,126.65,85.27,207.45,100.31,242.4,11.47,26.44,23.74,41.32,36.8,44.65,14.44,5.18,21.66,6.84,21.66,4.99,0,1.66-1.39,2.68-4.15,3.05-1.98.18-9.79.28-23.45.28-40.95,0-61.43-1.3-61.43-3.88,0-.74,1.08-1.76,3.26-3.05,2.17-1.11,3.26-2.96,3.26-5.55,0-1.66-.4-3.33-1.19-4.99l-39.76-99.01c-.99-1.48-2.28-2.22-3.86-2.22h-92.59c-1.98,0-3.46,1.02-4.45,3.05l-25.82,71.28c-3.96,10.54-5.94,19.14-5.94,25.79,0,8.51,5.44,12.76,16.32,12.76h4.45c2.77,0,4.15.83,4.15,2.5,0,2.03-2.18,3.05-6.53,3.05h-82.2c-5.34,0-8.01-1.02-8.01-3.05,0-1.66,1.29-2.5,3.86-2.5,13.85,0,24.43-3.33,31.75-9.98,5.94-5.17,11.57-14.7,16.92-28.57l97.63-249.89ZM481.75,2850.47c1.19,0,1.78-.37,1.78-1.11s-.1-1.29-.3-1.66l-40.66-108.44c-1.19-2.96-2.37-4.44-3.56-4.44s-2.18,1.48-2.97,4.44l-37.99,108.44c-.2.37-.3.83-.3,1.39,0,.93.59,1.39,1.78,1.39h82.2Z"/>
          <path class="cls-1" d="M644.19,2796.39c0-49.37-.3-78.39-.89-87.09-.4-7.21-1.78-12.38-4.15-15.53-2.57-3.51-7.32-5.91-14.24-7.21-3.96-.92-8.9-1.39-14.84-1.39-2.18,0-3.27-.74-3.27-2.22,0-2.22,2.27-3.33,6.83-3.33,7.72,0,17.9.19,30.57.56l18.99.83,17.81-.83c11.47-.37,19.68-.56,24.63-.56s7.12,1.11,7.12,3.33c0,1.48-1.19,2.22-3.56,2.22-1.59,0-5.15.46-10.68,1.39-9.9,1.48-15.24,9.06-16.03,22.74-.59,8.69-.89,37.72-.89,87.09v56.3c0,46.78,10.78,79.88,32.35,99.29,16.81,14.79,38.48,22.19,64.99,22.19s50.15-9.71,67.36-29.12c16.81-19.23,25.23-52.05,25.23-98.46v-50.2c0-49.37-.3-78.39-.89-87.09-.4-7.02-1.88-12.2-4.45-15.53-2.57-3.51-7.32-5.91-14.25-7.21-3.56-.92-8.41-1.39-14.54-1.39-2.37,0-3.56-.74-3.56-2.22,0-2.22,2.37-3.33,7.12-3.33,7.91,0,17.61.19,29.08.56l16.32.83,14.54-.83c9.3-.37,16.52-.56,21.66-.56,4.55,0,6.82,1.11,6.82,3.33,0,1.48-1.09,2.22-3.26,2.22-1.39,0-5.04.46-10.98,1.39-9.7,2.04-14.94,9.62-15.73,22.74-.59,8.69-.89,37.72-.89,87.09v42.99c0,58.24-13.16,98.28-39.47,120.09-24.14,19.97-53.71,29.95-88.73,29.95-37.59,0-67.17-9.52-88.73-28.57-24.93-22.37-37.39-57.69-37.39-105.95v-58.52Z"/>
          <path class="cls-1" d="M1008.86,2945.88c-34.62-29.21-51.93-68.87-51.93-118.98,0-43.27,16.02-79.87,48.07-109.83,30.66-28.66,74.38-42.99,131.17-42.99,23.34,0,44.22,1.57,62.62,4.71,20.97,3.51,35.61,5.55,43.92,6.1,3.56.19,5.34,1.66,5.34,4.44l-.59,6.93c-.59,4.99-1.09,10.17-1.48,15.53-.4,5.18-.7,13.04-.89,23.57l-.3,18.03c-.59,5.55-1.88,8.32-3.86,8.32-2.37,0-3.56-2.77-3.56-8.32,0-17.93-6.04-31.62-18.1-41.05-18.6-15.34-47.29-23.02-86.06-23.02-44.12,0-77.06,9.8-98.82,29.4-25.92,23.12-38.88,58.06-38.88,104.84,0,39.76,14.34,73.87,43.03,102.34,30.07,29.95,67.56,44.93,112.47,44.93,35.81,0,60.73-6.75,74.78-20.25,7.52-7.39,12.86-18.58,16.03-33.56.79-4.06,2.17-6.1,4.15-6.1s2.97,2.04,2.97,6.1c0,14.79-3.17,31.89-9.5,51.31-1.78,5.55-5.44,9.43-10.98,11.65-16.22,6.28-42.04,9.43-77.45,9.43-60.15,0-107.53-14.51-142.15-43.54Z"/>
          <path class="cls-1" d="M1340.72,2796.39c0-49.37-.3-78.39-.89-87.09-.4-7.21-1.78-12.38-4.16-15.53-2.57-3.51-7.32-5.91-14.24-7.21-3.96-.92-8.81-1.39-14.54-1.39-2.37,0-3.56-.74-3.56-2.22,0-2.22,2.27-3.33,6.82-3.33,14.44,0,24.83.19,31.16.56l17.51.83c59.15,0,92-.18,98.52-.55,8.31-.18,14.44-.83,18.4-1.94,5.54-1.29,7.61-1.94,6.23-1.94.99,0,1.48,1.21,1.48,3.61,0,.55-.4,2.59-1.19,6.1-.99,4.26-1.68,8.51-2.08,12.76-.2,1.11-.5,5.37-.89,12.76-.4,7.4-.79,11.93-1.19,13.59-.79,2.96-1.88,4.44-3.26,4.44-2.18,0-3.26-1.66-3.26-4.99,0-5.55-.89-10.44-2.67-14.7-3.37-7.21-13.55-11.74-30.57-13.59-6.33-.74-25.92-1.11-58.76-1.11-1.78,0-2.67,1.3-2.67,3.88v110.94c0,2.77.89,4.16,2.67,4.16,38.97,0,61.73-.28,68.25-.83,10.68-.92,17.41-2.77,20.18-5.55,3.16-3.51,5.34-5.27,6.53-5.27,1.38,0,2.08,1.02,2.08,3.05,0,.56-.4,2.96-1.19,7.21-.99,5.18-1.68,10.36-2.08,15.53-1.19,10.73-1.78,19.23-1.78,25.52,0,5.18-.99,7.77-2.97,7.77s-2.97-1.2-2.97-3.61c0-5.36-.59-9.8-1.78-13.31-2.57-8.13-10.09-12.85-22.55-14.14-13.46-1.29-33.93-1.94-61.43-1.94-1.98,0-2.97.93-2.97,2.77v104.28c.59,14.05,3.76,23.02,9.5,26.9,6.13,4.07,19.59,6.1,40.36,6.1s33.93-1.48,41.25-4.44c10.09-3.88,16.62-13.59,19.59-29.12.59-3.88,1.88-5.82,3.86-5.82,1.58,0,2.37,1.94,2.37,5.82,0,12.94-1.88,25.98-5.64,39.11-1.39,4.99-3.46,8.04-6.23,9.15-2.18.92-7.82,1.39-16.92,1.39-20.18,0-44.42-.46-72.71-1.39-14.84-.74-26.02-1.11-33.53-1.11-5.54,0-11.28.09-17.21.28l-24.93.83c-4.55,0-6.83-1.02-6.83-3.05,0-1.66,1.08-2.5,3.26-2.5,3.56,0,7.91-.56,13.06-1.66,6.33-1.29,10.48-8.6,12.46-21.91,1.38-11.28,2.08-40.4,2.08-87.36v-70.72Z"/>
          <path class="cls-1" d="M1595.37,2796.39c0-49.37-.3-78.39-.89-87.09-.4-7.21-1.78-12.38-4.16-15.53-2.57-3.51-7.32-5.91-14.24-7.21-3.96-.92-8.81-1.39-14.54-1.39-2.37,0-3.56-.74-3.56-2.22,0-2.22,2.27-3.33,6.82-3.33,7.91,0,18.2.19,30.86.56l17.81.83,21.37-.83c14.24-.37,26.51-.56,36.8-.56,37.99,0,65.68,1.48,83.09,4.44,37.59,6.29,67.36,20.06,89.32,41.32,27.9,27.18,41.84,61.29,41.84,102.34,0,44.75-15.53,82.56-46.59,113.43-31.26,30.69-74.69,46.04-130.28,46.04-15.04,0-35.02-.74-59.94-2.22-22.36-1.66-34.23-2.5-35.61-2.5-5.54,0-11.28.09-17.21.28l-24.93.83c-4.55,0-6.83-1.02-6.83-3.05,0-1.66,1.08-2.5,3.26-2.5,3.56,0,7.91-.56,13.06-1.66,6.33-1.29,10.48-8.6,12.46-21.91,1.38-11.28,2.08-40.4,2.08-87.36v-70.72ZM1631.57,2839.66c0,50.48.3,79.6.89,87.36.59,17.01,2.17,27.18,4.75,30.51,7.72,10.73,32.05,16.09,73,16.09s76.07-12.48,102.38-37.44c22.95-20.89,34.42-52.88,34.42-95.96,0-40.67-13.75-74.51-41.25-101.51-30.86-30.32-77.75-45.48-140.66-45.48-14.64,0-23.94,1.02-27.9,3.05-3.56,1.29-5.34,3.98-5.34,8.04-.2,9.06-.3,37.54-.3,85.42v49.92Z"/>
          <path class="cls-1" d="M1965.02,2728.17c31.85-36.06,74.88-54.08,129.09-54.08,49.46,0,89.72,13.41,120.78,40.21,32.24,27.74,48.37,64.62,48.37,110.66s-15.63,84.69-46.89,115.93c-32.45,32.36-74.09,48.54-124.94,48.54-54.41,0-96.94-17.29-127.61-51.86-26.12-29.58-39.17-64.99-39.17-106.22,0-38.27,13.45-72.66,40.36-103.17ZM2005.38,2932.29c25.72,27.92,58.36,41.88,97.93,41.88,28.29,0,52.92-8.41,73.89-25.24,29.87-23.85,44.81-61.48,44.81-112.88,0-46.04-13.35-82.83-40.06-110.38-24.53-25.33-54.8-38-90.81-38s-67.27,11.09-89.62,33.28c-23.94,23.48-35.91,56.49-35.91,99.01,0,46.04,13.25,83.48,39.77,112.32Z"/>
        </g>
        <g>
          <path class="cls-1" d="M142.91,3096.45c1.27-3.31,2.28-4.97,3.04-4.97.7,0,1.71,1.54,3.04,4.61,16.57,40.5,27.27,66.34,32.08,77.51,3.67,8.46,7.59,13.21,11.77,14.28,4.62,1.66,6.93,2.19,6.93,1.6,0,.53-.44.86-1.33.98-.63.06-3.13.09-7.5.09-13.1,0-19.64-.42-19.64-1.24,0-.24.35-.56,1.04-.98.7-.35,1.04-.95,1.04-1.77,0-.53-.13-1.06-.38-1.6l-12.72-31.66c-.32-.47-.73-.71-1.23-.71h-29.61c-.63,0-1.11.33-1.42.98l-8.26,22.79c-1.27,3.37-1.9,6.12-1.9,8.25,0,2.72,1.74,4.08,5.22,4.08h1.42c.88,0,1.33.27,1.33.8,0,.65-.7.98-2.09.98h-26.29c-1.71,0-2.56-.33-2.56-.98,0-.53.41-.8,1.23-.8,4.43,0,7.81-1.06,10.15-3.19,1.9-1.65,3.7-4.7,5.41-9.13l31.22-79.91ZM157.24,3147.89c.38,0,.57-.12.57-.35s-.03-.41-.09-.53l-13-34.68c-.38-.95-.76-1.42-1.14-1.42s-.7.47-.95,1.42l-12.15,34.68c-.06.12-.09.27-.09.44,0,.3.19.44.57.44h26.29Z"/>
          <path class="cls-1" d="M410.72,3130.6c0-15.79-.09-25.07-.29-27.85-.13-2.31-.57-3.96-1.33-4.97-.82-1.12-2.34-1.89-4.56-2.31-1.27-.29-2.82-.44-4.65-.44-.76,0-1.14-.24-1.14-.71,0-.71.73-1.06,2.18-1.06,2.53,0,5.82.06,9.87.18l5.69.27c.88,0,3-.09,6.36-.27,3.42-.12,6.29-.18,8.63-.18,9.93,0,17.33,2.42,22.21,7.27,3.54,3.49,5.31,7.51,5.31,12.06,0,7.04-4.3,14.75-12.91,23.15,6.08,1.77,11.32,4.79,15.75,9.05,5.38,5.2,8.07,11.23,8.07,18.09,0,7.51-2.91,13.9-8.73,19.16-6.52,5.91-15.31,8.87-26.38,8.87l-9.96-.44c-3.55-.24-6.33-.35-8.35-.35-1.77,0-3.61.03-5.5.09l-7.97.27c-1.46,0-2.18-.33-2.18-.98,0-.53.35-.8,1.04-.8,1.14,0,2.53-.18,4.18-.53,2.02-.41,3.35-2.75,3.98-7.01.44-3.61.67-12.92.67-27.94v-22.62ZM421.73,3133.43c0,.71.32,1.18.95,1.42,2.85.3,5.66.44,8.45.44,6.2,0,10.37-1.09,12.52-3.28,3.29-3.61,4.94-7.95,4.94-13.04,0-6.03-1.43-11.06-4.27-15.08-3.29-4.67-8.07-7.01-14.33-7.01-2.66,0-4.87.21-6.64.62-1.08.24-1.61.71-1.61,1.42v34.5ZM421.73,3147c0,17.27.06,26.52.19,27.76.19,3.55.47,5.79.85,6.74.51,1.36,1.77,2.48,3.8,3.37,2.91,1.24,6.93,1.86,12.05,1.86s9.05-1.24,12.53-3.72c4.62-3.19,6.93-8.04,6.93-14.54,0-11.41-4.46-19.98-13.38-25.72-2.97-1.89-6.77-3.13-11.39-3.72-1.2-.18-4.78-.27-10.72-.27-.57,0-.85.33-.85.98v7.27Z"/>
          <path class="cls-1" d="M684.41,3108.78c10.18-11.53,23.95-17.29,41.28-17.29,15.81,0,28.69,4.29,38.62,12.86,10.31,8.87,15.47,20.66,15.47,35.39s-5,27.08-14.99,37.07c-10.38,10.35-23.69,15.52-39.95,15.52-17.4,0-31-5.53-40.8-16.58-8.35-9.46-12.53-20.78-12.53-33.97,0-12.24,4.3-23.24,12.91-32.99ZM697.32,3174.05c8.22,8.93,18.66,13.39,31.32,13.39,9.05,0,16.92-2.69,23.63-8.07,9.55-7.63,14.33-19.66,14.33-36.1,0-14.72-4.27-26.49-12.81-35.3-7.84-8.1-17.53-12.15-29.04-12.15s-21.51,3.55-28.66,10.64c-7.66,7.51-11.48,18.06-11.48,31.66,0,14.72,4.24,26.69,12.72,35.92Z"/>
          <path class="cls-1" d="M1066.29,3157.73c0-5.2-.35-8.54-1.04-10.02-.63-1.48-2.34-2.57-5.12-3.28-1.01-.24-2.6-.35-4.74-.35-.7,0-1.04-.27-1.04-.8,0-.65.73-.98,2.18-.98,2.53,0,5.79.06,9.77.18l5.79.18,5.41-.18c3.67-.12,6.36-.18,8.07-.18,1.46,0,2.18.33,2.18.98,0,.53-.38.8-1.14.8s-1.9.12-3.42.35c-3.16.59-4.84,3.05-5.03,7.36-.19,2.72-.28,7.18-.28,13.39v14.37c0,2.84-.1,4.61-.29,5.32-.19.59-.7,1.12-1.52,1.6-7.78,3.9-17.52,5.85-29.23,5.85-18.92,0-34-4.58-45.26-13.75-4.56-3.72-8.32-8.69-11.29-14.9-3.35-6.92-5.03-14.19-5.03-21.82,0-9.7,2.31-18.42,6.93-26.16,4.05-6.86,9.39-12.24,16.04-16.14,9.24-5.38,21.45-8.07,36.63-8.07,6.89,0,13.89.74,20.97,2.22,3.42.71,7.15,1.12,11.2,1.24,1.07.06,1.61.44,1.61,1.15,0-.35-.16,1.3-.47,4.97-.32,3.67-.48,8.1-.48,13.3,0,1.77-.41,2.66-1.23,2.66-.51,0-.82-.62-.95-1.86-.13-2.95-1.08-5.79-2.85-8.51-1.96-2.78-5.57-5.11-10.82-7.01-6.14-2.25-13.32-3.37-21.54-3.37-12.02,0-21.86,2.81-29.51,8.43-9.05,6.74-13.57,17.65-13.57,32.73,0,7.98,1.83,15.64,5.5,22.97,2.66,5.38,5.69,9.58,9.11,12.59,10,9.16,22.01,13.75,36.06,13.75,7.15,0,12.37-.89,15.66-2.66,1.83-.89,2.75-2.39,2.75-4.52v-21.82Z"/>
          <path class="cls-1" d="M1326.03,3096.45c1.27-3.31,2.28-4.97,3.04-4.97.7,0,1.71,1.54,3.04,4.61,16.57,40.5,27.27,66.34,32.08,77.51,3.67,8.46,7.59,13.21,11.77,14.28,4.62,1.66,6.93,2.19,6.93,1.6,0,.53-.44.86-1.33.98-.63.06-3.13.09-7.5.09-13.1,0-19.64-.42-19.64-1.24,0-.24.35-.56,1.04-.98.7-.35,1.04-.95,1.04-1.77,0-.53-.13-1.06-.38-1.6l-12.72-31.66c-.32-.47-.73-.71-1.23-.71h-29.61c-.63,0-1.11.33-1.42.98l-8.26,22.79c-1.27,3.37-1.9,6.12-1.9,8.25,0,2.72,1.74,4.08,5.22,4.08h1.42c.88,0,1.33.27,1.33.8,0,.65-.7.98-2.09.98h-26.29c-1.71,0-2.56-.33-2.56-.98,0-.53.41-.8,1.23-.8,4.43,0,7.81-1.06,10.15-3.19,1.9-1.65,3.7-4.7,5.41-9.13l31.22-79.91ZM1340.36,3147.89c.38,0,.57-.12.57-.35s-.03-.41-.09-.53l-13-34.68c-.38-.95-.76-1.42-1.14-1.42s-.7.47-.95,1.42l-12.15,34.68c-.06.12-.09.27-.09.44,0,.3.19.44.57.44h26.29Z"/>
          <path class="cls-1" d="M1593.84,3130.6c0-15.79-.09-25.07-.29-27.85-.13-2.31-.57-3.96-1.33-4.97-.82-1.12-2.34-1.89-4.56-2.31-1.27-.29-2.82-.44-4.65-.44-.76,0-1.14-.24-1.14-.71,0-.71.73-1.06,2.18-1.06,2.53,0,5.82.06,9.87.18l5.69.27,6.83-.27c4.56-.12,8.48-.18,11.77-.18,12.15,0,21,.47,26.57,1.42,12.02,2.01,21.54,6.42,28.56,13.21,8.92,8.69,13.38,19.6,13.38,32.73,0,14.31-4.97,26.4-14.9,36.27-10,9.82-23.88,14.72-41.66,14.72-4.81,0-11.2-.24-19.17-.71-7.15-.53-10.94-.8-11.39-.8-1.77,0-3.61.03-5.5.09l-7.97.27c-1.46,0-2.18-.33-2.18-.98,0-.53.35-.8,1.04-.8,1.14,0,2.53-.18,4.18-.53,2.02-.41,3.35-2.75,3.98-7.01.44-3.61.67-12.92.67-27.94v-22.62ZM1605.41,3144.43c0,16.14.09,25.45.29,27.94.19,5.44.7,8.69,1.52,9.76,2.47,3.43,10.25,5.14,23.34,5.14s24.32-3.99,32.74-11.97c7.34-6.68,11.01-16.91,11.01-30.69,0-13.01-4.4-23.83-13.19-32.46-9.87-9.7-24.86-14.54-44.98-14.54-4.68,0-7.66.33-8.92.98-1.14.42-1.71,1.27-1.71,2.57-.06,2.9-.09,12-.09,27.32v15.96Z"/>
          <path class="cls-1" d="M1904.63,3108.78c10.18-11.53,23.95-17.29,41.28-17.29,15.81,0,28.69,4.29,38.62,12.86,10.31,8.87,15.47,20.66,15.47,35.39s-5,27.08-14.99,37.07c-10.38,10.35-23.69,15.52-39.95,15.52-17.4,0-31-5.53-40.8-16.58-8.35-9.46-12.53-20.78-12.53-33.97,0-12.24,4.3-23.24,12.91-32.99ZM1917.54,3174.05c8.22,8.93,18.66,13.39,31.32,13.39,9.05,0,16.92-2.69,23.63-8.07,9.55-7.63,14.33-19.66,14.33-36.1,0-14.72-4.27-26.49-12.81-35.3-7.84-8.1-17.53-12.15-29.04-12.15s-21.51,3.55-28.66,10.64c-7.66,7.51-11.48,18.06-11.48,31.66,0,14.72,4.24,26.69,12.72,35.92Z"/>
          <path class="cls-1" d="M2212.3,3188.86c-1.33-.71-1.99-2.36-1.99-4.97,0-4.32.22-8.84.66-13.57.06-1.36.41-2.04,1.04-2.04.7,0,1.04.44,1.04,1.33,0,2.01.12,3.61.38,4.79.95,4.43,3.45,7.8,7.5,10.11,3.48,2.01,7.75,3.02,12.81,3.02,6.2,0,11.17-1.83,14.9-5.5,3.23-3.19,4.84-7.06,4.84-11.62,0-4.32-1.17-8.13-3.51-11.44-2.15-3.13-6.26-7.03-12.34-11.71l-6.17-4.7c-11.96-9.22-17.93-18.54-17.93-27.94,0-6.92,2.56-12.5,7.69-16.76,5.19-4.26,12.11-6.39,20.78-6.39,4.56,0,8.83.42,12.81,1.24,2.34.47,3.95.71,4.84.71.95,0,1.42.3,1.42.89,0-.47-.09.77-.28,3.72-.19,3.02-.28,6.3-.28,9.84,0,2.01-.32,3.02-.95,3.02s-1.01-.56-1.14-1.69c-.19-2.6-.79-4.76-1.8-6.47-2.91-4.49-8.64-6.74-17.18-6.74-4.87,0-8.86,1.3-11.96,3.9-3.29,2.78-4.93,6.45-4.93,11,0,3.67,1.14,6.98,3.42,9.93,2.28,3.02,6.7,6.89,13.28,11.62l3.89,2.84c7.78,5.74,13.16,11,16.13,15.79,2.66,4.2,3.98,9.02,3.98,14.46,0,9.11-3.89,16.23-11.67,21.37-5.63,3.61-12.56,5.41-20.78,5.41-7.21,0-13.38-1.15-18.51-3.46Z"/>
        </g>
      </g>
      <rect class="cls-1" y="3287.74" width="2358.15" height="18.16"/>
    </g>
  </g>
</svg>