<?xml version="1.0" encoding="UTF-8"?>
<svg xmlns="http://www.w3.org/2000/svg" viewBox="0 0 1600 1600">
  <rect width="1600" height="1600" rx="220" fill="#1E1C92"/>
  <g transform="translate(112, 111) scale(1.005)">
    <path fill="#A5E029" d="M674.14,747.97c14.17,4.38,23.8,6.97,28.92,7.76l28.92,7.16,46.03,11.94c77.9,20.29,134.75,38.2,170.56,53.72,9.51,4.12,18.64,8.61,27.4,13.44,6.51-15.18,9.78-31.44,9.78-48.81,0-30.24-12.01-57.5-36-81.78-11.02-10.74-25.28-20.69-42.79-29.85-17.51-9.15-40.13-18.5-67.87-28.06-22.53-7.76-52.24-16.76-88.39-26.88l-112.24,112.45c11.24,2.85,23.09,5.81,35.68,8.9Z"/>
    <path fill="#A5E029" d="M508.01,1180.44c43.47,28.05,89.02,49.84,136.63,65.36,47.6,15.52,92.85,23.28,135.74,23.28,38.16,0,73.08-6.36,104.76-19.1,31.67-12.73,56.36-30.44,74.07-53.13,17.71-22.69,26.56-48.35,26.56-77.01,0-30.24-12.01-57.5-36-81.78-11.02-10.75-25.28-20.69-42.79-29.85-17.51-9.15-40.13-18.5-67.87-28.05-27.74-9.55-65.8-20.89-114.2-34.03l-59.02-16.12c-74.87-20.39-130.67-37.02-168.08-50.04l-141.98,142.24c12.22,23.33,27.19,45.74,45.06,67.18,27.93,32.64,63.64,62.98,107.11,91.03Z"/>
    <path fill="#A5E029" d="M1037.69,339.09v77.42h-20.66c-5.17-14.35-10.56-27.64-16.02-40.68l-105.96,106.16c21.18,7.01,39.13,13.65,53.52,19.88,35.8,15.52,66.29,36.02,91.48,61.48,19.67,18.71,34.91,40.59,45.74,65.66,10.82,25.07,16.23,52.14,16.23,81.18s-6.1,57.41-18.3,86.26c-12.2,28.86-29.51,54.23-51.94,76.11-1.63,1.69-3.29,3.36-4.96,5,4.56,4.02,8.97,8.16,13.23,12.46,19.67,18.71,34.91,40.59,45.74,65.66,10.82,25.07,16.23,52.14,16.23,81.18s-6.1,57.41-18.3,86.26c-12.2,28.86-29.51,54.23-51.94,76.11-29.12,30.25-65.02,52.93-107.71,68.05-42.69,15.12-91.38,22.69-146.07,22.69-38.17,0-74.07-3.88-107.71-11.64-33.64-7.76-74.66-21.98-123.05-42.68-31.48-12.73-55.47-21.39-72-25.97-16.53-4.57-32.07-6.86-46.62-6.86-27.94,0-51.64,7.46-71.12,22.38-19.48,14.92-32.37,36.11-38.66,63.57h-20.66v-208.82L0,1378.72h1376.15V0l-338.46,339.09Z"/>
    <path fill="#A5E029" d="M318.86,903.17h-20.66v176.8l57.63-57.74c-19.52-37.28-31.89-76.96-36.97-119.06Z"/>
    <path fill="#A5E029" d="M552.86,715.73c-28.92-8.75-52.52-17.7-70.82-26.86-18.3-9.15-32.37-18.7-42.2-28.65-21.25-20.29-31.87-44.37-31.87-72.23,0-14.72,3.73-30.04,11.21-45.96,2.63-5.6,5.6-11,8.86-16.21,13.95,6.35,29.48,12.69,46.61,19.04,35.41,13.93,99.15,33.43,191.22,58.5l59.02,16.12c9.09,2.47,17.45,4.8,25.81,7.14l144.35-144.62c-31.54-10.43-70.44-21.7-117.04-33.84l-46.03-11.94-28.92-7.16c-5.12-.79-14.75-3.37-28.92-7.76-51.93-12.73-92.36-23.48-121.28-32.23-28.92-8.75-52.52-17.7-70.82-26.86-18.3-9.15-32.37-18.7-42.2-28.65-21.25-20.29-31.87-44.37-31.87-72.23,0-14.72,3.73-30.04,11.21-45.96,7.47-15.91,17.5-30.24,30.1-42.98,17.71-17.91,39.34-31.43,64.92-40.59,25.57-9.15,54.68-13.73,87.35-13.73,43.67,0,86.85,5.88,129.54,17.61,42.68,11.74,81.24,27.86,115.67,48.35,34.42,20.5,63.05,44.28,85.87,71.33,24.91,30.56,47.65,70.99,68.38,120.49l36.68-36.74v-208.51h-20.66c-13.38,45.77-35.41,68.65-66.1,68.65-12.2,0-35.22-8.55-69.05-25.67-96.4-50.53-189.45-75.81-279.15-75.81-59.41,0-113.52,10.35-162.3,31.04-48.79,20.7-86.76,49.45-113.9,86.26-27.15,36.82-40.72,78.3-40.72,124.46,0,38.2,12.19,73.23,36.59,105.06,14.4,19.76,31.1,36.5,50.12,50.22-17.76,13.84-33.11,29.47-45.99,46.94-27.15,36.81-40.72,78.3-40.72,124.46,0,38.2,12.19,73.23,36.59,105.06,16.53,22.69,36.09,41.39,58.72,56.11,22.62,14.73,53.8,29.46,93.54,44.18,6.61,2.6,14.55,5.47,23.14,8.46l140.66-140.92c-35.12-8.92-63.69-16.7-85.6-23.34Z"/>
  </g>
</svg>
