<?xml version="1.0" encoding="UTF-8"?>
<svg id="Capa_2" data-name="Capa 2" xmlns="http://www.w3.org/2000/svg" viewBox="0 0 4632.58 1620.31">
  <defs>
    <style>
      .cls-1 {
        fill: #fff;
      }
    </style>
  </defs>
  <g id="Capa_1-2" data-name="Capa 1">
    <g>
      <g>
        <path class="cls-1" d="M1814.76,1084.7c-5.41-2.89-8.11-9.62-8.11-20.21,0-17.56.9-35.96,2.7-55.21.25-5.53,1.67-8.3,4.25-8.3,2.83,0,4.25,1.8,4.25,5.41,0,8.18.51,14.68,1.54,19.49,3.86,18.04,14.03,31.76,30.5,41.14,14.15,8.18,31.53,12.27,52.13,12.27,25.23,0,45.43-7.45,60.62-22.37,13.13-12.99,19.69-28.75,19.69-47.27,0-17.56-4.77-33.08-14.29-46.55-8.75-12.75-25.48-28.63-50.2-47.63l-25.1-19.13c-48.65-37.53-72.98-75.42-72.98-113.67,0-28.15,10.43-50.88,31.28-68.2,21.1-17.32,49.29-25.98,84.56-25.98,18.53,0,35.91,1.69,52.13,5.05,9.52,1.93,16.09,2.89,19.69,2.89,3.86,0,5.79,1.21,5.79,3.61,0-1.92-.39,3.13-1.16,15.16-.77,12.27-1.16,25.62-1.16,40.06,0,8.18-1.29,12.27-3.86,12.27s-4.12-2.28-4.63-6.86c-.77-10.58-3.22-19.36-7.34-26.34-11.84-18.28-35.14-27.43-69.89-27.43-19.83,0-36.04,5.3-48.65,15.88-13.39,11.31-20.08,26.23-20.08,44.75,0,14.92,4.63,28.39,13.9,40.42,9.27,12.27,27.28,28.03,54.06,47.27l15.83,11.55c31.66,23.34,53.54,44.75,65.64,64.24,10.81,17.08,16.22,36.69,16.22,58.82,0,37.05-15.83,66.04-47.49,86.97-22.91,14.67-51.1,22.01-84.56,22.01-29.35,0-54.44-4.69-75.3-14.08Z"/>
        <path class="cls-1" d="M2234.32,708.67c5.15-13.47,9.27-20.21,12.36-20.21,2.83,0,6.95,6.26,12.36,18.77,67.44,164.8,110.95,269.93,130.51,315.4,14.93,34.41,30.89,53.77,47.88,58.1,18.79,6.74,28.19,8.9,28.19,6.5,0,2.17-1.8,3.48-5.4,3.97-2.58.24-12.74.36-30.51.36-53.28,0-79.93-1.69-79.93-5.05,0-.96,1.41-2.28,4.25-3.97,2.83-1.44,4.25-3.85,4.25-7.22,0-2.17-.52-4.33-1.55-6.5l-51.74-128.83c-1.29-1.92-2.96-2.89-5.02-2.89h-120.47c-2.58,0-4.51,1.33-5.79,3.97l-33.59,92.74c-5.15,13.71-7.72,24.9-7.72,33.56,0,11.07,7.08,16.6,21.24,16.6h5.79c3.6,0,5.41,1.08,5.41,3.25,0,2.64-2.84,3.97-8.5,3.97h-106.96c-6.95,0-10.43-1.33-10.43-3.97,0-2.17,1.68-3.25,5.02-3.25,18.02,0,31.79-4.33,41.32-12.99,7.72-6.73,15.06-19.13,22.01-37.17l127.04-325.14ZM2292.62,917.98c1.54,0,2.32-.48,2.32-1.44s-.13-1.68-.39-2.17l-52.9-141.1c-1.54-3.85-3.09-5.77-4.63-5.77s-2.84,1.93-3.86,5.77l-49.42,141.1c-.26.48-.39,1.08-.39,1.8,0,1.21.77,1.8,2.32,1.8h106.96Z"/>
        <path class="cls-1" d="M2534.87,1020.11c.51,21.17,2.44,36.09,5.79,44.75,3.09,8.66,8.5,13.96,16.22,15.88,7.72,2.17,16.99,3.25,27.8,3.25,3.09,0,4.63,1.08,4.63,3.25,0,2.64-3.35,3.97-10.04,3.97h-113.14c-5.92,0-8.88-1.33-8.88-3.97,0-2.17,1.41-3.25,4.25-3.25,9.01,0,16.73-1.08,23.17-3.25,6.69-1.68,11.2-7.22,13.51-16.6,2.06-8.66,3.09-25.26,3.09-49.8l.77-299.88c0-17.32,2.06-25.98,6.18-25.98,1.03,0,7.46,5.54,19.31,16.6,7.98,8.42,67.31,68.33,178.01,179.71,20.85,20.69,48.01,48.12,81.47,82.28,30.89,31.76,48.52,49.8,52.9,54.13l-5.79-265.96c-.52-17.32-2.06-29.35-4.63-36.09-3.09-6.97-8.88-11.42-17.38-13.35-9.01-1.92-18.15-2.89-27.42-2.89-3.09,0-4.63-1.2-4.63-3.61s3.73-3.61,11.2-3.61h105.8c6.69,0,10.04,1.21,10.04,3.61s-1.93,3.61-5.79,3.61c-4.63,0-9.14.6-13.52,1.8-8.75,1.69-14.55,6.02-17.38,12.99-2.32,5.77-3.47,16.96-3.47,33.56l-1.16,306.74c0,24.78-1.68,37.17-5.02,37.17s-16.99-11.19-40.93-33.56c-23.17-20.21-71.82-67.48-145.96-141.82-29.35-29.59-78.13-79.63-146.34-150.12l7.34,250.44Z"/>
        <path class="cls-1" d="M3116.17,939.63c0,61.11.9,99,2.7,113.67,2.32,17.32,9.65,26.83,22.01,28.51,10.29,1.44,18.66,2.17,25.1,2.17,3.09,0,4.63,1.08,4.63,3.25,0,2.64-3.09,3.97-9.27,3.97-12.36,0-27.29-.24-44.79-.72l-23.94-.72-22.01.72c-15.19.48-26.13.72-32.82.72-5.92,0-8.88-1.33-8.88-3.97,0-2.17,1.41-3.25,4.25-3.25,4.63,0,10.29-.72,16.99-2.17,8.24-1.68,13.64-11.19,16.22-28.51,1.8-14.67,2.7-52.56,2.7-113.67v-221.21l-82.63.72c-30.64.72-49.68,6.38-57.15,16.96-4.38,6.26-7.6,11.67-9.65,16.24-1.29,3.37-3.22,5.05-5.79,5.05-1.8,0-2.7-1.56-2.7-4.69,0-5.53,4.11-23.69,12.36-54.49,2.57-6.5,4.5-9.74,5.79-9.74.51,0,3.22.85,8.11,2.53,4.89,1.93,10.29,3.13,16.22,3.61,17.24,1.93,32.05,2.89,44.41,2.89h210.06c16.73,0,29.99-.96,39.77-2.89,12.61-1.68,17.76-2.53,15.44-2.53,2.06,0,3.09,2.05,3.09,6.13,0,6.02-.26,16.84-.77,32.48l-1.16,25.26c0,4.57-1.29,6.86-3.86,6.86-2.32,0-3.86-3.01-4.63-9.02l-.39-5.77c-1.8-18.28-24.71-27.91-68.73-28.87l-70.66-.72v221.21Z"/>
        <path class="cls-1" d="M3332.6,758.83c41.44-46.91,97.43-70.37,167.97-70.37,64.35,0,116.74,17.45,157.16,52.33,41.95,36.09,62.94,84.08,62.94,143.99s-20.34,110.19-61.01,150.84c-42.22,42.1-96.41,63.15-162.56,63.15-70.8,0-126.14-22.49-166.04-67.48-33.98-38.49-50.97-84.56-50.97-138.21,0-49.8,17.5-94.55,52.51-134.24ZM3385.11,1024.44c33.46,36.33,75.93,54.49,127.42,54.49,36.81,0,68.86-10.94,96.15-32.84,38.87-31.03,58.31-79.99,58.31-146.87,0-59.91-17.38-107.78-52.13-143.63-31.92-32.96-71.31-49.44-118.16-49.44s-87.53,14.43-116.61,43.3c-31.15,30.56-46.72,73.5-46.72,128.83,0,59.91,17.24,108.62,51.74,146.15Z"/>
        <path class="cls-1" d="M3777.1,1084.7c-5.41-2.89-8.11-9.62-8.11-20.21,0-17.56.9-35.96,2.7-55.21.25-5.53,1.67-8.3,4.25-8.3,2.83,0,4.25,1.8,4.25,5.41,0,8.18.51,14.68,1.55,19.49,3.86,18.04,14.03,31.76,30.5,41.14,14.15,8.18,31.53,12.27,52.13,12.27,25.23,0,45.43-7.45,60.62-22.37,13.13-12.99,19.69-28.75,19.69-47.27,0-17.56-4.77-33.08-14.29-46.55-8.75-12.75-25.48-28.63-50.2-47.63l-25.1-19.13c-48.65-37.53-72.98-75.42-72.98-113.67,0-28.15,10.43-50.88,31.28-68.2,21.1-17.32,49.29-25.98,84.56-25.98,18.53,0,35.91,1.69,52.13,5.05,9.52,1.93,16.08,2.89,19.69,2.89,3.86,0,5.79,1.21,5.79,3.61,0-1.92-.39,3.13-1.16,15.16-.77,12.27-1.16,25.62-1.16,40.06,0,8.18-1.29,12.27-3.86,12.27s-4.12-2.28-4.63-6.86c-.77-10.58-3.22-19.36-7.34-26.34-11.84-18.28-35.14-27.43-69.89-27.43-19.83,0-36.04,5.3-48.65,15.88-13.39,11.31-20.08,26.23-20.08,44.75,0,14.92,4.63,28.39,13.9,40.42,9.27,12.27,27.28,28.03,54.06,47.27l15.83,11.55c31.66,23.34,53.54,44.75,65.64,64.24,10.81,17.08,16.22,36.69,16.22,58.82,0,37.05-15.83,66.04-47.49,86.97-22.91,14.67-51.1,22.01-84.56,22.01-29.35,0-54.44-4.69-75.3-14.08Z"/>
        <path class="cls-1" d="M4206.68,1058c-20.85-22.37-31.28-47.39-31.28-75.06,0-52.69,28.57-94.67,85.72-125.94-18.28-24.54-27.42-48.59-27.42-72.17s10.68-44.39,32.05-63.87c23.94-21.65,53.41-32.48,88.42-32.48,28.57,0,51.1,4.33,67.57,12.99,4.89,2.65,7.34,6.98,7.34,12.99,0,29.59-1.29,49.68-3.86,60.27-1.29,6.02-3.09,9.02-5.41,9.02s-3.48-3.37-3.48-10.1c0-18.28-5.79-33.08-17.38-44.39-15.96-15.39-34.62-23.1-55.99-23.1-19.05,0-35.14,5.29-48.27,15.88-15.19,12.51-22.78,30.08-22.78,52.69,0,19.01,7.46,38.97,22.4,59.9,11.33,16.12,33.33,40.78,66.03,73.98,28.06,28.87,63.33,60.15,105.8,93.83,19.05-23.82,28.57-52.8,28.57-86.97,0-10.34-3.61-18.88-10.81-25.62-5.66-5.53-14.8-8.3-27.42-8.3-4.38,0-6.56-1.2-6.56-3.61s2.96-3.61,8.88-3.61c21.62,0,44.02,1.21,67.19,3.61,6.69.96,10.04,4.45,10.04,10.46,0,40.42-18.41,81.56-55.22,123.42,26,20.69,51.74,38.02,77.23,51.97,24.45,13.48,46.59,20.21,66.41,20.21,5.41,0,8.11,1.21,8.11,3.61s-3.22,3.61-9.65,3.61h-54.83c-21.37,0-38.23-2.52-50.58-7.58-14.16-5.53-36.17-19.36-66.03-41.5-40.42,37.77-87.01,56.66-139.78,56.66-44.54,0-79.54-13.59-105.03-40.78ZM4437.2,1032.37c-37.07-28.38-70.92-57.98-101.55-88.77-29.6-29.11-51.61-53.53-66.03-73.26-33.47,20.93-50.2,50.28-50.2,88.05,0,32.48,10.81,59.43,32.43,80.84,21.36,21.17,47.88,31.76,79.54,31.76,42.99,0,78.25-12.87,105.8-38.61Z"/>
        <path class="cls-1" d="M1814.76,1606.24c-5.41-2.89-8.11-9.62-8.11-20.21,0-17.56.9-35.96,2.7-55.21.25-5.53,1.67-8.3,4.25-8.3,2.83,0,4.25,1.8,4.25,5.41,0,8.18.51,14.68,1.54,19.49,3.86,18.04,14.03,31.76,30.5,41.14,14.15,8.18,31.53,12.27,52.13,12.27,25.23,0,45.43-7.45,60.62-22.37,13.13-12.99,19.69-28.75,19.69-47.27,0-17.56-4.77-33.08-14.29-46.55-8.75-12.75-25.48-28.63-50.2-47.63l-25.1-19.13c-48.65-37.53-72.98-75.42-72.98-113.67,0-28.15,10.43-50.88,31.28-68.2,21.1-17.32,49.29-25.98,84.56-25.98,18.53,0,35.91,1.68,52.13,5.05,9.52,1.93,16.09,2.89,19.69,2.89,3.86,0,5.79,1.21,5.79,3.61,0-1.92-.39,3.13-1.16,15.16-.77,12.27-1.16,25.62-1.16,40.06,0,8.18-1.29,12.27-3.86,12.27s-4.12-2.28-4.63-6.86c-.77-10.58-3.22-19.36-7.34-26.34-11.84-18.28-35.14-27.43-69.89-27.43-19.83,0-36.04,5.29-48.65,15.88-13.39,11.31-20.08,26.23-20.08,44.75,0,14.92,4.63,28.39,13.9,40.42,9.27,12.27,27.28,28.03,54.06,47.27l15.83,11.55c31.66,23.34,53.54,44.75,65.64,64.24,10.81,17.08,16.22,36.69,16.22,58.82,0,37.05-15.83,66.04-47.49,86.97-22.91,14.67-51.1,22.01-84.56,22.01-29.35,0-54.44-4.69-75.3-14.08Z"/>
        <path class="cls-1" d="M2251.72,1230.21c5.15-13.47,9.27-20.21,12.36-20.21,2.83,0,6.95,6.26,12.36,18.77,67.44,164.8,110.95,269.93,130.51,315.4,14.93,34.41,30.89,53.77,47.88,58.1,18.79,6.74,28.19,8.9,28.19,6.5,0,2.17-1.8,3.48-5.4,3.97-2.58.24-12.74.36-30.51.36-53.28,0-79.93-1.69-79.93-5.05,0-.96,1.41-2.28,4.25-3.97,2.83-1.44,4.25-3.85,4.25-7.22,0-2.17-.52-4.33-1.55-6.5l-51.74-128.83c-1.29-1.92-2.96-2.89-5.02-2.89h-120.47c-2.58,0-4.51,1.33-5.79,3.97l-33.59,92.74c-5.15,13.71-7.72,24.9-7.72,33.56,0,11.07,7.08,16.6,21.24,16.6h5.79c3.6,0,5.41,1.08,5.41,3.25,0,2.64-2.84,3.97-8.5,3.97h-106.96c-6.95,0-10.43-1.33-10.43-3.97,0-2.17,1.68-3.25,5.02-3.25,18.02,0,31.79-4.33,41.32-12.99,7.72-6.73,15.06-19.13,22.01-37.17l127.04-325.14ZM2310.02,1439.51c1.54,0,2.32-.48,2.32-1.44s-.13-1.68-.39-2.17l-52.9-141.1c-1.54-3.85-3.09-5.78-4.63-5.78s-2.84,1.93-3.86,5.78l-49.42,141.1c-.26.48-.39,1.08-.39,1.8,0,1.21.77,1.8,2.32,1.8h106.96Z"/>
        <path class="cls-1" d="M2521.38,1369.14c0-64.23-.39-102-1.16-113.31-.52-9.38-2.32-16.11-5.41-20.21-3.35-4.57-9.53-7.7-18.53-9.38-5.15-1.2-11.58-1.8-19.31-1.8-2.84,0-4.25-.96-4.25-2.89,0-2.89,2.96-4.33,8.88-4.33,10.04,0,23.29.24,39.77.72l24.71,1.08,23.17-1.08c14.93-.48,25.61-.72,32.05-.72s9.27,1.44,9.27,4.33c0,1.93-1.55,2.89-4.63,2.89-2.06,0-6.7.6-13.9,1.8-12.88,1.93-19.83,11.79-20.85,29.59-.77,11.31-1.16,49.08-1.16,113.31v73.26c0,60.87,14.03,103.93,42.09,129.19,21.88,19.25,50.06,28.87,84.56,28.87s65.26-12.63,87.65-37.89c21.88-25.02,32.82-67.72,32.82-128.11v-65.32c0-64.23-.39-102-1.16-113.31-.52-9.14-2.45-15.88-5.79-20.21-3.35-4.57-9.53-7.7-18.54-9.38-4.63-1.2-10.94-1.8-18.92-1.8-3.09,0-4.63-.96-4.63-2.89,0-2.89,3.09-4.33,9.27-4.33,10.29,0,22.91.24,37.84.72l21.24,1.08,18.92-1.08c12.1-.48,21.49-.72,28.19-.72,5.92,0,8.88,1.44,8.88,4.33,0,1.93-1.42,2.89-4.25,2.89-1.8,0-6.56.6-14.29,1.8-12.62,2.65-19.44,12.51-20.46,29.59-.77,11.31-1.16,49.08-1.16,113.31v55.94c0,75.78-17.12,127.87-51.36,156.26-31.41,25.98-69.89,38.97-115.45,38.97-48.91,0-87.4-12.39-115.45-37.17-32.43-29.11-48.65-75.06-48.65-137.85v-76.15Z"/>
        <path class="cls-1" d="M2995.88,1563.65c-45.05-38.01-67.57-89.61-67.57-154.81,0-56.29,20.85-103.93,62.55-142.9,39.9-37.29,96.79-55.94,170.67-55.94,30.37,0,57.53,2.05,81.47,6.13,27.28,4.57,46.33,7.22,57.15,7.94,4.63.24,6.95,2.17,6.95,5.77l-.77,9.02c-.77,6.5-1.42,13.23-1.93,20.21-.52,6.74-.9,16.96-1.16,30.67l-.39,23.46c-.77,7.22-2.45,10.83-5.02,10.83-3.09,0-4.63-3.61-4.63-10.83,0-23.33-7.86-41.14-23.55-53.41-24.2-19.97-61.53-29.95-111.98-29.95-57.41,0-100.27,12.75-128.58,38.25-33.73,30.08-50.58,75.55-50.58,136.41,0,51.73,18.66,96.12,55.99,133.16,39.13,38.97,87.91,58.46,146.34,58.46,46.59,0,79.02-8.78,97.3-26.34,9.78-9.62,16.73-24.18,20.85-43.67,1.03-5.29,2.83-7.94,5.41-7.94s3.86,2.65,3.86,7.94c0,19.25-4.12,41.5-12.36,66.76-2.32,7.22-7.08,12.27-14.29,15.16-21.11,8.17-54.7,12.27-100.78,12.27-78.26,0-139.91-18.88-184.96-56.66Z"/>
        <path class="cls-1" d="M3427.68,1369.14c0-64.23-.39-102-1.16-113.31-.52-9.38-2.32-16.11-5.41-20.21-3.35-4.57-9.53-7.7-18.53-9.38-5.15-1.2-11.46-1.8-18.92-1.8-3.09,0-4.63-.96-4.63-2.89,0-2.89,2.96-4.33,8.88-4.33,18.79,0,32.3.24,40.54.72l22.78,1.08c76.97,0,119.7-.24,128.2-.72,10.81-.24,18.79-1.08,23.94-2.53,7.2-1.68,9.91-2.53,8.11-2.53,1.28,0,1.93,1.57,1.93,4.69,0,.72-.52,3.37-1.55,7.94-1.29,5.54-2.19,11.07-2.7,16.6-.26,1.44-.65,6.98-1.16,16.6-.52,9.63-1.03,15.52-1.54,17.68-1.03,3.85-2.45,5.77-4.25,5.77-2.84,0-4.25-2.16-4.25-6.49,0-7.22-1.16-13.59-3.48-19.13-4.38-9.38-17.63-15.28-39.77-17.68-8.24-.96-33.73-1.44-76.45-1.44-2.32,0-3.48,1.69-3.48,5.05v144.35c0,3.61,1.16,5.41,3.48,5.41,50.71,0,80.31-.36,88.81-1.08,13.9-1.2,22.65-3.61,26.26-7.22,4.11-4.57,6.95-6.86,8.49-6.86,1.8,0,2.7,1.33,2.7,3.97,0,.72-.52,3.85-1.55,9.38-1.29,6.74-2.19,13.48-2.7,20.21-1.55,13.96-2.32,25.02-2.32,33.2,0,6.74-1.29,10.1-3.86,10.1s-3.86-1.56-3.86-4.69c0-6.97-.77-12.75-2.32-17.32-3.35-10.58-13.13-16.72-29.35-18.4-17.51-1.68-44.15-2.53-79.93-2.53-2.58,0-3.86,1.21-3.86,3.61v135.69c.77,18.29,4.89,29.95,12.36,35,7.97,5.3,25.48,7.94,52.51,7.94s44.14-1.92,53.67-5.78c13.13-5.05,21.62-17.68,25.48-37.89.77-5.05,2.44-7.58,5.02-7.58,2.06,0,3.09,2.53,3.09,7.58,0,16.84-2.45,33.8-7.34,50.88-1.8,6.5-4.51,10.47-8.11,11.91-2.84,1.2-10.17,1.8-22.01,1.8-26.26,0-57.79-.6-94.6-1.8-19.31-.96-33.85-1.44-43.63-1.44-7.21,0-14.67.12-22.4.36l-32.43,1.08c-5.92,0-8.88-1.33-8.88-3.97,0-2.17,1.41-3.25,4.25-3.25,4.63,0,10.29-.72,16.99-2.17,8.24-1.68,13.64-11.19,16.22-28.51,1.8-14.67,2.7-52.56,2.7-113.67v-92.02Z"/>
        <path class="cls-1" d="M3759.02,1369.14c0-64.23-.39-102-1.16-113.31-.52-9.38-2.32-16.11-5.41-20.21-3.35-4.57-9.53-7.7-18.53-9.38-5.15-1.2-11.46-1.8-18.92-1.8-3.09,0-4.63-.96-4.63-2.89,0-2.89,2.96-4.33,8.88-4.33,10.29,0,23.68.24,40.16.72l23.17,1.08,27.8-1.08c18.53-.48,34.49-.72,47.88-.72,49.42,0,85.46,1.93,108.12,5.77,48.91,8.18,87.65,26.11,116.23,53.77,36.3,35.37,54.44,79.75,54.44,133.16,0,58.22-20.21,107.42-60.62,147.6-40.68,39.94-97.18,59.9-169.51,59.9-19.57,0-45.56-.96-78-2.89-29.09-2.17-44.54-3.25-46.34-3.25-7.21,0-14.67.12-22.4.36l-32.43,1.08c-5.92,0-8.88-1.33-8.88-3.97,0-2.17,1.41-3.25,4.25-3.25,4.63,0,10.29-.72,16.99-2.17,8.24-1.68,13.64-11.19,16.22-28.51,1.8-14.67,2.7-52.56,2.7-113.67v-92.02ZM3806.12,1425.44c0,65.68.39,103.57,1.16,113.67.77,22.14,2.83,35.37,6.18,39.7,10.04,13.96,41.7,20.93,94.99,20.93s98.98-16.24,133.22-48.72c29.86-27.18,44.79-68.8,44.79-124.86,0-52.92-17.89-96.95-53.67-132.08-40.16-39.45-101.17-59.18-183.03-59.18-19.05,0-31.15,1.33-36.3,3.97-4.63,1.68-6.95,5.18-6.95,10.47-.26,11.79-.39,48.84-.39,111.15v64.96Z"/>
        <path class="cls-1" d="M4239.99,1280.37c41.44-46.91,97.43-70.37,167.97-70.37,64.35,0,116.74,17.44,157.16,52.33,41.95,36.09,62.94,84.08,62.94,143.99s-20.34,110.19-61.01,150.84c-42.22,42.1-96.41,63.15-162.56,63.15-70.8,0-126.14-22.49-166.04-67.48-33.98-38.49-50.97-84.56-50.97-138.21,0-49.8,17.5-94.55,52.51-134.24ZM4292.5,1545.97c33.46,36.33,75.93,54.49,127.42,54.49,36.81,0,68.86-10.94,96.15-32.84,38.87-31.03,58.31-79.99,58.31-146.87,0-59.9-17.38-107.78-52.13-143.63-31.92-32.96-71.31-49.44-118.16-49.44s-87.53,14.43-116.61,43.3c-31.15,30.56-46.72,73.5-46.72,128.83,0,59.9,17.24,108.62,51.74,146.15Z"/>
      </g>
      <g>
        <path class="cls-1" d="M788.67,875.03c16.57,5.13,27.85,8.15,33.83,9.08l33.83,8.38,53.85,13.97c91.14,23.74,157.64,44.69,199.53,62.85,11.13,4.82,21.8,10.07,32.05,15.72,7.61-17.75,11.44-36.78,11.44-57.1,0-35.37-14.05-67.27-42.12-95.67-12.89-12.57-29.58-24.2-50.06-34.92-20.49-10.7-46.95-21.65-79.4-32.82-26.36-9.07-61.11-19.61-103.41-31.45l-131.31,131.56c13.15,3.34,27.01,6.8,41.74,10.41Z"/>
        <path class="cls-1" d="M594.31,1380.98c50.86,32.82,104.14,58.31,159.84,76.46,55.69,18.16,108.63,27.24,158.8,27.24,44.64,0,85.5-7.44,122.55-22.35,37.05-14.89,65.94-35.62,86.65-62.15,20.71-26.54,31.07-56.56,31.07-90.09,0-35.37-14.05-67.27-42.12-95.67-12.89-12.57-29.58-24.2-50.06-34.92-20.49-10.7-46.95-21.65-79.4-32.82-32.45-11.18-76.98-24.44-133.6-39.81l-69.04-18.86c-87.59-23.85-152.87-43.31-196.63-58.54l-166.1,166.4c14.29,27.29,31.81,53.51,52.72,78.59,32.68,38.18,74.45,73.68,125.31,106.5Z"/>
        <path class="cls-1" d="M1213.97,396.7v90.57h-24.17c-6.04-16.78-12.36-32.34-18.74-47.59l-123.96,124.19c24.78,8.2,45.78,15.96,62.61,23.26,41.88,18.16,77.56,42.14,107.02,71.93,23.01,21.89,40.84,47.49,53.51,76.82,12.66,29.33,18.99,60.99,18.99,94.97s-7.14,67.16-21.4,100.91c-14.27,33.76-34.52,63.44-60.76,89.04-1.91,1.98-3.85,3.93-5.81,5.85,5.33,4.7,10.5,9.55,15.47,14.58,23.01,21.89,40.84,47.49,53.51,76.82,12.66,29.33,18.99,61,18.99,94.98s-7.14,67.16-21.4,100.91c-14.27,33.76-34.52,63.44-60.76,89.04-34.07,35.39-76.07,61.92-126,79.61-49.95,17.69-106.91,26.54-170.88,26.54-44.65,0-86.65-4.54-126-13.62-39.36-9.08-87.34-25.72-143.96-49.93-36.83-14.9-64.9-25.02-84.23-30.38-19.33-5.35-37.52-8.03-54.54-8.03-32.69,0-60.41,8.73-83.2,26.19-22.78,17.46-37.87,42.25-45.22,74.37h-24.17v-244.3L0,1612.94h1609.93V0l-395.96,396.7Z"/>
        <path class="cls-1" d="M373.03,1056.6h-24.17v206.83l67.42-67.54c-22.84-43.62-37.3-90.03-43.25-139.29Z"/>
        <path class="cls-1" d="M646.78,837.32c-33.83-10.23-61.45-20.71-82.85-31.43-21.4-10.7-37.86-21.88-49.37-33.52-24.86-23.74-37.28-51.91-37.28-84.5,0-17.22,4.37-35.15,13.12-53.77,3.08-6.56,6.55-12.87,10.37-18.96,16.32,7.43,34.49,14.85,54.53,22.27,41.43,16.3,115.99,39.11,223.7,68.44l69.04,18.86c10.63,2.88,20.41,5.62,30.19,8.36l168.88-169.19c-36.89-12.2-82.41-25.39-136.93-39.59l-53.85-13.97-33.83-8.38c-5.99-.93-17.26-3.95-33.83-9.08-60.76-14.89-108.05-27.46-141.88-37.71-33.83-10.23-61.45-20.71-82.85-31.43-21.4-10.71-37.86-21.88-49.37-33.52-24.86-23.74-37.28-51.91-37.28-84.5,0-17.22,4.37-35.15,13.12-53.77,8.74-18.62,20.48-35.38,35.21-50.28,20.71-20.95,46.02-36.77,75.95-47.49,29.91-10.7,63.97-16.06,102.18-16.06,51.09,0,101.6,6.88,151.55,20.6,49.94,13.74,95.04,32.59,135.32,56.57,40.27,23.98,73.76,51.8,100.46,83.45,29.15,35.75,55.74,83.05,79.99,140.96l42.91-42.99v-243.93h-24.17c-15.65,53.54-41.43,80.31-77.33,80.31-14.27,0-41.2-10.01-80.78-30.03-112.78-59.12-221.63-88.69-326.58-88.69-69.51,0-132.8,12.11-189.87,36.31-57.08,24.21-101.49,57.85-133.25,100.91-31.76,43.07-47.64,91.6-47.64,145.6,0,44.69,14.26,85.67,42.81,122.91,16.84,23.12,36.38,42.7,58.64,58.75-20.77,16.19-38.73,34.48-53.81,54.91-31.76,43.07-47.64,91.6-47.64,145.6,0,44.69,14.26,85.67,42.81,122.91,19.33,26.54,42.23,48.43,68.7,65.64,26.46,17.23,62.94,34.46,109.43,51.68,7.74,3.04,17.02,6.39,27.07,9.89l164.55-164.86c-41.08-10.43-74.51-19.54-100.14-27.3Z"/>
      </g>
    </g>
  </g>
</svg>