<?xml version="1.0" encoding="UTF-8"?>
<svg id="Capa_2" data-name="Capa 2" xmlns="http://www.w3.org/2000/svg" viewBox="0 0 3018.86 4444.45">
  <defs>
    <style>
      .cls-1 {
        fill: #fff;
      }
    </style>
  </defs>
  <g id="Capa_1-2" data-name="Capa 1">
    <g>
      <g>
        <path class="cls-1" d="M1478.87,1640.81c31.07,9.62,52.21,15.29,63.44,17.02l63.44,15.71,100.98,26.19c170.9,44.52,295.61,83.81,374.16,117.85,20.87,9.05,40.88,18.89,60.11,29.48,14.27-33.29,21.46-68.97,21.46-107.08,0-66.33-26.34-126.14-78.97-179.4-24.17-23.57-55.47-45.38-93.86-65.47-38.41-20.07-88.04-40.59-148.89-61.55-49.57-17.07-114.19-36.75-193.84-59.03l-246.3,246.76c24.62,6.25,50.7,12.75,78.28,19.51Z"/>
        <path class="cls-1" d="M2276.38,743.87v169.84h-45.31c-11.27-31.3-22.86-61.16-34.76-89.61l-232.76,233.2c46.59,15.41,85.72,29.96,117.34,43.67,78.53,34.05,145.43,79.02,200.67,134.88,43.15,41.04,76.59,89.04,100.34,144.04,23.73,55,35.6,114.38,35.6,178.09s-13.39,125.94-40.13,189.22c-26.76,63.31-64.73,118.96-113.93,166.96-3.58,3.72-7.22,7.36-10.89,10.97,9.99,8.81,19.69,17.91,29.01,27.34,43.15,41.05,76.59,89.04,100.34,144.04,23.73,55,35.6,114.38,35.6,178.09s-13.39,125.94-40.13,189.22c-26.76,63.31-64.73,118.96-113.93,166.96-63.88,66.36-142.64,116.12-236.28,149.28-93.66,33.17-200.47,49.76-320.43,49.76-83.73,0-162.48-8.51-236.28-25.54-73.8-17.02-163.78-48.23-269.94-93.63-69.06-27.93-121.7-46.92-157.95-56.97-36.25-10.03-70.36-15.05-102.28-15.05-61.29,0-113.28,16.37-156.01,49.1-42.72,32.74-71,79.22-84.8,139.46h-45.31v-458.09L0,3024.51h3018.86V0l-742.48,743.87Z"/>
        <path class="cls-1" d="M1114.42,2589.54c95.36,61.54,195.27,109.34,299.72,143.38,104.42,34.05,203.69,51.07,297.77,51.07,83.71,0,160.32-13.95,229.8-41.9,69.47-27.93,123.64-66.78,162.48-116.54,38.84-49.76,58.26-106.07,58.26-168.93,0-66.33-26.34-126.14-78.97-179.4-24.17-23.57-55.47-45.38-93.86-65.48-38.41-20.07-88.04-40.59-148.89-61.54-60.85-20.96-144.35-45.84-250.52-74.64l-129.47-35.36c-163.81-44.61-286.74-81.16-368.79-109.69l-311.46,312.05c26.79,51.16,59.76,100.26,98.95,147.28,61.27,71.6,139.6,138.15,234.98,199.7Z"/>
        <path class="cls-1" d="M1212.82,1570.1c-63.44-19.19-115.22-38.84-155.36-58.93-40.13-20.07-71-41.02-92.57-62.85-46.61-44.52-69.91-97.33-69.91-158.45,0-32.29,8.19-65.91,24.6-100.83,5.77-12.29,12.28-24.13,19.44-35.55,30.6,13.92,64.67,27.85,102.26,41.77,77.68,30.57,217.5,73.33,419.47,128.33l129.47,35.36c19.67,5.34,38.56,10.54,56.68,15.61l316.66-317.25c-69.13-22.86-154.73-47.58-256.81-74.18l-100.98-26.19-63.44-15.71c-11.23-1.74-32.37-7.41-63.44-17.02-113.93-27.93-202.61-51.5-266.05-70.71-63.44-19.19-115.22-38.84-155.36-58.93-40.13-20.07-71-41.02-92.57-62.85-46.61-44.52-69.91-97.33-69.91-158.45,0-32.29,8.19-65.91,24.6-100.83,16.39-34.91,38.39-66.33,66.03-94.28,38.84-39.28,86.3-68.95,142.41-89.04,56.09-20.07,119.96-30.12,191.61-30.12,95.8,0,190.52,12.89,284.18,38.63,93.64,25.76,178.22,61.12,253.75,106.07,75.52,44.97,138.31,97.13,188.37,156.49,54.73,67.13,104.86,155.13,150.37,263.95l80.08-80.23v-457.41h-45.31c-29.35,100.4-77.68,150.59-145,150.59-26.76,0-77.26-18.76-151.48-56.31-211.48-110.86-415.59-166.31-612.38-166.31-130.34,0-249.02,22.71-356.03,68.09-107.03,45.4-190.32,108.48-249.87,189.22-59.55,80.76-89.33,171.77-89.33,273.03,0,83.81,26.74,160.64,80.27,230.47,31.58,43.35,68.22,80.07,109.96,110.16-38.95,30.36-72.63,64.65-100.89,102.97-59.55,80.76-89.33,171.77-89.33,273.03,0,83.81,26.74,160.64,80.27,230.47,36.25,49.76,79.18,90.81,128.82,123.09,49.62,32.31,118.02,64.62,205.2,96.91,14.68,5.77,31.57,11.99,50.68,18.63l308.63-309.21c-77.09-19.57-139.69-36.64-187.77-51.2Z"/>
        <path class="cls-1" d="M699.48,1981.28h-45.31v387.84l126.33-126.56c-42.84-81.81-69.86-168.89-81.01-261.28Z"/>
      </g>
      <g>
        <g>
          <path class="cls-1" d="M8.68,3588.87c-5.78-3.09-8.68-10.29-8.68-21.62,0-18.79.96-38.48,2.89-59.08.27-5.92,1.79-8.88,4.54-8.88,3.03,0,4.54,1.93,4.54,5.79,0,8.75.55,15.71,1.65,20.85,4.13,19.31,15.01,33.98,32.64,44.02,15.14,8.75,33.74,13.13,55.78,13.13,26.99,0,48.61-7.98,64.87-23.94,14.05-13.9,21.07-30.76,21.07-50.58,0-18.79-5.1-35.39-15.29-49.81-9.37-13.64-27.27-30.63-53.71-50.97l-26.86-20.47c-52.06-40.16-78.09-80.7-78.09-121.63,0-30.12,11.16-54.44,33.47-72.98,22.58-18.53,52.74-27.8,90.48-27.8,19.83,0,38.42,1.8,55.78,5.41,10.19,2.06,17.21,3.09,21.07,3.09,4.13,0,6.2,1.29,6.2,3.86,0-2.06-.41,3.35-1.24,16.22-.83,13.13-1.24,27.42-1.24,42.86,0,8.75-1.38,13.13-4.13,13.13s-4.41-2.44-4.96-7.34c-.83-11.32-3.45-20.72-7.85-28.19-12.67-19.56-37.6-29.35-74.78-29.35-21.21,0-38.57,5.67-52.06,16.99-14.33,12.1-21.48,28.06-21.48,47.88,0,15.96,4.96,30.38,14.87,43.25,9.92,13.13,29.19,29.99,57.84,50.58l16.94,12.36c33.88,24.97,57.29,47.88,70.24,68.73,11.57,18.28,17.35,39.26,17.35,62.94,0,39.65-16.94,70.66-50.82,93.06-24.52,15.7-54.68,23.55-90.48,23.55-31.4,0-58.26-5.02-80.57-15.06Z"/>
          <path class="cls-1" d="M457.6,3186.53c5.51-14.41,9.92-21.62,13.22-21.62,3.03,0,7.44,6.7,13.22,20.08,72.16,176.33,118.71,288.82,139.65,337.48,15.97,36.81,33.05,57.53,51.23,62.17,20.11,7.21,30.16,9.53,30.16,6.95,0,2.32-1.93,3.73-5.78,4.25-2.76.25-13.64.39-32.64.39-57.01,0-85.52-1.8-85.52-5.4,0-1.03,1.51-2.44,4.54-4.25,3.03-1.55,4.54-4.11,4.54-7.72,0-2.32-.55-4.63-1.65-6.95l-55.36-137.85c-1.38-2.06-3.17-3.09-5.37-3.09h-128.91c-2.76,0-4.82,1.42-6.2,4.25l-35.94,99.23c-5.51,14.67-8.26,26.64-8.26,35.91,0,11.84,7.57,17.76,22.72,17.76h6.2c3.85,0,5.78,1.16,5.78,3.47,0,2.83-3.03,4.25-9.09,4.25h-114.44c-7.44,0-11.16-1.42-11.16-4.25,0-2.32,1.79-3.47,5.37-3.47,19.28,0,34.01-4.63,44.21-13.9,8.26-7.2,16.11-20.47,23.55-39.77l135.93-347.9ZM519.98,3410.48c1.65,0,2.48-.51,2.48-1.54s-.14-1.8-.41-2.32l-56.6-150.98c-1.65-4.11-3.31-6.18-4.96-6.18s-3.03,2.06-4.13,6.18l-52.88,150.98c-.28.52-.41,1.16-.41,1.93,0,1.29.83,1.93,2.48,1.93h114.44Z"/>
          <path class="cls-1" d="M779.18,3519.76c.55,22.65,2.61,38.61,6.2,47.88,3.31,9.27,9.09,14.93,17.35,16.99,8.26,2.32,18.18,3.48,29.75,3.48,3.31,0,4.96,1.16,4.96,3.47,0,2.83-3.58,4.25-10.74,4.25h-121.05c-6.34,0-9.5-1.42-9.5-4.25,0-2.32,1.51-3.47,4.54-3.47,9.64,0,17.9-1.16,24.79-3.48,7.16-1.8,11.98-7.72,14.46-17.76,2.2-9.27,3.31-27.03,3.31-53.28l.83-320.87c0-18.53,2.2-27.8,6.61-27.8,1.1,0,7.99,5.92,20.66,17.76,8.53,9.01,72.03,73.11,190.47,192.29,22.31,22.14,51.37,51.49,87.18,88.04,33.05,33.98,51.92,53.28,56.6,57.92l-6.2-284.58c-.55-18.53-2.21-31.4-4.96-38.61-3.31-7.46-9.5-12.22-18.59-14.29-9.64-2.06-19.42-3.09-29.33-3.09-3.31,0-4.96-1.28-4.96-3.86s3.99-3.86,11.98-3.86h113.21c7.16,0,10.74,1.29,10.74,3.86s-2.07,3.86-6.2,3.86c-4.96,0-9.78.65-14.46,1.93-9.37,1.8-15.56,6.44-18.59,13.9-2.48,6.18-3.72,18.15-3.72,35.91l-1.24,328.21c0,26.52-1.79,39.77-5.37,39.77s-18.18-11.97-43.8-35.91c-24.79-21.62-76.85-72.21-156.17-151.75-31.4-31.66-83.6-85.2-156.59-160.63l7.85,267.97Z"/>
          <path class="cls-1" d="M1401.17,3433.65c0,65.39.96,105.93,2.89,121.63,2.48,18.53,10.33,28.71,23.55,30.5,11.01,1.54,19.97,2.32,26.85,2.32,3.31,0,4.96,1.16,4.96,3.47,0,2.83-3.31,4.25-9.92,4.25-13.22,0-29.2-.26-47.93-.77l-25.61-.77-23.55.77c-16.25.51-27.96.77-35.12.77-6.34,0-9.5-1.42-9.5-4.25,0-2.32,1.51-3.47,4.54-3.47,4.96,0,11.01-.77,18.18-2.32,8.81-1.8,14.6-11.97,17.35-30.5,1.92-15.7,2.89-56.24,2.89-121.63v-236.7l-88.42.77c-32.78.77-53.16,6.82-61.15,18.15-4.69,6.7-8.13,12.49-10.33,17.38-1.38,3.61-3.45,5.41-6.2,5.41-1.93,0-2.89-1.67-2.89-5.02,0-5.92,4.4-25.35,13.22-58.31,2.75-6.95,4.82-10.43,6.2-10.43.55,0,3.44.91,8.68,2.7,5.23,2.06,11.01,3.35,17.35,3.86,18.45,2.06,34.29,3.09,47.51,3.09h224.76c17.9,0,32.08-1.03,42.56-3.09,13.49-1.8,19-2.7,16.53-2.7,2.2,0,3.31,2.19,3.31,6.56,0,6.44-.28,18.02-.83,34.75l-1.24,27.03c0,4.89-1.38,7.34-4.13,7.34-2.48,0-4.13-3.22-4.96-9.65l-.41-6.18c-1.93-19.56-26.44-29.86-73.54-30.89l-75.61-.77v236.7Z"/>
          <path class="cls-1" d="M1632.75,3240.2c44.34-50.2,104.25-75.3,179.72-75.3,68.86,0,124.91,18.67,168.16,55.99,44.89,38.61,67.34,89.97,67.34,154.06s-21.76,117.9-65.28,161.4c-45.18,45.05-103.15,67.57-173.94,67.57-75.75,0-134.97-24.07-177.66-72.21-36.36-41.18-54.54-90.48-54.54-147.89,0-53.29,18.73-101.17,56.19-143.64ZM1688.94,3524.39c35.8,38.87,81.25,58.3,136.34,58.3,39.38,0,73.68-11.71,102.88-35.14,41.59-33.21,62.39-85.59,62.39-157.15,0-64.1-18.59-115.32-55.78-153.68-34.16-35.26-76.3-52.9-126.43-52.9s-93.65,15.45-124.77,46.34c-33.33,32.69-49.99,78.64-49.99,137.85,0,64.1,18.45,116.22,55.36,156.38Z"/>
          <path class="cls-1" d="M2108.36,3588.87c-5.78-3.09-8.68-10.29-8.68-21.62,0-18.79.96-38.48,2.89-59.08.27-5.92,1.79-8.88,4.54-8.88,3.03,0,4.54,1.93,4.54,5.79,0,8.75.55,15.71,1.65,20.85,4.13,19.31,15.01,33.98,32.64,44.02,15.14,8.75,33.74,13.13,55.78,13.13,26.99,0,48.61-7.98,64.87-23.94,14.05-13.9,21.07-30.76,21.07-50.58,0-18.79-5.1-35.39-15.29-49.81-9.37-13.64-27.27-30.63-53.71-50.97l-26.86-20.47c-52.06-40.16-78.09-80.7-78.09-121.63,0-30.12,11.15-54.44,33.47-72.98,22.58-18.53,52.74-27.8,90.48-27.8,19.83,0,38.42,1.8,55.78,5.41,10.19,2.06,17.21,3.09,21.07,3.09,4.13,0,6.2,1.29,6.2,3.86,0-2.06-.41,3.35-1.24,16.22-.83,13.13-1.24,27.42-1.24,42.86,0,8.75-1.38,13.13-4.13,13.13s-4.41-2.44-4.96-7.34c-.83-11.32-3.45-20.72-7.85-28.19-12.67-19.56-37.6-29.35-74.78-29.35-21.21,0-38.57,5.67-52.06,16.99-14.32,12.1-21.48,28.06-21.48,47.88,0,15.96,4.96,30.38,14.87,43.25,9.92,13.13,29.19,29.99,57.84,50.58l16.94,12.36c33.88,24.97,57.29,47.88,70.24,68.73,11.57,18.28,17.35,39.26,17.35,62.94,0,39.65-16.94,70.66-50.82,93.06-24.52,15.7-54.68,23.55-90.48,23.55-31.4,0-58.26-5.02-80.57-15.06Z"/>
          <path class="cls-1" d="M2563.15,3560.3c-22.31-23.94-33.47-50.71-33.47-80.31,0-56.38,30.57-101.29,91.72-134.76-19.56-26.26-29.34-51.99-29.34-77.23s11.43-47.49,34.29-68.34c25.62-23.17,57.15-34.75,94.61-34.75,30.57,0,54.67,4.63,72.3,13.9,5.23,2.84,7.85,7.47,7.85,13.9,0,31.66-1.38,53.16-4.13,64.48-1.38,6.44-3.31,9.65-5.78,9.65s-3.72-3.6-3.72-10.81c0-19.56-6.2-35.39-18.59-47.49-17.08-16.47-37.05-24.71-59.91-24.71-20.39,0-37.6,5.67-51.64,16.99-16.25,13.39-24.38,32.18-24.38,56.37,0,20.34,7.99,41.7,23.96,64.1,12.12,17.25,35.67,43.63,70.65,79.16,30.02,30.89,67.76,64.36,113.21,100.39,20.38-25.48,30.57-56.5,30.57-93.06,0-11.07-3.86-20.21-11.57-27.42-6.06-5.92-15.84-8.88-29.33-8.88-4.69,0-7.02-1.29-7.02-3.86s3.16-3.86,9.5-3.86c23.14,0,47.1,1.29,71.89,3.86,7.16,1.03,10.74,4.77,10.74,11.2,0,43.25-19.7,87.27-59.08,132.06,27.82,22.14,55.36,40.68,82.63,55.6,26.16,14.42,49.85,21.62,71.06,21.62,5.78,0,8.68,1.29,8.68,3.86s-3.45,3.86-10.33,3.86h-58.67c-22.87,0-40.9-2.7-54.12-8.11-15.15-5.92-38.7-20.72-70.65-44.4-43.25,40.42-93.1,60.62-149.56,60.62-47.66,0-85.11-14.54-112.38-43.63ZM2809.81,3532.89c-39.66-30.37-75.88-62.03-108.66-94.99-31.68-31.14-55.23-57.27-70.65-78.38-35.81,22.4-53.71,53.8-53.71,94.22,0,34.75,11.57,63.58,34.7,86.49,22.86,22.65,51.23,33.98,85.11,33.98,46,0,83.73-13.77,113.21-41.32Z"/>
          <path class="cls-1" d="M8.68,4146.91c-5.78-3.09-8.68-10.29-8.68-21.62,0-18.79.96-38.48,2.89-59.08.27-5.92,1.79-8.88,4.54-8.88,3.03,0,4.54,1.93,4.54,5.79,0,8.75.55,15.71,1.65,20.85,4.13,19.31,15.01,33.98,32.64,44.02,15.14,8.75,33.74,13.13,55.78,13.13,26.99,0,48.61-7.98,64.87-23.94,14.05-13.9,21.07-30.76,21.07-50.58,0-18.79-5.1-35.39-15.29-49.81-9.37-13.64-27.27-30.63-53.71-50.97l-26.86-20.47c-52.06-40.16-78.09-80.7-78.09-121.63,0-30.12,11.16-54.44,33.47-72.98,22.58-18.53,52.74-27.8,90.48-27.8,19.83,0,38.42,1.8,55.78,5.4,10.19,2.06,17.21,3.09,21.07,3.09,4.13,0,6.2,1.29,6.2,3.86,0-2.06-.41,3.35-1.24,16.22-.83,13.13-1.24,27.41-1.24,42.86,0,8.75-1.38,13.13-4.13,13.13s-4.41-2.44-4.96-7.34c-.83-11.33-3.45-20.72-7.85-28.19-12.67-19.56-37.6-29.34-74.78-29.34-21.21,0-38.57,5.67-52.06,16.99-14.33,12.1-21.48,28.06-21.48,47.88,0,15.96,4.96,30.38,14.87,43.25,9.92,13.13,29.19,29.99,57.84,50.58l16.94,12.36c33.88,24.97,57.29,47.88,70.24,68.73,11.57,18.28,17.35,39.26,17.35,62.94,0,39.65-16.94,70.66-50.82,93.06-24.52,15.7-54.68,23.55-90.48,23.55-31.4,0-58.26-5.02-80.57-15.06Z"/>
          <path class="cls-1" d="M476.21,3744.57c5.51-14.41,9.92-21.62,13.22-21.62,3.03,0,7.44,6.7,13.22,20.08,72.16,176.33,118.71,288.82,139.65,337.48,15.97,36.81,33.05,57.53,51.23,62.17,20.11,7.21,30.16,9.53,30.16,6.95,0,2.32-1.93,3.73-5.78,4.25-2.76.25-13.64.39-32.64.39-57.01,0-85.52-1.8-85.52-5.4,0-1.03,1.51-2.44,4.54-4.25,3.03-1.55,4.54-4.11,4.54-7.72,0-2.32-.55-4.63-1.65-6.95l-55.36-137.85c-1.38-2.06-3.17-3.09-5.37-3.09h-128.9c-2.76,0-4.82,1.42-6.2,4.25l-35.94,99.23c-5.51,14.67-8.26,26.64-8.26,35.91,0,11.84,7.57,17.76,22.72,17.76h6.2c3.85,0,5.78,1.16,5.78,3.47,0,2.83-3.03,4.25-9.09,4.25h-114.44c-7.44,0-11.16-1.42-11.16-4.25,0-2.32,1.79-3.47,5.37-3.47,19.28,0,34.01-4.63,44.21-13.9,8.26-7.2,16.11-20.47,23.55-39.77l135.93-347.9ZM538.6,3968.52c1.65,0,2.48-.51,2.48-1.54s-.14-1.8-.41-2.32l-56.6-150.98c-1.65-4.11-3.31-6.18-4.96-6.18s-3.03,2.06-4.13,6.18l-52.88,150.98c-.28.52-.41,1.16-.41,1.93,0,1.29.83,1.93,2.48,1.93h114.44Z"/>
          <path class="cls-1" d="M764.75,3893.23c0-68.73-.41-109.14-1.24-121.24-.55-10.04-2.48-17.24-5.78-21.62-3.58-4.89-10.19-8.23-19.83-10.04-5.51-1.29-12.4-1.93-20.66-1.93-3.03,0-4.55-1.03-4.55-3.09,0-3.09,3.16-4.63,9.5-4.63,10.74,0,24.92.26,42.56.77l26.44,1.16,24.79-1.16c15.97-.51,27.4-.77,34.29-.77s9.92,1.54,9.92,4.63c0,2.06-1.65,3.09-4.96,3.09-2.21,0-7.16.65-14.87,1.93-13.78,2.06-21.21,12.62-22.31,31.66-.83,12.1-1.24,52.51-1.24,121.24v78.38c0,65.13,15.01,111.21,45.03,138.23,23.41,20.6,53.57,30.89,90.48,30.89s69.82-13.51,93.79-40.54c23.41-26.77,35.12-72.46,35.12-137.08v-69.89c0-68.73-.41-109.14-1.24-121.24-.56-9.78-2.62-16.99-6.2-21.62-3.58-4.89-10.19-8.23-19.83-10.04-4.96-1.29-11.71-1.93-20.24-1.93-3.31,0-4.96-1.03-4.96-3.09,0-3.09,3.31-4.63,9.92-4.63,11.01,0,24.51.26,40.49.77l22.72,1.16,20.25-1.16c12.94-.51,22.99-.77,30.16-.77,6.33,0,9.5,1.54,9.5,4.63,0,2.06-1.52,3.09-4.54,3.09-1.93,0-7.02.65-15.29,1.93-13.5,2.84-20.8,13.39-21.9,31.66-.83,12.1-1.24,52.51-1.24,121.24v59.85c0,81.09-18.32,136.82-54.95,167.19-33.61,27.8-74.78,41.7-123.53,41.7-52.33,0-93.52-13.26-123.53-39.77-34.7-31.14-52.06-80.32-52.06-147.5v-81.47Z"/>
          <path class="cls-1" d="M1272.46,4101.35c-48.2-40.67-72.3-95.89-72.3-165.65,0-60.23,22.31-111.2,66.93-152.91,42.69-39.9,103.56-59.85,182.62-59.85,32.5,0,61.56,2.19,87.18,6.56,29.19,4.89,49.58,7.72,61.15,8.49,4.96.26,7.44,2.32,7.44,6.18l-.83,9.65c-.83,6.95-1.52,14.16-2.07,21.62-.55,7.21-.97,18.15-1.24,32.82l-.41,25.1c-.83,7.72-2.62,11.58-5.37,11.58-3.31,0-4.96-3.86-4.96-11.58,0-24.97-8.41-44.02-25.2-57.15-25.89-21.36-65.83-32.05-119.82-32.05-61.42,0-107.29,13.65-137.58,40.93-36.09,32.18-54.12,80.83-54.12,145.96,0,55.35,19.97,102.84,59.91,142.48,41.86,41.7,94.06,62.55,156.59,62.55,49.85,0,84.55-9.39,104.11-28.19,10.47-10.29,17.9-25.87,22.31-46.72,1.1-5.66,3.03-8.49,5.78-8.49s4.13,2.84,4.13,8.49c0,20.6-4.41,44.4-13.22,71.43-2.48,7.72-7.58,13.13-15.29,16.22-22.59,8.75-58.53,13.13-107.83,13.13-83.74,0-149.71-20.21-197.9-60.62Z"/>
          <path class="cls-1" d="M1734.48,3893.23c0-68.73-.41-109.14-1.24-121.24-.56-10.04-2.48-17.24-5.79-21.62-3.58-4.89-10.19-8.23-19.83-10.04-5.51-1.29-12.26-1.93-20.25-1.93-3.31,0-4.96-1.03-4.96-3.09,0-3.09,3.16-4.63,9.5-4.63,20.1,0,34.56.26,43.38.77l24.38,1.16c82.35,0,128.08-.25,137.17-.77,11.57-.25,20.1-1.16,25.62-2.7,7.71-1.8,10.6-2.7,8.68-2.7,1.37,0,2.07,1.68,2.07,5.02,0,.77-.56,3.61-1.65,8.49-1.38,5.93-2.34,11.84-2.89,17.76-.28,1.54-.69,7.47-1.24,17.76-.55,10.3-1.1,16.6-1.65,18.92-1.1,4.12-2.62,6.18-4.54,6.18-3.03,0-4.54-2.32-4.54-6.95,0-7.72-1.24-14.54-3.72-20.47-4.69-10.04-18.87-16.34-42.55-18.92-8.82-1.03-36.09-1.54-81.81-1.54-2.48,0-3.72,1.8-3.72,5.41v154.45c0,3.86,1.24,5.79,3.72,5.79,54.26,0,85.94-.39,95.03-1.16,14.87-1.29,24.23-3.86,28.09-7.72,4.4-4.89,7.44-7.34,9.09-7.34,1.92,0,2.89,1.42,2.89,4.25,0,.77-.56,4.12-1.65,10.04-1.38,7.21-2.34,14.42-2.89,21.62-1.65,14.93-2.48,26.78-2.48,35.52,0,7.21-1.38,10.81-4.13,10.81s-4.13-1.67-4.13-5.02c0-7.46-.83-13.64-2.48-18.53-3.58-11.32-14.05-17.89-31.4-19.69-18.73-1.8-47.24-2.7-85.52-2.7-2.76,0-4.13,1.29-4.13,3.86v145.18c.83,19.57,5.23,32.05,13.22,37.45,8.53,5.67,27.27,8.5,56.19,8.5s47.23-2.06,57.43-6.18c14.05-5.4,23.14-18.92,27.27-40.54.83-5.41,2.62-8.11,5.37-8.11,2.2,0,3.31,2.7,3.31,8.11,0,18.02-2.62,36.17-7.85,54.44-1.93,6.95-4.82,11.2-8.68,12.74-3.03,1.29-10.88,1.93-23.55,1.93-28.09,0-61.84-.65-101.22-1.93-20.66-1.03-36.22-1.54-46.69-1.54-7.71,0-15.7.13-23.96.39l-34.7,1.16c-6.34,0-9.5-1.42-9.5-4.25,0-2.32,1.51-3.47,4.54-3.47,4.96,0,11.01-.77,18.18-2.32,8.81-1.8,14.6-11.97,17.35-30.5,1.92-15.7,2.89-56.24,2.89-121.63v-98.46Z"/>
          <path class="cls-1" d="M2089.01,3893.23c0-68.73-.41-109.14-1.24-121.24-.56-10.04-2.48-17.24-5.79-21.62-3.58-4.89-10.19-8.23-19.83-10.04-5.51-1.29-12.26-1.93-20.25-1.93-3.31,0-4.96-1.03-4.96-3.09,0-3.09,3.16-4.63,9.5-4.63,11.01,0,25.34.26,42.97.77l24.79,1.16,29.75-1.16c19.83-.51,36.91-.77,51.23-.77,52.88,0,91.44,2.06,115.68,6.18,52.33,8.75,93.79,27.93,124.36,57.53,38.84,37.84,58.26,85.34,58.26,142.48,0,62.3-21.63,114.94-64.87,157.93-43.52,42.73-103.98,64.1-181.38,64.1-20.93,0-48.75-1.03-83.46-3.09-31.13-2.32-47.65-3.47-49.58-3.47-7.71,0-15.7.13-23.96.39l-34.7,1.16c-6.34,0-9.5-1.42-9.5-4.25,0-2.32,1.51-3.47,4.54-3.47,4.96,0,11.01-.77,18.18-2.32,8.81-1.8,14.6-11.97,17.35-30.5,1.92-15.7,2.89-56.24,2.89-121.63v-98.46ZM2139.41,3953.46c0,70.28.41,110.82,1.24,121.63.83,23.69,3.03,37.84,6.61,42.47,10.74,14.93,44.62,22.4,101.64,22.4s105.9-17.38,142.54-52.13c31.95-29.09,47.93-73.62,47.93-133.6,0-56.63-19.15-103.74-57.43-141.32-42.97-42.21-108.25-63.32-195.84-63.32-20.39,0-33.33,1.42-38.84,4.25-4.96,1.8-7.44,5.54-7.44,11.2-.28,12.62-.41,52.26-.41,118.93v69.5Z"/>
          <path class="cls-1" d="M2603.64,3798.24c44.34-50.2,104.25-75.3,179.72-75.3,68.86,0,124.91,18.67,168.16,55.99,44.89,38.61,67.34,89.97,67.34,154.06s-21.76,117.9-65.28,161.4c-45.18,45.05-103.15,67.57-173.94,67.57-75.75,0-134.97-24.07-177.66-72.21-36.36-41.18-54.54-90.48-54.54-147.89,0-53.28,18.73-101.17,56.19-143.64ZM2659.83,4082.43c35.8,38.87,81.25,58.3,136.34,58.3,39.38,0,73.68-11.71,102.88-35.14,41.59-33.21,62.39-85.59,62.39-157.15,0-64.1-18.59-115.32-55.78-153.68-34.16-35.26-76.3-52.9-126.43-52.9s-93.65,15.45-124.77,46.34c-33.33,32.69-49.99,78.64-49.99,137.85,0,64.1,18.45,116.22,55.36,156.38Z"/>
        </g>
        <g>
          <path class="cls-1" d="M66.85,4310.98c1.76-4.61,3.17-6.91,4.23-6.91.97,0,2.38,2.14,4.23,6.42,23.08,56.39,37.96,92.36,44.66,107.91,5.1,11.77,10.57,18.4,16.38,19.88,6.43,2.31,9.64,3.05,9.64,2.22,0,.74-.62,1.19-1.85,1.36-.88.08-4.36.12-10.44.12-18.23,0-27.35-.58-27.35-1.73,0-.33.48-.78,1.45-1.36.97-.49,1.45-1.32,1.45-2.47,0-.74-.18-1.48-.53-2.22l-17.7-44.08c-.44-.66-1.01-.99-1.72-.99h-41.22c-.88,0-1.54.45-1.98,1.36l-11.49,31.73c-1.76,4.69-2.64,8.52-2.64,11.48,0,3.79,2.42,5.68,7.27,5.68h1.98c1.23,0,1.85.37,1.85,1.11,0,.9-.97,1.36-2.91,1.36H3.57c-2.38,0-3.57-.45-3.57-1.36,0-.74.57-1.11,1.72-1.11,6.16,0,10.88-1.48,14.13-4.44,2.64-2.3,5.15-6.54,7.53-12.72l43.47-111.25ZM86.8,4382.59c.53,0,.79-.16.79-.49s-.04-.58-.13-.74l-18.1-48.28c-.53-1.32-1.06-1.98-1.59-1.98s-.97.66-1.32,1.98l-16.91,48.28c-.09.17-.13.37-.13.62,0,.41.26.62.79.62h36.6Z"/>
          <path class="cls-1" d="M439.7,4358.51c0-21.98-.13-34.9-.4-38.77-.18-3.21-.79-5.51-1.85-6.91-1.14-1.56-3.26-2.63-6.34-3.21-1.76-.41-3.92-.62-6.47-.62-1.06,0-1.59-.33-1.59-.99,0-.99,1.01-1.48,3.04-1.48,3.52,0,8.1.08,13.74.25l7.93.37c1.23,0,4.18-.12,8.85-.37,4.76-.16,8.76-.25,12.02-.25,13.83,0,24.13,3.38,30.92,10.12,4.93,4.86,7.4,10.46,7.4,16.79,0,9.8-5.99,20.54-17.97,32.23,8.46,2.47,15.77,6.67,21.93,12.59,7.48,7.25,11.23,15.64,11.23,25.19,0,10.46-4.05,19.35-12.16,26.67-9.07,8.23-21.32,12.35-36.73,12.35l-13.87-.62c-4.94-.33-8.81-.49-11.63-.49-2.47,0-5.02.04-7.66.12l-11.1.37c-2.03,0-3.04-.45-3.04-1.36,0-.74.48-1.11,1.45-1.11,1.59,0,3.52-.25,5.81-.74,2.82-.58,4.67-3.83,5.55-9.75.61-5.02.93-17.98.93-38.89v-31.49ZM455.03,4362.47c0,.99.44,1.65,1.32,1.98,3.96.41,7.88.62,11.76.62,8.63,0,14.44-1.52,17.44-4.57,4.58-5.02,6.87-11.07,6.87-18.15,0-8.4-1.98-15.39-5.95-20.99-4.58-6.5-11.23-9.75-19.95-9.75-3.7,0-6.78.29-9.25.86-1.5.33-2.24.99-2.24,1.98v48.03ZM455.03,4381.36c0,24.04.09,36.92.26,38.65.26,4.94.66,8.07,1.19,9.38.7,1.89,2.46,3.46,5.28,4.69,4.05,1.73,9.64,2.59,16.78,2.59s12.59-1.73,17.44-5.19c6.43-4.44,9.64-11.19,9.64-20.25,0-15.89-6.21-27.82-18.63-35.81-4.14-2.63-9.43-4.36-15.85-5.19-1.68-.25-6.65-.37-14.93-.37-.79,0-1.19.45-1.19,1.36v10.12Z"/>
          <path class="cls-1" d="M820.75,4328.14c14.18-16.05,33.34-24.08,57.47-24.08,22.02,0,39.94,5.97,53.77,17.9,14.35,12.35,21.53,28.77,21.53,49.27s-6.96,37.7-20.88,51.61c-14.45,14.41-32.98,21.61-55.62,21.61-24.22,0-43.16-7.69-56.81-23.09-11.63-13.17-17.44-28.93-17.44-47.29,0-17.04,5.99-32.35,17.97-45.93ZM838.71,4419.02c11.45,12.43,25.98,18.64,43.6,18.64,12.59,0,23.56-3.74,32.9-11.24,13.3-10.62,19.95-27.37,19.95-50.25,0-20.5-5.95-36.88-17.84-49.14-10.92-11.28-24.4-16.92-40.43-16.92s-29.94,4.94-39.9,14.82c-10.66,10.46-15.99,25.15-15.99,44.08,0,20.5,5.9,37.17,17.7,50.01Z"/>
          <path class="cls-1" d="M1352.4,4396.3c0-7.24-.49-11.89-1.45-13.95-.88-2.06-3.26-3.58-7.13-4.57-1.41-.33-3.61-.49-6.61-.49-.97,0-1.45-.37-1.45-1.11,0-.9,1.01-1.36,3.04-1.36,3.52,0,8.06.08,13.61.25l8.06.25,7.53-.25c5.11-.16,8.85-.25,11.23-.25,2.03,0,3.04.45,3.04,1.36,0,.74-.53,1.11-1.59,1.11s-2.64.17-4.76.49c-4.41.83-6.74,4.24-7,10.25-.26,3.79-.4,10-.4,18.64v20c0,3.95-.13,6.42-.4,7.41-.26.83-.97,1.57-2.11,2.22-10.83,5.43-24.4,8.15-40.69,8.15-26.34,0-47.34-6.38-63.02-19.14-6.34-5.19-11.58-12.1-15.72-20.74-4.67-9.63-7-19.76-7-30.37,0-13.5,3.22-25.64,9.64-36.42,5.64-9.55,13.08-17.04,22.33-22.47,12.86-7.49,29.86-11.24,51-11.24,9.6,0,19.33,1.03,29.2,3.09,4.76.99,9.95,1.57,15.59,1.73,1.5.08,2.24.62,2.24,1.61,0-.49-.22,1.81-.66,6.91-.44,5.1-.66,11.28-.66,18.52,0,2.47-.57,3.7-1.72,3.7-.7,0-1.14-.86-1.32-2.59-.18-4.11-1.5-8.06-3.97-11.85-2.73-3.87-7.75-7.12-15.06-9.75-8.54-3.13-18.54-4.69-29.99-4.69-16.74,0-30.43,3.91-41.09,11.73-12.6,9.38-18.89,24.57-18.89,45.56,0,11.11,2.55,21.77,7.66,31.98,3.7,7.49,7.93,13.33,12.68,17.53,13.92,12.76,30.65,19.14,50.2,19.14,9.95,0,17.22-1.23,21.8-3.7,2.55-1.23,3.83-3.33,3.83-6.3v-30.37Z"/>
          <path class="cls-1" d="M1714.02,4310.98c1.76-4.61,3.17-6.91,4.23-6.91.97,0,2.38,2.14,4.23,6.42,23.08,56.39,37.96,92.36,44.66,107.91,5.1,11.77,10.57,18.4,16.38,19.88,6.43,2.31,9.64,3.05,9.64,2.22,0,.74-.62,1.19-1.85,1.36-.88.08-4.36.12-10.44.12-18.23,0-27.35-.58-27.35-1.73,0-.33.48-.78,1.45-1.36.97-.49,1.45-1.32,1.45-2.47,0-.74-.18-1.48-.53-2.22l-17.7-44.08c-.44-.66-1.01-.99-1.72-.99h-41.22c-.88,0-1.54.45-1.98,1.36l-11.49,31.73c-1.76,4.69-2.64,8.52-2.64,11.48,0,3.79,2.42,5.68,7.27,5.68h1.98c1.23,0,1.85.37,1.85,1.11,0,.9-.97,1.36-2.91,1.36h-36.6c-2.38,0-3.57-.45-3.57-1.36,0-.74.57-1.11,1.72-1.11,6.16,0,10.88-1.48,14.13-4.44,2.64-2.3,5.15-6.54,7.53-12.72l43.47-111.25ZM1733.97,4382.59c.53,0,.79-.16.79-.49s-.04-.58-.13-.74l-18.1-48.28c-.53-1.32-1.06-1.98-1.59-1.98s-.97.66-1.32,1.98l-16.91,48.28c-.09.17-.13.37-.13.62,0,.41.26.62.79.62h36.6Z"/>
          <path class="cls-1" d="M2086.88,4358.51c0-21.98-.13-34.9-.4-38.77-.18-3.21-.79-5.51-1.85-6.91-1.14-1.56-3.26-2.63-6.34-3.21-1.76-.41-3.92-.62-6.47-.62-1.06,0-1.59-.33-1.59-.99,0-.99,1.01-1.48,3.04-1.48,3.52,0,8.1.08,13.74.25l7.93.37,9.51-.37c6.34-.16,11.8-.25,16.38-.25,16.91,0,29.24.66,36.99,1.98,16.73,2.8,29.99,8.93,39.77,18.4,12.42,12.1,18.63,27.29,18.63,45.56,0,19.92-6.91,36.76-20.74,50.5-13.92,13.67-33.25,20.5-58,20.5-6.69,0-15.59-.33-26.69-.99-9.95-.74-15.24-1.11-15.85-1.11-2.47,0-5.02.04-7.66.12l-11.1.37c-2.03,0-3.04-.45-3.04-1.36,0-.74.48-1.11,1.45-1.11,1.59,0,3.52-.25,5.81-.74,2.82-.58,4.67-3.83,5.55-9.75.61-5.02.93-17.98.93-38.89v-31.49ZM2102.99,4377.78c0,22.47.13,35.44.4,38.89.26,7.57.97,12.1,2.11,13.58,3.43,4.78,14.27,7.16,32.5,7.16s33.87-5.56,45.58-16.67c10.22-9.3,15.32-23.54,15.32-42.72,0-18.11-6.12-33.17-18.36-45.19-13.74-13.5-34.61-20.25-62.62-20.25-6.52,0-10.66.45-12.42,1.36-1.59.58-2.38,1.77-2.38,3.58-.09,4.04-.13,16.71-.13,38.03v22.22Z"/>
          <path class="cls-1" d="M2519.58,4328.14c14.18-16.05,33.34-24.08,57.47-24.08,22.02,0,39.94,5.97,53.77,17.9,14.35,12.35,21.53,28.77,21.53,49.27s-6.96,37.7-20.88,51.61c-14.45,14.41-32.98,21.61-55.62,21.61-24.22,0-43.16-7.69-56.81-23.09-11.63-13.17-17.44-28.93-17.44-47.29,0-17.04,5.99-32.35,17.97-45.93ZM2537.54,4419.02c11.45,12.43,25.98,18.64,43.6,18.64,12.59,0,23.56-3.74,32.9-11.24,13.3-10.62,19.95-27.37,19.95-50.25,0-20.5-5.95-36.88-17.84-49.14-10.92-11.28-24.4-16.92-40.43-16.92s-29.94,4.94-39.9,14.82c-10.66,10.46-15.99,25.15-15.99,44.08,0,20.5,5.9,37.17,17.7,50.01Z"/>
          <path class="cls-1" d="M2947.92,4439.64c-1.85-.99-2.77-3.29-2.77-6.91,0-6.01.31-12.31.92-18.89.09-1.89.57-2.84,1.45-2.84.97,0,1.45.62,1.45,1.85,0,2.8.17,5.02.53,6.67,1.32,6.17,4.8,10.87,10.44,14.08,4.84,2.8,10.79,4.2,17.84,4.2,8.63,0,15.55-2.55,20.74-7.66,4.49-4.44,6.74-9.84,6.74-16.17,0-6.01-1.63-11.32-4.89-15.93-2.99-4.36-8.72-9.79-17.17-16.3l-8.59-6.54c-16.65-12.84-24.97-25.81-24.97-38.89,0-9.63,3.57-17.41,10.7-23.34,7.22-5.93,16.87-8.89,28.93-8.89,6.34,0,12.29.58,17.84,1.73,3.26.66,5.5.99,6.74.99,1.32,0,1.98.41,1.98,1.23,0-.66-.13,1.07-.4,5.19-.26,4.2-.4,8.77-.4,13.71,0,2.8-.44,4.2-1.32,4.2s-1.41-.78-1.59-2.35c-.26-3.62-1.1-6.63-2.51-9.01-4.05-6.25-12.02-9.38-23.91-9.38-6.78,0-12.33,1.81-16.65,5.43-4.58,3.87-6.87,8.97-6.87,15.31,0,5.1,1.59,9.72,4.76,13.83,3.17,4.2,9.33,9.59,18.5,16.17l5.42,3.95c10.83,7.99,18.32,15.31,22.46,21.98,3.7,5.85,5.55,12.55,5.55,20.13,0,12.68-5.42,22.6-16.25,29.76-7.84,5.02-17.48,7.53-28.93,7.53-10.04,0-18.63-1.61-25.76-4.82Z"/>
        </g>
      </g>
    </g>
  </g>
</svg>